<?xml version="1.0" standalone="no"?>
<!DOCTYPE svg PUBLIC "-//W3C//DTD SVG 1.1//EN" "http://www.w3.org/Graphics/SVG/1.1/DTD/svg11.dtd" >
<svg xmlns="http://www.w3.org/2000/svg" xmlns:xlink="http://www.w3.org/1999/xlink" version="1.1">
<metadata>
Created by FontForge 20161116 at Tue Nov  8 14:55:16 2016
 By Jimmy Wärting
Copyright 2011 The Quicksand Project Authors (https://github.com/andrew-paglinawan/QuicksandFamily), with Reserved Font Name "Quicksand".
</metadata>
<defs>
<font id="Quicksand-Light" horiz-adv-x="0" >
  <font-face 
    font-family="Quicksand Light"
    font-weight="300"
    font-stretch="normal"
    units-per-em="1000"
    panose-1="0 0 4 0 0 0 0 0 0 0"
    ascent="800"
    descent="-200"
    x-height="499"
    cap-height="700"
    bbox="-363 -211 1313 1130"
    underline-thickness="50"
    underline-position="-100"
    unicode-range="U+000D-FB02"
  />
<missing-glyph horiz-adv-x="584" 
d="M75 700h434q35 0 35 -35v-630q0 -35 -35 -35h-434q-35 0 -35 35v630q0 35 35 35zM91 668q-1 -2 1 -4l416 -599q2 -3 4 -2.5t2 4.5v598q0 5 -5 5h-414q-3 0 -4 -2zM75 30h413q3 0 4 2t-1 4l-415 599q-2 3 -4 2.5t-2 -4.5v-598q0 -5 5 -5z" />
    <glyph glyph-name="f_f" unicode="ff" horiz-adv-x="664" 
d="M298.5 487.5q5.5 -5.5 5.5 -13.5t-5.5 -13.5t-13.5 -5.5h-118v-435q0 -8 -6 -14t-14 -6q-9 0 -14.5 6t-5.5 14v435h-80q-7 0 -13 6t-6 13q0 9 5.5 14t13.5 5h80v122q0 59 31.5 89.5t80.5 30.5q25 0 47.5 -6.5t22.5 -21.5q0 -8 -6 -14t-13 -6q-8 0 -21 5q-23 7 -34 7
q-31 0 -49.5 -21t-18.5 -63v-122h118q8 0 13.5 -5.5zM630.5 487.5q5.5 -5.5 5.5 -13.5t-5.5 -13.5t-13.5 -5.5h-118v-435q0 -8 -6 -14t-14 -6q-9 0 -14.5 6t-5.5 14v435h-80q-7 0 -13 6t-6 13q0 9 5.5 14t13.5 5h80v122q0 59 31.5 89.5t80.5 30.5q25 0 47.5 -6.5t22.5 -21.5
q0 -8 -6 -14t-13 -6q-8 0 -21 5q-23 7 -34 7q-31 0 -49.5 -21t-18.5 -63v-122h118q8 0 13.5 -5.5z" />
    <glyph glyph-name="f_f_i" unicode="ffi" horiz-adv-x="870" 
d="M298.5 487.5q5.5 -5.5 5.5 -13.5t-5.5 -13.5t-13.5 -5.5h-118v-435q0 -8 -6 -14t-14 -6q-9 0 -14.5 6t-5.5 14v435h-80q-7 0 -13 6t-6 13q0 9 5.5 14t13.5 5h80v122q0 59 31.5 89.5t80.5 30.5q25 0 47.5 -6.5t22.5 -21.5q0 -8 -6 -14t-13 -6q-8 0 -21 5q-23 7 -34 7
q-31 0 -49.5 -21t-18.5 -63v-122h118q8 0 13.5 -5.5zM630.5 487.5q5.5 -5.5 5.5 -13.5t-5.5 -13.5t-13.5 -5.5h-118v-435q0 -8 -6 -14t-14 -6q-9 0 -14.5 6t-5.5 14v435h-80q-7 0 -13 6t-6 13q0 9 5.5 14t13.5 5h80v122q0 59 31.5 89.5t80.5 30.5q25 0 47.5 -6.5t22.5 -21.5
q0 -8 -6 -14t-13 -6q-8 0 -21 5q-23 7 -34 7q-31 0 -49.5 -21t-18.5 -63v-122h118q8 0 13.5 -5.5zM781 6q-6 -6 -14 -6q-9 0 -14.5 6t-5.5 14v475q0 8 6 14t14 6q9 0 14.5 -6t5.5 -14v-475q0 -8 -6 -14zM741.5 592q-9.5 9 -9.5 23v8q0 14 10 23t26 9q14 0 23.5 -9t9.5 -23
v-8q0 -14 -9.5 -23t-24.5 -9q-16 0 -25.5 9z" />
    <glyph glyph-name="f_f_l" unicode="ffl" horiz-adv-x="880" 
d="M298.5 487.5q5.5 -5.5 5.5 -13.5t-5.5 -13.5t-13.5 -5.5h-118v-435q0 -8 -6 -14t-14 -6q-9 0 -14.5 6t-5.5 14v435h-80q-7 0 -13 6t-6 13q0 9 5.5 14t13.5 5h80v122q0 59 31.5 89.5t80.5 30.5q25 0 47.5 -6.5t22.5 -21.5q0 -8 -6 -14t-13 -6q-8 0 -21 5q-23 7 -34 7
q-31 0 -49.5 -21t-18.5 -63v-122h118q8 0 13.5 -5.5zM630.5 487.5q5.5 -5.5 5.5 -13.5t-5.5 -13.5t-13.5 -5.5h-118v-435q0 -8 -6 -14t-14 -6q-9 0 -14.5 6t-5.5 14v435h-80q-7 0 -13 6t-6 13q0 9 5.5 14t13.5 5h80v122q0 59 31.5 89.5t80.5 30.5q25 0 47.5 -6.5t22.5 -21.5
q0 -8 -6 -14t-13 -6q-8 0 -21 5q-23 7 -34 7q-31 0 -49.5 -21t-18.5 -63v-122h118q8 0 13.5 -5.5zM786 6q-6 -6 -14 -6q-9 0 -14.5 6t-5.5 14v700q0 8 6 14t14 6q9 0 14.5 -6t5.5 -14v-700q0 -8 -6 -14z" />
    <glyph glyph-name="fi" unicode="fi" horiz-adv-x="538" 
d="M298.5 487.5q5.5 -5.5 5.5 -13.5t-5.5 -13.5t-13.5 -5.5h-118v-435q0 -8 -6 -14t-14 -6q-9 0 -14.5 6t-5.5 14v435h-80q-7 0 -13 6t-6 13q0 9 5.5 14t13.5 5h80v122q0 59 31.5 89.5t80.5 30.5q25 0 47.5 -6.5t22.5 -21.5q0 -8 -6 -14t-13 -6q-8 0 -21 5q-23 7 -34 7
q-31 0 -49.5 -21t-18.5 -63v-122h118q8 0 13.5 -5.5zM449 6q-6 -6 -14 -6q-9 0 -14.5 6t-5.5 14v475q0 8 6 14t14 6q9 0 14.5 -6t5.5 -14v-475q0 -8 -6 -14zM409.5 592q-9.5 9 -9.5 23v8q0 14 10 23t26 9q14 0 23.5 -9t9.5 -23v-8q0 -14 -9.5 -23t-24.5 -9q-16 0 -25.5 9z
" />
    <glyph glyph-name="fl" unicode="fl" horiz-adv-x="548" 
d="M298.5 487.5q5.5 -5.5 5.5 -13.5t-5.5 -13.5t-13.5 -5.5h-118v-435q0 -8 -6 -14t-14 -6q-9 0 -14.5 6t-5.5 14v435h-80q-7 0 -13 6t-6 13q0 9 5.5 14t13.5 5h80v122q0 59 31.5 89.5t80.5 30.5q25 0 47.5 -6.5t22.5 -21.5q0 -8 -6 -14t-13 -6q-8 0 -21 5q-23 7 -34 7
q-31 0 -49.5 -21t-18.5 -63v-122h118q8 0 13.5 -5.5zM454 6q-6 -6 -14 -6q-9 0 -14.5 6t-5.5 14v700q0 8 6 14t14 6q9 0 14.5 -6t5.5 -14v-700q0 -8 -6 -14z" />
    <glyph glyph-name=".notdef" horiz-adv-x="584" 
d="M75 700h434q35 0 35 -35v-630q0 -35 -35 -35h-434q-35 0 -35 35v630q0 35 35 35zM91 668q-1 -2 1 -4l416 -599q2 -3 4 -2.5t2 4.5v598q0 5 -5 5h-414q-3 0 -4 -2zM75 30h413q3 0 4 2t-1 4l-415 599q-2 3 -4 2.5t-2 -4.5v-598q0 -5 5 -5z" />
    <glyph glyph-name="NULL" 
 />
    <glyph glyph-name="NULL" 
 />
    <glyph glyph-name="nonmarkingreturn" unicode="&#xd;" horiz-adv-x="270" 
 />
    <glyph glyph-name="space" unicode=" " horiz-adv-x="270" 
 />
    <glyph glyph-name="A" unicode="A" horiz-adv-x="649" 
d="M614 19q0 -9 -6 -14t-15 -5q-7 0 -12.5 3.5t-7.5 9.5l-84 206l1 -2h-335l-81 -204q-5 -13 -18 -13q-9 0 -14.5 5t-6.5 12q-1 4 1 10l269 662q3 8 7.5 10.5t11.5 2.5q15 0 20 -13l269 -662q1 -3 1 -8zM171 257h303l-153 377z" />
    <glyph glyph-name="Aacute" unicode="&#xc1;" horiz-adv-x="649" 
d="M614 19q0 -9 -6 -14t-15 -5q-7 0 -12.5 3.5t-7.5 9.5l-84 206l1 -2h-335l-81 -204q-5 -13 -18 -13q-9 0 -14.5 5t-6.5 12q-1 4 1 10l269 662q3 8 7.5 10.5t11.5 2.5q15 0 20 -13l269 -662q1 -3 1 -8zM171 257h303l-153 377zM320 751.5q-3 3.5 -3 8.5q0 8 9 15l90 67
q10 8 22 8q11 0 17 -7t6 -17q0 -16 -14 -24l-97 -47q-14 -7 -21 -7q-6 0 -9 3.5z" />
    <glyph glyph-name="Abreve" unicode="&#x102;" horiz-adv-x="649" 
d="M614 19q0 -9 -6 -14t-15 -5q-7 0 -12.5 3.5t-7.5 9.5l-84 206l1 -2h-335l-81 -204q-5 -13 -18 -13q-9 0 -14.5 5t-6.5 12q-1 4 1 10l269 662q3 8 7.5 10.5t11.5 2.5q15 0 20 -13l269 -662q1 -3 1 -8zM171 257h303l-153 377zM241 807q-34 27 -46 76q-1 2 -1 7q0 15 16 15
q9 0 12.5 -3.5t7.5 -13.5q27 -69 95 -69q67 0 94 69q3 9 7.5 12.5t12.5 3.5q11 0 14.5 -5t1.5 -16q-12 -49 -46 -76t-84 -27t-84 27z" />
    <glyph glyph-name="uni1EAE" unicode="&#x1eae;" horiz-adv-x="649" 
d="M614 19q0 -9 -6 -14t-15 -5q-7 0 -12.5 3.5t-7.5 9.5l-84 206l1 -2h-335l-81 -204q-5 -13 -18 -13q-9 0 -14.5 5t-6.5 12q-1 4 1 10l269 662q3 8 7.5 10.5t11.5 2.5q15 0 20 -13l269 -662q1 -3 1 -8zM171 257h303l-153 377zM241 807q-34 27 -46 76q-1 2 -1 7q0 15 16 15
q9 0 12.5 -3.5t7.5 -13.5q27 -69 95 -69q67 0 94 69q3 9 7.5 12.5t12.5 3.5q11 0 14.5 -5t1.5 -16q-12 -49 -46 -76t-84 -27t-84 27zM320 955.5q-3 3.5 -3 8.5q0 8 9 15l90 67q10 8 22 8q11 0 17 -7t6 -17q0 -16 -14 -24l-97 -47q-14 -7 -21 -7q-6 0 -9 3.5z" />
    <glyph glyph-name="uni1EB6" unicode="&#x1eb6;" horiz-adv-x="649" 
d="M614 19q0 -9 -6 -14t-15 -5q-7 0 -12.5 3.5t-7.5 9.5l-84 206l1 -2h-335l-81 -204q-5 -13 -18 -13q-9 0 -14.5 5t-6.5 12q-1 4 1 10l269 662q3 8 7.5 10.5t11.5 2.5q15 0 20 -13l269 -662q1 -3 1 -8zM171 257h303l-153 377zM299.5 -127q-9.5 10 -9.5 26v8q0 16 10 26
t26 10q14 0 23.5 -10t9.5 -26v-8q0 -16 -9.5 -26t-24.5 -10q-16 0 -25.5 10zM241 807q-34 27 -46 76q-1 2 -1 7q0 15 16 15q9 0 12.5 -3.5t7.5 -13.5q27 -69 95 -69q67 0 94 69q3 9 7.5 12.5t12.5 3.5q11 0 14.5 -5t1.5 -16q-12 -49 -46 -76t-84 -27t-84 27z" />
    <glyph glyph-name="uni1EB0" unicode="&#x1eb0;" horiz-adv-x="649" 
d="M614 19q0 -9 -6 -14t-15 -5q-7 0 -12.5 3.5t-7.5 9.5l-84 206l1 -2h-335l-81 -204q-5 -13 -18 -13q-9 0 -14.5 5t-6.5 12q-1 4 1 10l269 662q3 8 7.5 10.5t11.5 2.5q15 0 20 -13l269 -662q1 -3 1 -8zM171 257h303l-153 377zM241 807q-34 27 -46 76q-1 2 -1 7q0 15 16 15
q9 0 12.5 -3.5t7.5 -13.5q27 -69 95 -69q67 0 94 69q3 9 7.5 12.5t12.5 3.5q11 0 14.5 -5t1.5 -16q-12 -49 -46 -76t-84 -27t-84 27zM304 959l-97 47q-14 8 -14 24q0 10 6 17t17 7q12 0 22 -8l90 -67q9 -7 9 -15q0 -5 -3 -8.5t-9 -3.5q-7 0 -21 7z" />
    <glyph glyph-name="uni1EB2" unicode="&#x1eb2;" horiz-adv-x="649" 
d="M614 19q0 -9 -6 -14t-15 -5q-7 0 -12.5 3.5t-7.5 9.5l-84 206l1 -2h-335l-81 -204q-5 -13 -18 -13q-9 0 -14.5 5t-6.5 12q-1 4 1 10l269 662q3 8 7.5 10.5t11.5 2.5q15 0 20 -13l269 -662q1 -3 1 -8zM171 257h303l-153 377zM241 807q-34 27 -46 76q-1 2 -1 7q0 15 16 15
q9 0 12.5 -3.5t7.5 -13.5q27 -69 95 -69q67 0 94 69q3 9 7.5 12.5t12.5 3.5q11 0 14.5 -5t1.5 -16q-12 -49 -46 -76t-84 -27t-84 27zM328 1130q37 0 55.5 -21.5t18.5 -47.5q0 -16 -9 -29.5t-29 -33.5q-8 -8 -9 -23q-1 -7 -5.5 -10.5t-11.5 -3.5q-8 0 -12 4.5t-4 11.5
q0 25 14 40q5 5 14 14.5t13 16t4 14.5q0 13 -11 22.5t-26 9.5q-22 0 -47 -19q-10 -8 -18 -8q-7 0 -13 6q-4 6 -4 11q0 7 7 14q32 32 73 32z" />
    <glyph glyph-name="uni1EB4" unicode="&#x1eb4;" horiz-adv-x="649" 
d="M614 19q0 -9 -6 -14t-15 -5q-7 0 -12.5 3.5t-7.5 9.5l-84 206l1 -2h-335l-81 -204q-5 -13 -18 -13q-9 0 -14.5 5t-6.5 12q-1 4 1 10l269 662q3 8 7.5 10.5t11.5 2.5q15 0 20 -13l269 -662q1 -3 1 -8zM171 257h303l-153 377zM241 807q-34 27 -46 76q-1 2 -1 7q0 15 16 15
q9 0 12.5 -3.5t7.5 -13.5q27 -69 95 -69q67 0 94 69q3 9 7.5 12.5t12.5 3.5q11 0 14.5 -5t1.5 -16q-12 -49 -46 -76t-84 -27t-84 27zM183 1003q0 8 3 18q8 31 30 46t49 15q15 0 31 -7.5t42 -23.5q23 -14 35.5 -20t23.5 -6q15 0 24.5 12t12.5 33q1 8 5.5 13t12.5 5
q16 0 16 -19q0 -3 -2 -15q-15 -65 -77 -65q-13 0 -28 7t-39 22q-26 14 -38 20t-23 6q-32 0 -45 -44q-4 -14 -18 -14q-15 0 -15 17z" />
    <glyph glyph-name="uni01CD" unicode="&#x1cd;" horiz-adv-x="649" 
d="M614 19q0 -9 -6 -14t-15 -5q-7 0 -12.5 3.5t-7.5 9.5l-84 206l1 -2h-335l-81 -204q-5 -13 -18 -13q-9 0 -14.5 5t-6.5 12q-1 4 1 10l269 662q3 8 7.5 10.5t11.5 2.5q15 0 20 -13l269 -662q1 -3 1 -8zM171 257h303l-153 377zM436.5 877.5q3.5 -3.5 3.5 -8.5q0 -6 -6 -12
l-81 -86q-8 -12 -24 -12h-10q-16 0 -24 12l-81 85q-6 6 -6 12q0 5 3.5 8.5t8.5 3.5q7 0 19 -10l88 -68l82 69q12 10 19 10q5 0 8.5 -3.5z" />
    <glyph glyph-name="Acircumflex" unicode="&#xc2;" horiz-adv-x="649" 
d="M614 19q0 -9 -6 -14t-15 -5q-7 0 -12.5 3.5t-7.5 9.5l-84 206l1 -2h-335l-81 -204q-5 -13 -18 -13q-9 0 -14.5 5t-6.5 12q-1 4 1 10l269 662q3 8 7.5 10.5t11.5 2.5q15 0 20 -13l269 -662q1 -3 1 -8zM171 257h303l-153 377zM440 781q0 -5 -3.5 -8.5t-8.5 -3.5
q-7 0 -19 10l-88 68l-82 -69q-12 -10 -19 -10q-5 0 -8.5 3.5t-3.5 8.5q0 6 6 12l81 86q7 7 11.5 9.5t12.5 2.5h10q8 0 12.5 -2.5t11.5 -9.5l81 -85q6 -6 6 -12z" />
    <glyph glyph-name="uni1EA4" unicode="&#x1ea4;" horiz-adv-x="649" 
d="M614 19q0 -9 -6 -14t-15 -5q-7 0 -12.5 3.5t-7.5 9.5l-84 206l1 -2h-335l-81 -204q-5 -13 -18 -13q-9 0 -14.5 5t-6.5 12q-1 4 1 10l269 662q3 8 7.5 10.5t11.5 2.5q15 0 20 -13l269 -662q1 -3 1 -8zM171 257h303l-153 377zM440 781q0 -5 -3.5 -8.5t-8.5 -3.5
q-7 0 -19 10l-88 68l-82 -69q-12 -10 -19 -10q-5 0 -8.5 3.5t-3.5 8.5q0 6 6 12l81 86q7 7 11.5 9.5t12.5 2.5h10q8 0 12.5 -2.5t11.5 -9.5l81 -85q6 -6 6 -12zM437 831.5q-3 3.5 -3 8.5q0 8 9 15l90 67q10 8 22 8q11 0 17 -7t6 -17q0 -16 -14 -24l-97 -47q-14 -7 -21 -7
q-6 0 -9 3.5z" />
    <glyph glyph-name="uni1EAC" unicode="&#x1eac;" horiz-adv-x="649" 
d="M614 19q0 -9 -6 -14t-15 -5q-7 0 -12.5 3.5t-7.5 9.5l-84 206l1 -2h-335l-81 -204q-5 -13 -18 -13q-9 0 -14.5 5t-6.5 12q-1 4 1 10l269 662q3 8 7.5 10.5t11.5 2.5q15 0 20 -13l269 -662q1 -3 1 -8zM171 257h303l-153 377zM299.5 -127q-9.5 10 -9.5 26v8q0 16 10 26
t26 10q14 0 23.5 -10t9.5 -26v-8q0 -16 -9.5 -26t-24.5 -10q-16 0 -25.5 10zM440 781q0 -5 -3.5 -8.5t-8.5 -3.5q-7 0 -19 10l-88 68l-82 -69q-12 -10 -19 -10q-5 0 -8.5 3.5t-3.5 8.5q0 6 6 12l81 86q7 7 11.5 9.5t12.5 2.5h10q8 0 12.5 -2.5t11.5 -9.5l81 -85q6 -6 6 -12z
" />
    <glyph glyph-name="uni1EA6" unicode="&#x1ea6;" horiz-adv-x="649" 
d="M614 19q0 -9 -6 -14t-15 -5q-7 0 -12.5 3.5t-7.5 9.5l-84 206l1 -2h-335l-81 -204q-5 -13 -18 -13q-9 0 -14.5 5t-6.5 12q-1 4 1 10l269 662q3 8 7.5 10.5t11.5 2.5q15 0 20 -13l269 -662q1 -3 1 -8zM171 257h303l-153 377zM440 781q0 -5 -3.5 -8.5t-8.5 -3.5
q-7 0 -19 10l-88 68l-82 -69q-12 -10 -19 -10q-5 0 -8.5 3.5t-3.5 8.5q0 6 6 12l81 86q7 7 11.5 9.5t12.5 2.5h10q8 0 12.5 -2.5t11.5 -9.5l81 -85q6 -6 6 -12zM416 879l-97 47q-14 8 -14 24q0 10 6 17t17 7q12 0 22 -8l90 -67q9 -7 9 -15q0 -5 -3 -8.5t-9 -3.5q-7 0 -21 7z
" />
    <glyph glyph-name="uni1EA8" unicode="&#x1ea8;" horiz-adv-x="649" 
d="M614 19q0 -9 -6 -14t-15 -5q-7 0 -12.5 3.5t-7.5 9.5l-84 206l1 -2h-335l-81 -204q-5 -13 -18 -13q-9 0 -14.5 5t-6.5 12q-1 4 1 10l269 662q3 8 7.5 10.5t11.5 2.5q15 0 20 -13l269 -662q1 -3 1 -8zM171 257h303l-153 377zM440 781q0 -5 -3.5 -8.5t-8.5 -3.5
q-7 0 -19 10l-88 68l-82 -69q-12 -10 -19 -10q-5 0 -8.5 3.5t-3.5 8.5q0 6 6 12l81 86q7 7 11.5 9.5t12.5 2.5h10q8 0 12.5 -2.5t11.5 -9.5l81 -85q6 -6 6 -12zM473 969q37 0 55.5 -21.5t18.5 -47.5q0 -16 -9 -29.5t-29 -33.5q-8 -8 -9 -23q-1 -7 -5.5 -10.5t-11.5 -3.5
q-8 0 -12 4.5t-4 11.5q0 25 14 40q5 5 14 14.5t13 16t4 14.5q0 13 -11 22.5t-26 9.5q-22 0 -47 -19q-10 -8 -18 -8q-7 0 -13 6q-4 6 -4 11q0 7 7 14q32 32 73 32z" />
    <glyph glyph-name="uni1EAA" unicode="&#x1eaa;" horiz-adv-x="649" 
d="M614 19q0 -9 -6 -14t-15 -5q-7 0 -12.5 3.5t-7.5 9.5l-84 206l1 -2h-335l-81 -204q-5 -13 -18 -13q-9 0 -14.5 5t-6.5 12q-1 4 1 10l269 662q3 8 7.5 10.5t11.5 2.5q15 0 20 -13l269 -662q1 -3 1 -8zM171 257h303l-153 377zM440 742q0 -5 -3.5 -8.5t-8.5 -3.5
q-7 0 -19 10l-88 68l-82 -69q-12 -10 -19 -10q-5 0 -8.5 3.5t-3.5 8.5q0 6 6 12l81 86q7 7 11.5 9.5t12.5 2.5h10q8 0 12.5 -2.5t11.5 -9.5l81 -85q6 -6 6 -12zM183 872q0 8 3 18q8 31 30 46t49 15q15 0 31 -7.5t42 -23.5q23 -14 35.5 -20t23.5 -6q15 0 24.5 12t12.5 33
q1 8 5.5 13t12.5 5q16 0 16 -19q0 -3 -2 -15q-15 -65 -77 -65q-13 0 -28 7t-39 22q-26 14 -38 20t-23 6q-32 0 -45 -44q-4 -14 -18 -14q-15 0 -15 17z" />
    <glyph glyph-name="uni0200" unicode="&#x200;" horiz-adv-x="649" 
d="M614 19q0 -9 -6 -14t-15 -5q-7 0 -12.5 3.5t-7.5 9.5l-84 206l1 -2h-335l-81 -204q-5 -13 -18 -13q-9 0 -14.5 5t-6.5 12q-1 4 1 10l269 662q3 8 7.5 10.5t11.5 2.5q15 0 20 -13l269 -662q1 -3 1 -8zM171 257h303l-153 377zM272 763l-97 47q-14 8 -14 24q0 10 6 17t17 7
q12 0 22 -8l90 -67q9 -7 9 -15q0 -5 -3 -8.5t-9 -3.5q-7 0 -21 7zM427 759l-97 47q-14 8 -14 24q0 10 6 17t17 7q12 0 22 -8l90 -67q9 -7 9 -15q0 -5 -3 -8.5t-9 -3.5q-7 0 -21 7z" />
    <glyph glyph-name="Adieresis" unicode="&#xc4;" horiz-adv-x="649" 
d="M614 19q0 -9 -6 -14t-15 -5q-7 0 -12.5 3.5t-7.5 9.5l-84 206l1 -2h-335l-81 -204q-5 -13 -18 -13q-9 0 -14.5 5t-6.5 12q-1 4 1 10l269 662q3 8 7.5 10.5t11.5 2.5q15 0 20 -13l269 -662q1 -3 1 -8zM171 257h303l-153 377zM218.5 790q-9.5 10 -9.5 26v8q0 16 10 26
t26 10q14 0 23.5 -10t9.5 -26v-8q0 -16 -9.5 -26t-24.5 -10q-16 0 -25.5 10zM381.5 790q-9.5 10 -9.5 26v8q0 16 10 26t26 10q14 0 23.5 -10t9.5 -26v-8q0 -16 -9.5 -26t-24.5 -10q-16 0 -25.5 10z" />
    <glyph glyph-name="uni1EA0" unicode="&#x1ea0;" horiz-adv-x="649" 
d="M614 19q0 -9 -6 -14t-15 -5q-7 0 -12.5 3.5t-7.5 9.5l-84 206l1 -2h-335l-81 -204q-5 -13 -18 -13q-9 0 -14.5 5t-6.5 12q-1 4 1 10l269 662q3 8 7.5 10.5t11.5 2.5q15 0 20 -13l269 -662q1 -3 1 -8zM171 257h303l-153 377zM299.5 -127q-9.5 10 -9.5 26v8q0 16 10 26
t26 10q14 0 23.5 -10t9.5 -26v-8q0 -16 -9.5 -26t-24.5 -10q-16 0 -25.5 10z" />
    <glyph glyph-name="Agrave" unicode="&#xc0;" horiz-adv-x="649" 
d="M614 19q0 -9 -6 -14t-15 -5q-7 0 -12.5 3.5t-7.5 9.5l-84 206l1 -2h-335l-81 -204q-5 -13 -18 -13q-9 0 -14.5 5t-6.5 12q-1 4 1 10l269 662q3 8 7.5 10.5t11.5 2.5q15 0 20 -13l269 -662q1 -3 1 -8zM171 257h303l-153 377zM304 755l-97 47q-14 8 -14 24q0 10 6 17t17 7
q12 0 22 -8l90 -67q9 -7 9 -15q0 -5 -3 -8.5t-9 -3.5q-7 0 -21 7z" />
    <glyph glyph-name="uni1EA2" unicode="&#x1ea2;" horiz-adv-x="649" 
d="M614 19q0 -9 -6 -14t-15 -5q-7 0 -12.5 3.5t-7.5 9.5l-84 206l1 -2h-335l-81 -204q-5 -13 -18 -13q-9 0 -14.5 5t-6.5 12q-1 4 1 10l269 662q3 8 7.5 10.5t11.5 2.5q15 0 20 -13l269 -662q1 -3 1 -8zM171 257h303l-153 377zM328 926q37 0 55.5 -21.5t18.5 -47.5
q0 -16 -9 -29.5t-29 -33.5q-8 -8 -9 -23q-1 -7 -5.5 -10.5t-11.5 -3.5q-8 0 -12 4.5t-4 11.5q0 25 14 40q5 5 14 14.5t13 16t4 14.5q0 13 -11 22.5t-26 9.5q-22 0 -47 -19q-10 -8 -18 -8q-7 0 -13 6q-4 6 -4 11q0 7 7 14q32 32 73 32z" />
    <glyph glyph-name="uni0202" unicode="&#x202;" horiz-adv-x="649" 
d="M614 19q0 -9 -6 -14t-15 -5q-7 0 -12.5 3.5t-7.5 9.5l-84 206l1 -2h-335l-81 -204q-5 -13 -18 -13q-9 0 -14.5 5t-6.5 12q-1 4 1 10l269 662q3 8 7.5 10.5t11.5 2.5q15 0 20 -13l269 -662q1 -3 1 -8zM171 257h303l-153 377zM383.5 830q27.5 -14 44 -37t16.5 -49
q0 -7 -5.5 -12.5t-13.5 -5.5q-18 0 -21 20q-5 28 -27.5 44t-53.5 16t-54 -16t-27 -44q-2 -20 -21 -20q-8 0 -13.5 5.5t-5.5 12.5q0 26 16.5 49t44 37t60.5 14t60.5 -14z" />
    <glyph glyph-name="Amacron" unicode="&#x100;" horiz-adv-x="649" 
d="M614 19q0 -9 -6 -14t-15 -5q-7 0 -12.5 3.5t-7.5 9.5l-84 206l1 -2h-335l-81 -204q-5 -13 -18 -13q-9 0 -14.5 5t-6.5 12q-1 4 1 10l269 662q3 8 7.5 10.5t11.5 2.5q15 0 20 -13l269 -662q1 -3 1 -8zM171 257h303l-153 377zM177 818q0 20 22 20h260q22 0 22 -20
q0 -18 -22 -18h-260q-22 0 -22 18z" />
    <glyph glyph-name="Aogonek" unicode="&#x104;" horiz-adv-x="649" 
d="M641.5 -126.5q4.5 -4.5 4.5 -9.5q0 -20 -22 -34.5t-50 -14.5q-35 0 -61.5 26t-26.5 66q0 43 24.5 72.5t58.5 42.5l-80 197l1 -2h-335l-81 -204q-5 -13 -18 -13q-9 0 -14.5 5t-6.5 12q-1 4 1 10l269 662q3 8 7.5 10.5t11.5 2.5q15 0 20 -13l269 -662q2 -6 2 -9
q0 -8 -5 -12t-15 -6q-27 -5 -49 -30.5t-22 -54.5t16.5 -46t38.5 -17q25 0 32 12q5 7 8.5 10.5t10.5 3.5t11.5 -4.5zM171 257h303l-153 377z" />
    <glyph glyph-name="Aring" unicode="&#xc5;" horiz-adv-x="649" 
d="M614 19q0 -9 -6 -14t-15 -5q-7 0 -12.5 3.5t-7.5 9.5l-84 206l1 -2h-335l-81 -204q-5 -13 -18 -13q-9 0 -14.5 5t-6.5 12q-1 4 1 10l263 648q-31 8 -51.5 33t-20.5 57q0 39 29.5 66.5t68.5 27.5t68.5 -27.5t29.5 -66.5q0 -32 -21 -57.5t-52 -33.5l263 -647q1 -3 1 -8z
M281.5 721.5q18.5 -18.5 43.5 -18.5q26 0 44 18.5t18 43.5q0 26 -18 44t-44 18q-25 0 -43.5 -18t-18.5 -44q0 -25 18.5 -43.5zM171 257h303l-153 377z" />
    <glyph glyph-name="Aringacute" unicode="&#x1fa;" horiz-adv-x="649" 
d="M614 19q0 -9 -6 -14t-15 -5q-7 0 -12.5 3.5t-7.5 9.5l-84 206l1 -2h-335l-81 -204q-5 -13 -18 -13q-9 0 -14.5 5t-6.5 12q-1 4 1 10l263 648q-31 8 -51.5 33t-20.5 57q0 39 29.5 66.5t68.5 27.5t68.5 -27.5t29.5 -66.5q0 -32 -21 -57.5t-52 -33.5l263 -647q1 -3 1 -8z
M281.5 721.5q18.5 -18.5 43.5 -18.5q26 0 44 18.5t18 43.5q0 26 -18 44t-44 18q-25 0 -43.5 -18t-18.5 -44q0 -25 18.5 -43.5zM171 257h303l-153 377zM320 910.5q-3 3.5 -3 8.5q0 8 9 15l90 67q10 8 22 8q11 0 17 -7t6 -17q0 -16 -14 -24l-97 -47q-14 -7 -21 -7q-6 0 -9 3.5
z" />
    <glyph glyph-name="Atilde" unicode="&#xc3;" horiz-adv-x="649" 
d="M614 19q0 -9 -6 -14t-15 -5q-7 0 -12.5 3.5t-7.5 9.5l-84 206l1 -2h-335l-81 -204q-5 -13 -18 -13q-9 0 -14.5 5t-6.5 12q-1 4 1 10l269 662q3 8 7.5 10.5t11.5 2.5q15 0 20 -13l269 -662q1 -3 1 -8zM171 257h303l-153 377zM183 799q0 8 3 18q8 31 30 46t49 15
q15 0 31 -7.5t42 -23.5q23 -14 35.5 -20t23.5 -6q15 0 24.5 12t12.5 33q1 8 5.5 13t12.5 5q16 0 16 -19q0 -3 -2 -15q-15 -65 -77 -65q-13 0 -28 7t-39 22q-26 14 -38 20t-23 6q-32 0 -45 -44q-4 -14 -18 -14q-15 0 -15 17z" />
    <glyph glyph-name="AE" unicode="&#xc6;" horiz-adv-x="931" 
d="M875 34q6 -6 6 -14q0 -9 -6 -14.5t-14 -5.5h-367q-8 0 -14 6t-6 14v157h-311l-118 -169q-6 -9 -17 -9q-8 0 -13.5 6t-5.5 15q0 7 3 11l462 660q8 9 18 9h369q8 0 14 -6t6 -14q0 -9 -6 -14.5t-14 -5.5h-347v-279h302q8 0 14 -6t6 -14q0 -9 -6 -14.5t-14 -5.5h-302v-301
h347q8 0 14 -6zM474 621l-283 -404h283v404z" />
    <glyph glyph-name="AEacute" unicode="&#x1fc;" horiz-adv-x="931" 
d="M875 34q6 -6 6 -14q0 -9 -6 -14.5t-14 -5.5h-367q-8 0 -14 6t-6 14v157h-311l-118 -169q-6 -9 -17 -9q-8 0 -13.5 6t-5.5 15q0 7 3 11l462 660q8 9 18 9h369q8 0 14 -6t6 -14q0 -9 -6 -14.5t-14 -5.5h-347v-279h302q8 0 14 -6t6 -14q0 -9 -6 -14.5t-14 -5.5h-302v-301
h347q8 0 14 -6zM474 621l-283 -404h283v404zM628 751.5q-3 3.5 -3 8.5q0 8 9 15l90 67q10 8 22 8q11 0 17 -7t6 -17q0 -16 -14 -24l-97 -47q-14 -7 -21 -7q-6 0 -9 3.5z" />
    <glyph glyph-name="B" unicode="B" horiz-adv-x="650" 
d="M561.5 308q38.5 -46 38.5 -119q0 -91 -57.5 -140t-146.5 -49h-276q-8 0 -14 6t-6 14v660q0 8 6 14t14 6h269q80 0 128 -46t48 -124q0 -56 -28 -101.5t-78 -62.5q64 -12 102.5 -58zM486.5 625q-36.5 35 -102.5 35h-242v-281h242q62 1 100.5 40.5t38.5 111.5q0 59 -36.5 94
zM512 77.5q46 37.5 46 111.5t-46 111.5t-121 37.5h-249v-298h249q75 0 121 37.5z" />
    <glyph glyph-name="C" unicode="C" horiz-adv-x="662" 
d="M627 626q0 -8 -4 -13q-6 -8 -15 -8q-4 0 -12 4q-93 63 -197 63q-84 0 -154.5 -41.5t-111.5 -115t-41 -165.5t41 -165.5t111.5 -115t154.5 -41.5q105 0 196 62q5 4 12 4q10 0 16 -8q4 -5 4 -12q0 -10 -8 -16q-39 -28 -100.5 -48t-119.5 -20q-95 0 -175 47t-127 129.5
t-47 183.5t47 183.5t127 129.5t175 47q60 0 116.5 -18t102.5 -50q9 -7 9 -16z" />
    <glyph glyph-name="Cacute" unicode="&#x106;" horiz-adv-x="662" 
d="M627 626q0 -8 -4 -13q-6 -8 -15 -8q-4 0 -12 4q-93 63 -197 63q-84 0 -154.5 -41.5t-111.5 -115t-41 -165.5t41 -165.5t111.5 -115t154.5 -41.5q105 0 196 62q5 4 12 4q10 0 16 -8q4 -5 4 -12q0 -10 -8 -16q-39 -28 -100.5 -48t-119.5 -20q-95 0 -175 47t-127 129.5
t-47 183.5t47 183.5t127 129.5t175 47q60 0 116.5 -18t102.5 -50q9 -7 9 -16zM394 751.5q-3 3.5 -3 8.5q0 8 9 15l90 67q10 8 22 8q11 0 17 -7t6 -17q0 -16 -14 -24l-97 -47q-14 -7 -21 -7q-6 0 -9 3.5z" />
    <glyph glyph-name="Ccaron" unicode="&#x10c;" horiz-adv-x="662" 
d="M627 626q0 -8 -4 -13q-6 -8 -15 -8q-4 0 -12 4q-93 63 -197 63q-84 0 -154.5 -41.5t-111.5 -115t-41 -165.5t41 -165.5t111.5 -115t154.5 -41.5q105 0 196 62q5 4 12 4q10 0 16 -8q4 -5 4 -12q0 -10 -8 -16q-39 -28 -100.5 -48t-119.5 -20q-95 0 -175 47t-127 129.5
t-47 183.5t47 183.5t127 129.5t175 47q60 0 116.5 -18t102.5 -50q9 -7 9 -16zM510.5 877.5q3.5 -3.5 3.5 -8.5q0 -6 -6 -12l-81 -86q-8 -12 -24 -12h-10q-16 0 -24 12l-81 85q-6 6 -6 12q0 5 3.5 8.5t8.5 3.5q7 0 19 -10l88 -68l82 69q12 10 19 10q5 0 8.5 -3.5z" />
    <glyph glyph-name="Ccedilla" unicode="&#xc7;" horiz-adv-x="662" 
d="M627 74q0 -10 -8 -16q-35 -25 -90 -44t-110 -23l-57 -117q-7 -15 -21 -15q-10 0 -22.5 8.5t-12.5 18.5q0 9 5 14l74 90q-92 4 -168.5 51.5t-121.5 128.5t-45 180q0 101 47 183.5t127 129.5t175 47q60 0 116.5 -18t102.5 -50q9 -7 9 -16q0 -8 -4 -13q-6 -8 -15 -8
q-4 0 -12 4q-93 63 -197 63q-84 0 -154.5 -41.5t-111.5 -115t-41 -165.5t41 -165.5t111.5 -115t154.5 -41.5q105 0 196 62q5 4 12 4q10 0 16 -8q4 -5 4 -12z" />
    <glyph glyph-name="uni1E08" unicode="&#x1e08;" horiz-adv-x="662" 
d="M394 751.5q-3 3.5 -3 8.5q0 8 9 15l90 67q10 8 22 8q11 0 17 -7t6 -17q0 -16 -14 -24l-97 -47q-14 -7 -21 -7q-6 0 -9 3.5zM627 74q0 -10 -8 -16q-35 -25 -90 -44t-110 -23l-57 -117q-7 -15 -21 -15q-10 0 -22.5 8.5t-12.5 18.5q0 9 5 14l74 90q-92 4 -168.5 51.5
t-121.5 128.5t-45 180q0 101 47 183.5t127 129.5t175 47q60 0 116.5 -18t102.5 -50q9 -7 9 -16q0 -8 -4 -13q-6 -8 -15 -8q-4 0 -12 4q-93 63 -197 63q-84 0 -154.5 -41.5t-111.5 -115t-41 -165.5t41 -165.5t111.5 -115t154.5 -41.5q105 0 196 62q5 4 12 4q10 0 16 -8
q4 -5 4 -12z" />
    <glyph glyph-name="Ccircumflex" unicode="&#x108;" horiz-adv-x="662" 
d="M627 626q0 -8 -4 -13q-6 -8 -15 -8q-4 0 -12 4q-93 63 -197 63q-84 0 -154.5 -41.5t-111.5 -115t-41 -165.5t41 -165.5t111.5 -115t154.5 -41.5q105 0 196 62q5 4 12 4q10 0 16 -8q4 -5 4 -12q0 -10 -8 -16q-39 -28 -100.5 -48t-119.5 -20q-95 0 -175 47t-127 129.5
t-47 183.5t47 183.5t127 129.5t175 47q60 0 116.5 -18t102.5 -50q9 -7 9 -16zM514 781q0 -5 -3.5 -8.5t-8.5 -3.5q-7 0 -19 10l-88 68l-82 -69q-12 -10 -19 -10q-5 0 -8.5 3.5t-3.5 8.5q0 6 6 12l81 86q7 7 11.5 9.5t12.5 2.5h10q8 0 12.5 -2.5t11.5 -9.5l81 -85q6 -6 6 -12
z" />
    <glyph glyph-name="Cdotaccent" unicode="&#x10a;" horiz-adv-x="662" 
d="M627 626q0 -8 -4 -13q-6 -8 -15 -8q-4 0 -12 4q-93 63 -197 63q-84 0 -154.5 -41.5t-111.5 -115t-41 -165.5t41 -165.5t111.5 -115t154.5 -41.5q105 0 196 62q5 4 12 4q10 0 16 -8q4 -5 4 -12q0 -10 -8 -16q-39 -28 -100.5 -48t-119.5 -20q-95 0 -175 47t-127 129.5
t-47 183.5t47 183.5t127 129.5t175 47q60 0 116.5 -18t102.5 -50q9 -7 9 -16zM354.5 790q-9.5 10 -9.5 26v8q0 16 10 26t26 10q14 0 23.5 -10t9.5 -26v-8q0 -16 -9.5 -26t-24.5 -10q-16 0 -25.5 10z" />
    <glyph glyph-name="D" unicode="D" horiz-adv-x="720" 
d="M541.5 652q65.5 -48 97 -127.5t31.5 -174.5q0 -99 -31.5 -178t-96.5 -125.5t-162 -46.5h-260q-8 0 -14 6t-6 14v660q0 8 6 14t14 6h260q96 0 161.5 -48zM564 125.5q64 85.5 64 224.5q0 85 -27.5 155.5t-85 112.5t-145.5 42h-228v-620h228q130 0 194 85.5z" />
    <glyph glyph-name="uni01C4" unicode="&#x1c4;" horiz-adv-x="1363" 
d="M541.5 652q65.5 -48 97 -127.5t31.5 -174.5q0 -99 -31.5 -178t-96.5 -125.5t-162 -46.5h-260q-8 0 -14 6t-6 14v660q0 8 6 14t14 6h260q96 0 161.5 -48zM564 125.5q64 85.5 64 224.5q0 85 -27.5 155.5t-85 112.5t-145.5 42h-228v-620h228q130 0 194 85.5zM1306 32
q6 -6 6 -13q0 -8 -6 -13.5t-14 -5.5h-492q-9 0 -14.5 6.5t-5.5 14.5q0 7 4 12l472 629h-436q-8 0 -14 5.5t-6 13.5t6 13.5t14 5.5h470q12 0 17.5 -6t5.5 -14q0 -7 -4 -12l-471 -630h454q8 0 14 -6zM1153.5 877.5q3.5 -3.5 3.5 -8.5q0 -6 -6 -12l-81 -86q-8 -12 -24 -12h-10
q-16 0 -24 12l-81 85q-6 6 -6 12q0 5 3.5 8.5t8.5 3.5q7 0 19 -10l88 -68l82 69q12 10 19 10q5 0 8.5 -3.5z" />
    <glyph glyph-name="Eth" unicode="&#xd0;" horiz-adv-x="720" 
d="M541.5 652q65.5 -48 97 -127.5t31.5 -174.5q0 -99 -31.5 -178t-96.5 -125.5t-162 -46.5h-260q-8 0 -14 6t-6 14v312h-56q-20 0 -20 19t20 19h56v310q0 8 6 14t14 6h260q96 0 161.5 -48zM564 125.5q64 85.5 64 224.5q0 85 -27.5 155.5t-85 112.5t-145.5 42h-228v-290h62
q20 0 20 -20q0 -18 -20 -18h-62v-292h228q130 0 194 85.5z" />
    <glyph glyph-name="Dcaron" unicode="&#x10e;" horiz-adv-x="720" 
d="M541.5 652q65.5 -48 97 -127.5t31.5 -174.5q0 -99 -31.5 -178t-96.5 -125.5t-162 -46.5h-260q-8 0 -14 6t-6 14v660q0 8 6 14t14 6h260q96 0 161.5 -48zM564 125.5q64 85.5 64 224.5q0 85 -27.5 155.5t-85 112.5t-145.5 42h-228v-620h228q130 0 194 85.5zM424.5 877.5
q3.5 -3.5 3.5 -8.5q0 -6 -6 -12l-81 -86q-8 -12 -24 -12h-10q-16 0 -24 12l-81 85q-6 6 -6 12q0 5 3.5 8.5t8.5 3.5q7 0 19 -10l88 -68l82 69q12 10 19 10q5 0 8.5 -3.5z" />
    <glyph glyph-name="Dcroat" unicode="&#x110;" horiz-adv-x="720" 
d="M541.5 652q65.5 -48 97 -127.5t31.5 -174.5q0 -99 -31.5 -178t-96.5 -125.5t-162 -46.5h-260q-8 0 -14 6t-6 14v312h-56q-20 0 -20 19t20 19h56v310q0 8 6 14t14 6h260q96 0 161.5 -48zM564 125.5q64 85.5 64 224.5q0 85 -27.5 155.5t-85 112.5t-145.5 42h-228v-290h62
q20 0 20 -20q0 -18 -20 -18h-62v-292h228q130 0 194 85.5z" />
    <glyph glyph-name="uni1E0C" unicode="&#x1e0c;" horiz-adv-x="720" 
d="M541.5 652q65.5 -48 97 -127.5t31.5 -174.5q0 -99 -31.5 -178t-96.5 -125.5t-162 -46.5h-260q-8 0 -14 6t-6 14v660q0 8 6 14t14 6h260q96 0 161.5 -48zM564 125.5q64 85.5 64 224.5q0 85 -27.5 155.5t-85 112.5t-145.5 42h-228v-620h228q130 0 194 85.5zM294.5 -127
q-9.5 10 -9.5 26v8q0 16 10 26t26 10q14 0 23.5 -10t9.5 -26v-8q0 -16 -9.5 -26t-24.5 -10q-16 0 -25.5 10z" />
    <glyph glyph-name="uni1E0E" unicode="&#x1e0e;" horiz-adv-x="720" 
d="M541.5 652q65.5 -48 97 -127.5t31.5 -174.5q0 -99 -31.5 -178t-96.5 -125.5t-162 -46.5h-260q-8 0 -14 6t-6 14v660q0 8 6 14t14 6h260q96 0 161.5 -48zM564 125.5q64 85.5 64 224.5q0 85 -27.5 155.5t-85 112.5t-145.5 42h-228v-620h228q130 0 194 85.5zM205 -99
q0 19 20 19h200q20 0 20 -19q0 -18 -20 -18h-200q-20 0 -20 18z" />
    <glyph glyph-name="uni01F2" unicode="&#x1f2;" horiz-adv-x="1196" 
d="M541.5 652q65.5 -48 97 -127.5t31.5 -174.5q0 -99 -31.5 -178t-96.5 -125.5t-162 -46.5h-260q-8 0 -14 6t-6 14v660q0 8 6 14t14 6h260q96 0 161.5 -48zM564 125.5q64 85.5 64 224.5q0 85 -27.5 155.5t-85 112.5t-145.5 42h-228v-620h228q130 0 194 85.5zM1141 481
l-316 -443h291q8 0 14 -6t6 -13q0 -8 -6 -13.5t-14 -5.5h-326q-9 0 -15 7t-6 13t5 13l316 444h-270q-8 0 -14 5.5t-6 13.5t6 13.5t14 5.5h306q8 0 13.5 -6t6.5 -14q0 -7 -5 -14z" />
    <glyph glyph-name="uni01C5" unicode="&#x1c5;" horiz-adv-x="1197" 
d="M541.5 652q65.5 -48 97 -127.5t31.5 -174.5q0 -99 -31.5 -178t-96.5 -125.5t-162 -46.5h-260q-8 0 -14 6t-6 14v660q0 8 6 14t14 6h260q96 0 161.5 -48zM564 125.5q64 85.5 64 224.5q0 85 -27.5 155.5t-85 112.5t-145.5 42h-228v-620h228q130 0 194 85.5zM1142 481
l-316 -443h291q8 0 14 -6t6 -13q0 -8 -6 -13.5t-14 -5.5h-326q-9 0 -15 7t-6 13t5 13l316 444h-270q-8 0 -14 5.5t-6 13.5t6 13.5t14 5.5h306q8 0 13.5 -6t6.5 -14q0 -7 -5 -14zM1093.5 676.5q3.5 -3.5 3.5 -8.5q0 -6 -6 -12l-81 -86q-8 -12 -24 -12h-10q-16 0 -24 12
l-81 85q-6 6 -6 12q0 5 3.5 8.5t8.5 3.5q7 0 19 -10l88 -68l82 69q12 10 19 10q5 0 8.5 -3.5z" />
    <glyph glyph-name="E" unicode="E" horiz-adv-x="567" 
d="M511 34q6 -6 6 -14q0 -9 -6 -14.5t-14 -5.5h-377q-8 0 -14 6t-6 14v660q0 8 6 14t14 6h377q8 0 14 -6t6 -14q0 -9 -6 -14.5t-14 -5.5h-355v-279h310q8 0 14 -6t6 -14q0 -9 -6 -14.5t-14 -5.5h-310v-301h355q8 0 14 -6z" />
    <glyph glyph-name="Eacute" unicode="&#xc9;" horiz-adv-x="567" 
d="M511 34q6 -6 6 -14q0 -9 -6 -14.5t-14 -5.5h-377q-8 0 -14 6t-6 14v660q0 8 6 14t14 6h377q8 0 14 -6t6 -14q0 -9 -6 -14.5t-14 -5.5h-355v-279h310q8 0 14 -6t6 -14q0 -9 -6 -14.5t-14 -5.5h-310v-301h355q8 0 14 -6zM317 751.5q-3 3.5 -3 8.5q0 8 9 15l90 67q10 8 22 8
q11 0 17 -7t6 -17q0 -16 -14 -24l-97 -47q-14 -7 -21 -7q-6 0 -9 3.5z" />
    <glyph glyph-name="Ebreve" unicode="&#x114;" horiz-adv-x="567" 
d="M511 34q6 -6 6 -14q0 -9 -6 -14.5t-14 -5.5h-377q-8 0 -14 6t-6 14v660q0 8 6 14t14 6h377q8 0 14 -6t6 -14q0 -9 -6 -14.5t-14 -5.5h-355v-279h310q8 0 14 -6t6 -14q0 -9 -6 -14.5t-14 -5.5h-310v-301h355q8 0 14 -6zM238 807q-34 27 -46 76q-1 2 -1 7q0 15 16 15
q9 0 12.5 -3.5t7.5 -13.5q27 -69 95 -69q67 0 94 69q3 9 7.5 12.5t12.5 3.5q11 0 14.5 -5t1.5 -16q-12 -49 -46 -76t-84 -27t-84 27z" />
    <glyph glyph-name="Ecaron" unicode="&#x11a;" horiz-adv-x="567" 
d="M511 34q6 -6 6 -14q0 -9 -6 -14.5t-14 -5.5h-377q-8 0 -14 6t-6 14v660q0 8 6 14t14 6h377q8 0 14 -6t6 -14q0 -9 -6 -14.5t-14 -5.5h-355v-279h310q8 0 14 -6t6 -14q0 -9 -6 -14.5t-14 -5.5h-310v-301h355q8 0 14 -6zM433.5 877.5q3.5 -3.5 3.5 -8.5q0 -6 -6 -12
l-81 -86q-8 -12 -24 -12h-10q-16 0 -24 12l-81 85q-6 6 -6 12q0 5 3.5 8.5t8.5 3.5q7 0 19 -10l88 -68l82 69q12 10 19 10q5 0 8.5 -3.5z" />
    <glyph glyph-name="uni1E1C" unicode="&#x1e1c;" horiz-adv-x="567" 
d="M238 807q-34 27 -46 76q-1 2 -1 7q0 15 16 15q9 0 12.5 -3.5t7.5 -13.5q27 -69 95 -69q67 0 94 69q3 9 7.5 12.5t12.5 3.5q11 0 14.5 -5t1.5 -16q-12 -49 -46 -76t-84 -27t-84 27zM511 34q6 -6 6 -14q0 -9 -6 -14.5t-14 -5.5h-164l-62 -126q-7 -15 -21 -15
q-10 0 -22.5 8.5t-12.5 18.5q0 9 5 14l82 100h-182q-8 0 -14 6t-6 14v660q0 8 6 14t14 6h377q8 0 14 -6t6 -14q0 -9 -6 -14.5t-14 -5.5h-355v-279h310q8 0 14 -6t6 -14q0 -9 -6 -14.5t-14 -5.5h-310v-301h355q8 0 14 -6z" />
    <glyph glyph-name="Ecircumflex" unicode="&#xca;" horiz-adv-x="567" 
d="M511 34q6 -6 6 -14q0 -9 -6 -14.5t-14 -5.5h-377q-8 0 -14 6t-6 14v660q0 8 6 14t14 6h377q8 0 14 -6t6 -14q0 -9 -6 -14.5t-14 -5.5h-355v-279h310q8 0 14 -6t6 -14q0 -9 -6 -14.5t-14 -5.5h-310v-301h355q8 0 14 -6zM437 781q0 -5 -3.5 -8.5t-8.5 -3.5q-7 0 -19 10
l-88 68l-82 -69q-12 -10 -19 -10q-5 0 -8.5 3.5t-3.5 8.5q0 6 6 12l81 86q7 7 11.5 9.5t12.5 2.5h10q8 0 12.5 -2.5t11.5 -9.5l81 -85q6 -6 6 -12z" />
    <glyph glyph-name="uni1EBE" unicode="&#x1ebe;" horiz-adv-x="567" 
d="M511 34q6 -6 6 -14q0 -9 -6 -14.5t-14 -5.5h-377q-8 0 -14 6t-6 14v660q0 8 6 14t14 6h377q8 0 14 -6t6 -14q0 -9 -6 -14.5t-14 -5.5h-355v-279h310q8 0 14 -6t6 -14q0 -9 -6 -14.5t-14 -5.5h-310v-301h355q8 0 14 -6zM437 781q0 -5 -3.5 -8.5t-8.5 -3.5q-7 0 -19 10
l-88 68l-82 -69q-12 -10 -19 -10q-5 0 -8.5 3.5t-3.5 8.5q0 6 6 12l81 86q7 7 11.5 9.5t12.5 2.5h10q8 0 12.5 -2.5t11.5 -9.5l81 -85q6 -6 6 -12zM450 824.5q-3 3.5 -3 8.5q0 8 9 15l90 67q10 8 22 8q11 0 17 -7t6 -17q0 -16 -14 -24l-97 -47q-14 -7 -21 -7q-6 0 -9 3.5z
" />
    <glyph glyph-name="uni1EC6" unicode="&#x1ec6;" horiz-adv-x="567" 
d="M511 34q6 -6 6 -14q0 -9 -6 -14.5t-14 -5.5h-377q-8 0 -14 6t-6 14v660q0 8 6 14t14 6h377q8 0 14 -6t6 -14q0 -9 -6 -14.5t-14 -5.5h-355v-279h310q8 0 14 -6t6 -14q0 -9 -6 -14.5t-14 -5.5h-310v-301h355q8 0 14 -6zM294.5 -127q-9.5 10 -9.5 26v8q0 16 10 26t26 10
q14 0 23.5 -10t9.5 -26v-8q0 -16 -9.5 -26t-24.5 -10q-16 0 -25.5 10zM437 781q0 -5 -3.5 -8.5t-8.5 -3.5q-7 0 -19 10l-88 68l-82 -69q-12 -10 -19 -10q-5 0 -8.5 3.5t-3.5 8.5q0 6 6 12l81 86q7 7 11.5 9.5t12.5 2.5h10q8 0 12.5 -2.5t11.5 -9.5l81 -85q6 -6 6 -12z" />
    <glyph glyph-name="uni1EC0" unicode="&#x1ec0;" horiz-adv-x="567" 
d="M511 34q6 -6 6 -14q0 -9 -6 -14.5t-14 -5.5h-377q-8 0 -14 6t-6 14v660q0 8 6 14t14 6h377q8 0 14 -6t6 -14q0 -9 -6 -14.5t-14 -5.5h-355v-279h310q8 0 14 -6t6 -14q0 -9 -6 -14.5t-14 -5.5h-310v-301h355q8 0 14 -6zM437 781q0 -5 -3.5 -8.5t-8.5 -3.5q-7 0 -19 10
l-88 68l-82 -69q-12 -10 -19 -10q-5 0 -8.5 3.5t-3.5 8.5q0 6 6 12l81 86q7 7 11.5 9.5t12.5 2.5h10q8 0 12.5 -2.5t11.5 -9.5l81 -85q6 -6 6 -12zM415 892l-97 47q-14 8 -14 24q0 10 6 17t17 7q12 0 22 -8l90 -67q9 -7 9 -15q0 -5 -3 -8.5t-9 -3.5q-7 0 -21 7z" />
    <glyph glyph-name="uni1EC2" unicode="&#x1ec2;" horiz-adv-x="567" 
d="M511 34q6 -6 6 -14q0 -9 -6 -14.5t-14 -5.5h-377q-8 0 -14 6t-6 14v660q0 8 6 14t14 6h377q8 0 14 -6t6 -14q0 -9 -6 -14.5t-14 -5.5h-355v-279h310q8 0 14 -6t6 -14q0 -9 -6 -14.5t-14 -5.5h-310v-301h355q8 0 14 -6zM437 781q0 -5 -3.5 -8.5t-8.5 -3.5q-7 0 -19 10
l-88 68l-82 -69q-12 -10 -19 -10q-5 0 -8.5 3.5t-3.5 8.5q0 6 6 12l81 86q7 7 11.5 9.5t12.5 2.5h10q8 0 12.5 -2.5t11.5 -9.5l81 -85q6 -6 6 -12zM325 1116q37 0 55.5 -21.5t18.5 -47.5q0 -16 -9 -29.5t-29 -33.5q-8 -8 -9 -23q-1 -7 -5.5 -10.5t-11.5 -3.5q-8 0 -12 4.5
t-4 11.5q0 25 14 40q5 5 14 14.5t13 16t4 14.5q0 13 -11 22.5t-26 9.5q-22 0 -47 -19q-10 -8 -18 -8q-7 0 -13 6q-4 6 -4 11q0 7 7 14q32 32 73 32z" />
    <glyph glyph-name="uni1EC4" unicode="&#x1ec4;" horiz-adv-x="567" 
d="M511 34q6 -6 6 -14q0 -9 -6 -14.5t-14 -5.5h-377q-8 0 -14 6t-6 14v660q0 8 6 14t14 6h377q8 0 14 -6t6 -14q0 -9 -6 -14.5t-14 -5.5h-355v-279h310q8 0 14 -6t6 -14q0 -9 -6 -14.5t-14 -5.5h-310v-301h355q8 0 14 -6zM437 781q0 -5 -3.5 -8.5t-8.5 -3.5q-7 0 -19 10
l-88 68l-82 -69q-12 -10 -19 -10q-5 0 -8.5 3.5t-3.5 8.5q0 6 6 12l81 86q7 7 11.5 9.5t12.5 2.5h10q8 0 12.5 -2.5t11.5 -9.5l81 -85q6 -6 6 -12zM180 914q0 8 3 18q8 31 30 46t49 15q15 0 31 -7.5t42 -23.5q23 -14 35.5 -20t23.5 -6q15 0 24.5 12t12.5 33q1 8 5.5 13
t12.5 5q16 0 16 -19q0 -3 -2 -15q-15 -65 -77 -65q-13 0 -28 7t-39 22q-26 14 -38 20t-23 6q-32 0 -45 -44q-4 -14 -18 -14q-15 0 -15 17z" />
    <glyph glyph-name="uni0204" unicode="&#x204;" horiz-adv-x="567" 
d="M511 34q6 -6 6 -14q0 -9 -6 -14.5t-14 -5.5h-377q-8 0 -14 6t-6 14v660q0 8 6 14t14 6h377q8 0 14 -6t6 -14q0 -9 -6 -14.5t-14 -5.5h-355v-279h310q8 0 14 -6t6 -14q0 -9 -6 -14.5t-14 -5.5h-310v-301h355q8 0 14 -6zM269 763l-97 47q-14 8 -14 24q0 10 6 17t17 7
q12 0 22 -8l90 -67q9 -7 9 -15q0 -5 -3 -8.5t-9 -3.5q-7 0 -21 7zM424 759l-97 47q-14 8 -14 24q0 10 6 17t17 7q12 0 22 -8l90 -67q9 -7 9 -15q0 -5 -3 -8.5t-9 -3.5q-7 0 -21 7z" />
    <glyph glyph-name="Edieresis" unicode="&#xcb;" horiz-adv-x="567" 
d="M511 34q6 -6 6 -14q0 -9 -6 -14.5t-14 -5.5h-377q-8 0 -14 6t-6 14v660q0 8 6 14t14 6h377q8 0 14 -6t6 -14q0 -9 -6 -14.5t-14 -5.5h-355v-279h310q8 0 14 -6t6 -14q0 -9 -6 -14.5t-14 -5.5h-310v-301h355q8 0 14 -6zM215.5 790q-9.5 10 -9.5 26v8q0 16 10 26t26 10
q14 0 23.5 -10t9.5 -26v-8q0 -16 -9.5 -26t-24.5 -10q-16 0 -25.5 10zM378.5 790q-9.5 10 -9.5 26v8q0 16 10 26t26 10q14 0 23.5 -10t9.5 -26v-8q0 -16 -9.5 -26t-24.5 -10q-16 0 -25.5 10z" />
    <glyph glyph-name="Edotaccent" unicode="&#x116;" horiz-adv-x="567" 
d="M511 34q6 -6 6 -14q0 -9 -6 -14.5t-14 -5.5h-377q-8 0 -14 6t-6 14v660q0 8 6 14t14 6h377q8 0 14 -6t6 -14q0 -9 -6 -14.5t-14 -5.5h-355v-279h310q8 0 14 -6t6 -14q0 -9 -6 -14.5t-14 -5.5h-310v-301h355q8 0 14 -6zM296.5 790q-9.5 10 -9.5 26v8q0 16 10 26t26 10
q14 0 23.5 -10t9.5 -26v-8q0 -16 -9.5 -26t-24.5 -10q-16 0 -25.5 10z" />
    <glyph glyph-name="uni1EB8" unicode="&#x1eb8;" horiz-adv-x="567" 
d="M511 34q6 -6 6 -14q0 -9 -6 -14.5t-14 -5.5h-377q-8 0 -14 6t-6 14v660q0 8 6 14t14 6h377q8 0 14 -6t6 -14q0 -9 -6 -14.5t-14 -5.5h-355v-279h310q8 0 14 -6t6 -14q0 -9 -6 -14.5t-14 -5.5h-310v-301h355q8 0 14 -6zM294.5 -127q-9.5 10 -9.5 26v8q0 16 10 26t26 10
q14 0 23.5 -10t9.5 -26v-8q0 -16 -9.5 -26t-24.5 -10q-16 0 -25.5 10z" />
    <glyph glyph-name="Egrave" unicode="&#xc8;" horiz-adv-x="567" 
d="M511 34q6 -6 6 -14q0 -9 -6 -14.5t-14 -5.5h-377q-8 0 -14 6t-6 14v660q0 8 6 14t14 6h377q8 0 14 -6t6 -14q0 -9 -6 -14.5t-14 -5.5h-355v-279h310q8 0 14 -6t6 -14q0 -9 -6 -14.5t-14 -5.5h-310v-301h355q8 0 14 -6zM301 755l-97 47q-14 8 -14 24q0 10 6 17t17 7
q12 0 22 -8l90 -67q9 -7 9 -15q0 -5 -3 -8.5t-9 -3.5q-7 0 -21 7z" />
    <glyph glyph-name="uni1EBA" unicode="&#x1eba;" horiz-adv-x="567" 
d="M511 34q6 -6 6 -14q0 -9 -6 -14.5t-14 -5.5h-377q-8 0 -14 6t-6 14v660q0 8 6 14t14 6h377q8 0 14 -6t6 -14q0 -9 -6 -14.5t-14 -5.5h-355v-279h310q8 0 14 -6t6 -14q0 -9 -6 -14.5t-14 -5.5h-310v-301h355q8 0 14 -6zM325 926q37 0 55.5 -21.5t18.5 -47.5
q0 -16 -9 -29.5t-29 -33.5q-8 -8 -9 -23q-1 -7 -5.5 -10.5t-11.5 -3.5q-8 0 -12 4.5t-4 11.5q0 25 14 40q5 5 14 14.5t13 16t4 14.5q0 13 -11 22.5t-26 9.5q-22 0 -47 -19q-10 -8 -18 -8q-7 0 -13 6q-4 6 -4 11q0 7 7 14q32 32 73 32z" />
    <glyph glyph-name="uni0206" unicode="&#x206;" horiz-adv-x="567" 
d="M511 34q6 -6 6 -14q0 -9 -6 -14.5t-14 -5.5h-377q-8 0 -14 6t-6 14v660q0 8 6 14t14 6h377q8 0 14 -6t6 -14q0 -9 -6 -14.5t-14 -5.5h-355v-279h310q8 0 14 -6t6 -14q0 -9 -6 -14.5t-14 -5.5h-310v-301h355q8 0 14 -6zM380.5 830q27.5 -14 44 -37t16.5 -49
q0 -7 -5.5 -12.5t-13.5 -5.5q-18 0 -21 20q-5 28 -27.5 44t-53.5 16t-54 -16t-27 -44q-2 -20 -21 -20q-8 0 -13.5 5.5t-5.5 12.5q0 26 16.5 49t44 37t60.5 14t60.5 -14z" />
    <glyph glyph-name="Emacron" unicode="&#x112;" horiz-adv-x="567" 
d="M511 34q6 -6 6 -14q0 -9 -6 -14.5t-14 -5.5h-377q-8 0 -14 6t-6 14v660q0 8 6 14t14 6h377q8 0 14 -6t6 -14q0 -9 -6 -14.5t-14 -5.5h-355v-279h310q8 0 14 -6t6 -14q0 -9 -6 -14.5t-14 -5.5h-310v-301h355q8 0 14 -6zM174 818q0 20 22 20h260q22 0 22 -20q0 -18 -22 -18
h-260q-22 0 -22 18z" />
    <glyph glyph-name="uni1E16" unicode="&#x1e16;" horiz-adv-x="567" 
d="M511 34q6 -6 6 -14q0 -9 -6 -14.5t-14 -5.5h-377q-8 0 -14 6t-6 14v660q0 8 6 14t14 6h377q8 0 14 -6t6 -14q0 -9 -6 -14.5t-14 -5.5h-355v-279h310q8 0 14 -6t6 -14q0 -9 -6 -14.5t-14 -5.5h-310v-301h355q8 0 14 -6zM174 818q0 20 22 20h260q22 0 22 -20q0 -18 -22 -18
h-260q-22 0 -22 18zM317 900.5q-3 3.5 -3 8.5q0 8 9 15l90 67q10 8 22 8q11 0 17 -7t6 -17q0 -16 -14 -24l-97 -47q-14 -7 -21 -7q-6 0 -9 3.5z" />
    <glyph glyph-name="uni1E14" unicode="&#x1e14;" horiz-adv-x="567" 
d="M511 34q6 -6 6 -14q0 -9 -6 -14.5t-14 -5.5h-377q-8 0 -14 6t-6 14v660q0 8 6 14t14 6h377q8 0 14 -6t6 -14q0 -9 -6 -14.5t-14 -5.5h-355v-279h310q8 0 14 -6t6 -14q0 -9 -6 -14.5t-14 -5.5h-310v-301h355q8 0 14 -6zM174 818q0 20 22 20h260q22 0 22 -20q0 -18 -22 -18
h-260q-22 0 -22 18zM301 904l-97 47q-14 8 -14 24q0 10 6 17t17 7q12 0 22 -8l90 -67q9 -7 9 -15q0 -5 -3 -8.5t-9 -3.5q-7 0 -21 7z" />
    <glyph glyph-name="Eogonek" unicode="&#x118;" horiz-adv-x="581" 
d="M527 -126q4 -4 4 -10q0 -20 -20.5 -34.5t-51.5 -14.5q-35 0 -61.5 26t-26.5 66q0 58 51 93h-302q-8 0 -14 6t-6 14v660q0 8 6 14t14 6h377q8 0 14 -6t6 -14q0 -9 -6 -14.5t-14 -5.5h-355v-279h310q8 0 14 -6t6 -14q0 -9 -6 -14.5t-14 -5.5h-310v-301h355q8 0 14 -6t6 -14
q0 -9 -6.5 -14.5t-18.5 -6.5q-29 -2 -56 -26.5t-27 -57.5q0 -29 16.5 -46t38.5 -17q27 0 32 11q8 15 21 15q6 0 10 -4z" />
    <glyph glyph-name="uni1EBC" unicode="&#x1ebc;" horiz-adv-x="567" 
d="M511 34q6 -6 6 -14q0 -9 -6 -14.5t-14 -5.5h-377q-8 0 -14 6t-6 14v660q0 8 6 14t14 6h377q8 0 14 -6t6 -14q0 -9 -6 -14.5t-14 -5.5h-355v-279h310q8 0 14 -6t6 -14q0 -9 -6 -14.5t-14 -5.5h-310v-301h355q8 0 14 -6zM180 799q0 8 3 18q8 31 30 46t49 15q15 0 31 -7.5
t42 -23.5q23 -14 35.5 -20t23.5 -6q15 0 24.5 12t12.5 33q1 8 5.5 13t12.5 5q16 0 16 -19q0 -3 -2 -15q-15 -65 -77 -65q-13 0 -28 7t-39 22q-26 14 -38 20t-23 6q-32 0 -45 -44q-4 -14 -18 -14q-15 0 -15 17z" />
    <glyph glyph-name="F" unicode="F" horiz-adv-x="567" 
d="M511 694q6 -6 6 -14q0 -9 -6 -14.5t-14 -5.5h-357v-276h312q8 0 14 -6t6 -14q0 -9 -6 -14.5t-14 -5.5h-312v-324q0 -8 -5.5 -14t-14.5 -6t-14.5 6t-5.5 14v660q0 8 6 14t14 6h377q8 0 14 -6z" />
    <glyph glyph-name="G" unicode="G" horiz-adv-x="694" 
d="M623.5 339q5.5 -6 5.5 -14v-251q0 -12 -9 -18q-46 -31 -100.5 -48.5t-110.5 -17.5q-103 0 -184.5 46.5t-128 128.5t-46.5 185t46.5 185t128 128.5t184.5 46.5q56 0 106.5 -13.5t90.5 -40.5q9 -6 9 -17q0 -9 -6.5 -14.5t-12.5 -5.5q-5 0 -13 4q-84 47 -174 47
q-92 0 -164 -41t-112.5 -114t-40.5 -165t40.5 -165t112.5 -114t164 -41q46 0 93.5 14.5t86.5 38.5v222h-180q-8 0 -14 6t-6 14q0 9 6 14.5t14 5.5h200q9 0 14.5 -6z" />
    <glyph glyph-name="Gbreve" unicode="&#x11e;" horiz-adv-x="694" 
d="M623.5 339q5.5 -6 5.5 -14v-251q0 -12 -9 -18q-46 -31 -100.5 -48.5t-110.5 -17.5q-103 0 -184.5 46.5t-128 128.5t-46.5 185t46.5 185t128 128.5t184.5 46.5q56 0 106.5 -13.5t90.5 -40.5q9 -6 9 -17q0 -9 -6.5 -14.5t-12.5 -5.5q-5 0 -13 4q-84 47 -174 47
q-92 0 -164 -41t-112.5 -114t-40.5 -165t40.5 -165t112.5 -114t164 -41q46 0 93.5 14.5t86.5 38.5v222h-180q-8 0 -14 6t-6 14q0 9 6 14.5t14 5.5h200q9 0 14.5 -6zM293 807q-34 27 -46 76q-1 2 -1 7q0 15 16 15q9 0 12.5 -3.5t7.5 -13.5q27 -69 95 -69q67 0 94 69
q3 9 7.5 12.5t12.5 3.5q11 0 14.5 -5t1.5 -16q-12 -49 -46 -76t-84 -27t-84 27z" />
    <glyph glyph-name="Gcaron" unicode="&#x1e6;" horiz-adv-x="694" 
d="M623.5 339q5.5 -6 5.5 -14v-251q0 -12 -9 -18q-46 -31 -100.5 -48.5t-110.5 -17.5q-103 0 -184.5 46.5t-128 128.5t-46.5 185t46.5 185t128 128.5t184.5 46.5q56 0 106.5 -13.5t90.5 -40.5q9 -6 9 -17q0 -9 -6.5 -14.5t-12.5 -5.5q-5 0 -13 4q-84 47 -174 47
q-92 0 -164 -41t-112.5 -114t-40.5 -165t40.5 -165t112.5 -114t164 -41q46 0 93.5 14.5t86.5 38.5v222h-180q-8 0 -14 6t-6 14q0 9 6 14.5t14 5.5h200q9 0 14.5 -6zM488.5 877.5q3.5 -3.5 3.5 -8.5q0 -6 -6 -12l-81 -86q-8 -12 -24 -12h-10q-16 0 -24 12l-81 85q-6 6 -6 12
q0 5 3.5 8.5t8.5 3.5q7 0 19 -10l88 -68l82 69q12 10 19 10q5 0 8.5 -3.5z" />
    <glyph glyph-name="Gcircumflex" unicode="&#x11c;" horiz-adv-x="694" 
d="M623.5 339q5.5 -6 5.5 -14v-251q0 -12 -9 -18q-46 -31 -100.5 -48.5t-110.5 -17.5q-103 0 -184.5 46.5t-128 128.5t-46.5 185t46.5 185t128 128.5t184.5 46.5q56 0 106.5 -13.5t90.5 -40.5q9 -6 9 -17q0 -9 -6.5 -14.5t-12.5 -5.5q-5 0 -13 4q-84 47 -174 47
q-92 0 -164 -41t-112.5 -114t-40.5 -165t40.5 -165t112.5 -114t164 -41q46 0 93.5 14.5t86.5 38.5v222h-180q-8 0 -14 6t-6 14q0 9 6 14.5t14 5.5h200q9 0 14.5 -6zM492 781q0 -5 -3.5 -8.5t-8.5 -3.5q-7 0 -19 10l-88 68l-82 -69q-12 -10 -19 -10q-5 0 -8.5 3.5t-3.5 8.5
q0 6 6 12l81 86q7 7 11.5 9.5t12.5 2.5h10q8 0 12.5 -2.5t11.5 -9.5l81 -85q6 -6 6 -12z" />
    <glyph glyph-name="Gcommaaccent" unicode="&#x122;" horiz-adv-x="694" 
d="M623.5 339q5.5 -6 5.5 -14v-251q0 -12 -9 -18q-46 -31 -100.5 -48.5t-110.5 -17.5q-103 0 -184.5 46.5t-128 128.5t-46.5 185t46.5 185t128 128.5t184.5 46.5q56 0 106.5 -13.5t90.5 -40.5q9 -6 9 -17q0 -9 -6.5 -14.5t-12.5 -5.5q-5 0 -13 4q-84 47 -174 47
q-92 0 -164 -41t-112.5 -114t-40.5 -165t40.5 -165t112.5 -114t164 -41q46 0 93.5 14.5t86.5 38.5v222h-180q-8 0 -14 6t-6 14q0 9 6 14.5t14 5.5h200q9 0 14.5 -6zM418 -158q-21 -20 -48 -20q-30 0 -30 16q0 7 3.5 12t9.5 5q3 0 8.5 -1.5t10.5 -1.5q6 0 10 1q17 3 17 33
q0 12 -10 12q-4 0 -10 -4t-11 -4q-10 -1 -16.5 7t-6.5 16q0 15 12.5 24.5t34.5 9.5q21 0 34 -14t13 -41q0 -30 -21 -50z" />
    <glyph glyph-name="Gdotaccent" unicode="&#x120;" horiz-adv-x="694" 
d="M623.5 339q5.5 -6 5.5 -14v-251q0 -12 -9 -18q-46 -31 -100.5 -48.5t-110.5 -17.5q-103 0 -184.5 46.5t-128 128.5t-46.5 185t46.5 185t128 128.5t184.5 46.5q56 0 106.5 -13.5t90.5 -40.5q9 -6 9 -17q0 -9 -6.5 -14.5t-12.5 -5.5q-5 0 -13 4q-84 47 -174 47
q-92 0 -164 -41t-112.5 -114t-40.5 -165t40.5 -165t112.5 -114t164 -41q46 0 93.5 14.5t86.5 38.5v222h-180q-8 0 -14 6t-6 14q0 9 6 14.5t14 5.5h200q9 0 14.5 -6zM351.5 790q-9.5 10 -9.5 26v8q0 16 10 26t26 10q14 0 23.5 -10t9.5 -26v-8q0 -16 -9.5 -26t-24.5 -10
q-16 0 -25.5 10z" />
    <glyph glyph-name="uni1E20" unicode="&#x1e20;" horiz-adv-x="694" 
d="M623.5 339q5.5 -6 5.5 -14v-251q0 -12 -9 -18q-46 -31 -100.5 -48.5t-110.5 -17.5q-103 0 -184.5 46.5t-128 128.5t-46.5 185t46.5 185t128 128.5t184.5 46.5q56 0 106.5 -13.5t90.5 -40.5q9 -6 9 -17q0 -9 -6.5 -14.5t-12.5 -5.5q-5 0 -13 4q-84 47 -174 47
q-92 0 -164 -41t-112.5 -114t-40.5 -165t40.5 -165t112.5 -114t164 -41q46 0 93.5 14.5t86.5 38.5v222h-180q-8 0 -14 6t-6 14q0 9 6 14.5t14 5.5h200q9 0 14.5 -6zM229 818q0 20 22 20h260q22 0 22 -20q0 -18 -22 -18h-260q-22 0 -22 18z" />
    <glyph glyph-name="H" unicode="H" horiz-adv-x="720" 
d="M614 694q6 -6 6 -15v-658q-1 -9 -7 -15t-14 -6q-10 0 -15.5 6t-5.5 15v319h-436v-319q-1 -9 -7 -15t-14 -6q-10 0 -15.5 6t-5.5 15v658q0 9 6 15t15 6t15 -6t6 -15v-299h436v299q0 9 6 15t15 6t15 -6z" />
    <glyph glyph-name="Hbar" unicode="&#x126;" horiz-adv-x="841" 
d="M735 523q6 -6 6 -14q0 -9 -6 -14.5t-14 -5.5h-41v-468q-1 -9 -7 -15t-14 -6q-10 0 -15.5 6t-5.5 15v319h-436v-319q-1 -9 -7 -15t-14 -6q-10 0 -15.5 6t-5.5 15v468h-40q-8 0 -14 6t-6 14q0 9 6 14.5t14 5.5h40v150q0 9 6 15t15 6t15 -6t6 -15v-150h436v150q0 9 6 15
t15 6t15 -6t6 -15v-150h41q8 0 14 -6zM638 380v109h-436v-109h436z" />
    <glyph glyph-name="uni1E2A" unicode="&#x1e2a;" horiz-adv-x="720" 
d="M614 694q6 -6 6 -15v-658q-1 -9 -7 -15t-14 -6q-10 0 -15.5 6t-5.5 15v319h-436v-319q-1 -9 -7 -15t-14 -6q-10 0 -15.5 6t-5.5 15v658q0 9 6 15t15 6t15 -6t6 -15v-299h436v299q0 9 6 15t15 6t15 -6zM300.5 -120.5q-27.5 18.5 -44 48.5t-16.5 63q0 7 5.5 12.5t13.5 5.5
q19 0 21 -20q4 -42 27 -66t54 -24t53.5 24.5t27.5 65.5q3 20 21 20q8 0 13.5 -5.5t5.5 -12.5q0 -33 -16.5 -63t-44 -48.5t-60.5 -18.5t-60.5 18.5z" />
    <glyph glyph-name="Hcircumflex" unicode="&#x124;" horiz-adv-x="720" 
d="M614 694q6 -6 6 -15v-658q-1 -9 -7 -15t-14 -6q-10 0 -15.5 6t-5.5 15v319h-436v-319q-1 -9 -7 -15t-14 -6q-10 0 -15.5 6t-5.5 15v658q0 9 6 15t15 6t15 -6t6 -15v-299h436v299q0 9 6 15t15 6t15 -6zM475 781q0 -5 -3.5 -8.5t-8.5 -3.5q-7 0 -19 10l-88 68l-82 -69
q-12 -10 -19 -10q-5 0 -8.5 3.5t-3.5 8.5q0 6 6 12l81 86q7 7 11.5 9.5t12.5 2.5h10q8 0 12.5 -2.5t11.5 -9.5l81 -85q6 -6 6 -12z" />
    <glyph glyph-name="uni1E24" unicode="&#x1e24;" horiz-adv-x="720" 
d="M614 694q6 -6 6 -15v-658q-1 -9 -7 -15t-14 -6q-10 0 -15.5 6t-5.5 15v319h-436v-319q-1 -9 -7 -15t-14 -6q-10 0 -15.5 6t-5.5 15v658q0 9 6 15t15 6t15 -6t6 -15v-299h436v299q0 9 6 15t15 6t15 -6zM334.5 -127q-9.5 10 -9.5 26v8q0 16 10 26t26 10q14 0 23.5 -10
t9.5 -26v-8q0 -16 -9.5 -26t-24.5 -10q-16 0 -25.5 10z" />
    <glyph glyph-name="I" unicode="I" horiz-adv-x="242" 
d="M135 6q-6 -6 -14 -6q-10 0 -15.5 6t-5.5 15v658q0 9 6 15t15 6t15 -6t6 -15v-658q-1 -9 -7 -15z" />
    <glyph glyph-name="IJ" unicode="&#x132;" horiz-adv-x="603" 
d="M177.5 28q-50.5 38 -75.5 101q-2 6 -2 10q0 8 6 13t14 5q13 0 19 -13q19 -51 60 -82.5t93 -31.5q77 0 123 46t46 123v481q0 8 6 14t16 6q9 0 14.5 -6t5.5 -14v-481q0 -62 -26.5 -109.5t-74.5 -73.5t-110 -26q-64 0 -114.5 38zM151 236q-6 -6 -14 -6q-10 0 -15.5 6
t-5.5 15v428q0 9 6 15t15 6t15 -6t6 -15v-428q-1 -9 -7 -15z" />
    <glyph glyph-name="Iacute" unicode="&#xcd;" horiz-adv-x="242" 
d="M135 6q-6 -6 -14 -6q-10 0 -15.5 6t-5.5 15v658q0 9 6 15t15 6t15 -6t6 -15v-658q-1 -9 -7 -15zM116 751.5q-3 3.5 -3 8.5q0 8 9 15l90 67q10 8 22 8q11 0 17 -7t6 -17q0 -16 -14 -24l-97 -47q-14 -7 -21 -7q-6 0 -9 3.5z" />
    <glyph glyph-name="Ibreve" unicode="&#x12c;" horiz-adv-x="242" 
d="M135 6q-6 -6 -14 -6q-10 0 -15.5 6t-5.5 15v658q0 9 6 15t15 6t15 -6t6 -15v-658q-1 -9 -7 -15zM37 807q-34 27 -46 76q-1 2 -1 7q0 15 16 15q9 0 12.5 -3.5t7.5 -13.5q27 -69 95 -69q67 0 94 69q3 9 7.5 12.5t12.5 3.5q11 0 14.5 -5t1.5 -16q-12 -49 -46 -76t-84 -27
t-84 27z" />
    <glyph glyph-name="uni01CF" unicode="&#x1cf;" horiz-adv-x="242" 
d="M135 6q-6 -6 -14 -6q-10 0 -15.5 6t-5.5 15v658q0 9 6 15t15 6t15 -6t6 -15v-658q-1 -9 -7 -15zM232.5 877.5q3.5 -3.5 3.5 -8.5q0 -6 -6 -12l-81 -86q-8 -12 -24 -12h-10q-16 0 -24 12l-81 85q-6 6 -6 12q0 5 3.5 8.5t8.5 3.5q7 0 19 -10l88 -68l82 69q12 10 19 10
q5 0 8.5 -3.5z" />
    <glyph glyph-name="Icircumflex" unicode="&#xce;" horiz-adv-x="242" 
d="M135 6q-6 -6 -14 -6q-10 0 -15.5 6t-5.5 15v658q0 9 6 15t15 6t15 -6t6 -15v-658q-1 -9 -7 -15zM236 781q0 -5 -3.5 -8.5t-8.5 -3.5q-7 0 -19 10l-88 68l-82 -69q-12 -10 -19 -10q-5 0 -8.5 3.5t-3.5 8.5q0 6 6 12l81 86q7 7 11.5 9.5t12.5 2.5h10q8 0 12.5 -2.5
t11.5 -9.5l81 -85q6 -6 6 -12z" />
    <glyph glyph-name="uni0208" unicode="&#x208;" horiz-adv-x="242" 
d="M135 6q-6 -6 -14 -6q-10 0 -15.5 6t-5.5 15v658q0 9 6 15t15 6t15 -6t6 -15v-658q-1 -9 -7 -15zM68 763l-97 47q-14 8 -14 24q0 10 6 17t17 7q12 0 22 -8l90 -67q9 -7 9 -15q0 -5 -3 -8.5t-9 -3.5q-7 0 -21 7zM223 759l-97 47q-14 8 -14 24q0 10 6 17t17 7q12 0 22 -8
l90 -67q9 -7 9 -15q0 -5 -3 -8.5t-9 -3.5q-7 0 -21 7z" />
    <glyph glyph-name="Idieresis" unicode="&#xcf;" horiz-adv-x="242" 
d="M135 6q-6 -6 -14 -6q-10 0 -15.5 6t-5.5 15v658q0 9 6 15t15 6t15 -6t6 -15v-658q-1 -9 -7 -15zM14.5 790q-9.5 10 -9.5 26v8q0 16 10 26t26 10q14 0 23.5 -10t9.5 -26v-8q0 -16 -9.5 -26t-24.5 -10q-16 0 -25.5 10zM177.5 790q-9.5 10 -9.5 26v8q0 16 10 26t26 10
q14 0 23.5 -10t9.5 -26v-8q0 -16 -9.5 -26t-24.5 -10q-16 0 -25.5 10z" />
    <glyph glyph-name="uni1E2E" unicode="&#x1e2e;" horiz-adv-x="242" 
d="M135 6q-6 -6 -14 -6q-10 0 -15.5 6t-5.5 15v658q0 9 6 15t15 6t15 -6t6 -15v-658q-1 -9 -7 -15zM14.5 790q-9.5 10 -9.5 26v8q0 16 10 26t26 10q14 0 23.5 -10t9.5 -26v-8q0 -16 -9.5 -26t-24.5 -10q-16 0 -25.5 10zM177.5 790q-9.5 10 -9.5 26v8q0 16 10 26t26 10
q14 0 23.5 -10t9.5 -26v-8q0 -16 -9.5 -26t-24.5 -10q-16 0 -25.5 10zM116 911.5q-3 3.5 -3 8.5q0 8 9 15l90 67q10 8 22 8q11 0 17 -7t6 -17q0 -16 -14 -24l-97 -47q-14 -7 -21 -7q-6 0 -9 3.5z" />
    <glyph glyph-name="Idotaccent" unicode="&#x130;" horiz-adv-x="242" 
d="M135 6q-6 -6 -14 -6q-10 0 -15.5 6t-5.5 15v658q0 9 6 15t15 6t15 -6t6 -15v-658q-1 -9 -7 -15zM95.5 790q-9.5 10 -9.5 26v8q0 16 10 26t26 10q14 0 23.5 -10t9.5 -26v-8q0 -16 -9.5 -26t-24.5 -10q-16 0 -25.5 10z" />
    <glyph glyph-name="uni1ECA" unicode="&#x1eca;" horiz-adv-x="242" 
d="M135 6q-6 -6 -14 -6q-10 0 -15.5 6t-5.5 15v658q0 9 6 15t15 6t15 -6t6 -15v-658q-1 -9 -7 -15zM95.5 -127q-9.5 10 -9.5 26v8q0 16 10 26t26 10q14 0 23.5 -10t9.5 -26v-8q0 -16 -9.5 -26t-24.5 -10q-16 0 -25.5 10z" />
    <glyph glyph-name="Igrave" unicode="&#xcc;" horiz-adv-x="242" 
d="M135 6q-6 -6 -14 -6q-10 0 -15.5 6t-5.5 15v658q0 9 6 15t15 6t15 -6t6 -15v-658q-1 -9 -7 -15zM100 755l-97 47q-14 8 -14 24q0 10 6 17t17 7q12 0 22 -8l90 -67q9 -7 9 -15q0 -5 -3 -8.5t-9 -3.5q-7 0 -21 7z" />
    <glyph glyph-name="uni1EC8" unicode="&#x1ec8;" horiz-adv-x="242" 
d="M135 6q-6 -6 -14 -6q-10 0 -15.5 6t-5.5 15v658q0 9 6 15t15 6t15 -6t6 -15v-658q-1 -9 -7 -15zM124 926q37 0 55.5 -21.5t18.5 -47.5q0 -16 -9 -29.5t-29 -33.5q-8 -8 -9 -23q-1 -7 -5.5 -10.5t-11.5 -3.5q-8 0 -12 4.5t-4 11.5q0 25 14 40q5 5 14 14.5t13 16t4 14.5
q0 13 -11 22.5t-26 9.5q-22 0 -47 -19q-10 -8 -18 -8q-7 0 -13 6q-4 6 -4 11q0 7 7 14q32 32 73 32z" />
    <glyph glyph-name="uni020A" unicode="&#x20a;" horiz-adv-x="242" 
d="M135 6q-6 -6 -14 -6q-10 0 -15.5 6t-5.5 15v658q0 9 6 15t15 6t15 -6t6 -15v-658q-1 -9 -7 -15zM179.5 830q27.5 -14 44 -37t16.5 -49q0 -7 -5.5 -12.5t-13.5 -5.5q-18 0 -21 20q-5 28 -27.5 44t-53.5 16t-54 -16t-27 -44q-2 -20 -21 -20q-8 0 -13.5 5.5t-5.5 12.5
q0 26 16.5 49t44 37t60.5 14t60.5 -14z" />
    <glyph glyph-name="Imacron" unicode="&#x12a;" horiz-adv-x="242" 
d="M135 6q-6 -6 -14 -6q-10 0 -15.5 6t-5.5 15v658q0 9 6 15t15 6t15 -6t6 -15v-658q-1 -9 -7 -15zM-27 818q0 20 22 20h260q22 0 22 -20q0 -18 -22 -18h-260q-22 0 -22 18z" />
    <glyph glyph-name="Iogonek" unicode="&#x12e;" horiz-adv-x="220" 
d="M171 -126q4 -4 4 -10q0 -20 -20.5 -34.5t-51.5 -14.5q-35 0 -61.5 26t-26.5 66q0 43 24 73.5t59 42.5v656q0 9 6 15t15 6t15 -6t6 -15v-649q0 -10 -4 -14.5t-16 -9.5q-26 -11 -46.5 -35t-20.5 -56q0 -29 16.5 -46t38.5 -17q15 0 23 4.5t15.5 13t14.5 8.5q6 0 10 -4z" />
    <glyph glyph-name="Itilde" unicode="&#x128;" horiz-adv-x="242" 
d="M135 6q-6 -6 -14 -6q-10 0 -15.5 6t-5.5 15v658q0 9 6 15t15 6t15 -6t6 -15v-658q-1 -9 -7 -15zM-21 799q0 8 3 18q8 31 30 46t49 15q15 0 31 -7.5t42 -23.5q23 -14 35.5 -20t23.5 -6q15 0 24.5 12t12.5 33q1 8 5.5 13t12.5 5q16 0 16 -19q0 -3 -2 -15q-15 -65 -77 -65
q-13 0 -28 7t-39 22q-26 14 -38 20t-23 6q-32 0 -45 -44q-4 -14 -18 -14q-15 0 -15 17z" />
    <glyph glyph-name="J" unicode="J" horiz-adv-x="578" 
d="M152.5 28q-50.5 38 -75.5 101q-2 6 -2 10q0 8 6 13t14 5q13 0 19 -13q19 -51 60 -82.5t93 -31.5q77 0 123 46t46 123v481q0 8 6 14t16 6q9 0 14.5 -6t5.5 -14v-481q0 -62 -26.5 -109.5t-74.5 -73.5t-110 -26q-64 0 -114.5 38z" />
    <glyph glyph-name="Jcircumflex" unicode="&#x134;" horiz-adv-x="578" 
d="M152.5 28q-50.5 38 -75.5 101q-2 6 -2 10q0 8 6 13t14 5q13 0 19 -13q19 -51 60 -82.5t93 -31.5q77 0 123 46t46 123v481q0 8 6 14t16 6q9 0 14.5 -6t5.5 -14v-481q0 -62 -26.5 -109.5t-74.5 -73.5t-110 -26q-64 0 -114.5 38zM573 781q0 -5 -3.5 -8.5t-8.5 -3.5
q-7 0 -19 10l-88 68l-82 -69q-12 -10 -19 -10q-5 0 -8.5 3.5t-3.5 8.5q0 6 6 12l81 86q7 7 11.5 9.5t12.5 2.5h10q8 0 12.5 -2.5t11.5 -9.5l81 -85q6 -6 6 -12z" />
    <glyph glyph-name="K" unicode="K" horiz-adv-x="682" 
d="M629 16q0 -11 -7.5 -16t-15.5 -5t-14 7l-300 371l-150 -139v-213q-1 -9 -7 -15t-14 -6q-10 0 -15.5 6t-5.5 15v658q0 9 6 15t15 6t15 -6t6 -15v-394l432 405q6 6 14 6t14 -6t6 -14t-6 -14l-277 -258l299 -374q5 -7 5 -14z" />
    <glyph glyph-name="Kcommaaccent" unicode="&#x136;" horiz-adv-x="682" 
d="M629 16q0 -11 -7.5 -16t-15.5 -5t-14 7l-300 371l-150 -139v-213q-1 -9 -7 -15t-14 -6q-10 0 -15.5 6t-5.5 15v658q0 9 6 15t15 6t15 -6t6 -15v-394l432 405q6 6 14 6t14 -6t6 -14t-6 -14l-277 -258l299 -374q5 -7 5 -14zM330 -158q-21 -20 -48 -20q-30 0 -30 16
q0 7 3.5 12t9.5 5q3 0 8.5 -1.5t10.5 -1.5q6 0 10 1q17 3 17 33q0 12 -10 12q-4 0 -10 -4t-11 -4q-10 -1 -16.5 7t-6.5 16q0 15 12.5 24.5t34.5 9.5q21 0 34 -14t13 -41q0 -30 -21 -50z" />
    <glyph glyph-name="L" unicode="L" horiz-adv-x="522" 
d="M501 34q6 -6 6 -14q0 -9 -6 -14.5t-14 -5.5h-367q-9 0 -14.5 6t-5.5 14v660q0 8 6 14t15 6t15 -6t6 -14v-640h345q8 0 14 -6z" />
    <glyph glyph-name="uni01C7" unicode="&#x1c7;" horiz-adv-x="1100" 
d="M501 34q6 -6 6 -14q0 -9 -6 -14.5t-14 -5.5h-367q-9 0 -14.5 6t-5.5 14v660q0 8 6 14t15 6t15 -6t6 -14v-640h345q8 0 14 -6zM674.5 28q-50.5 38 -75.5 101q-2 6 -2 10q0 8 6 13t14 5q13 0 19 -13q19 -51 60 -82.5t93 -31.5q77 0 123 46t46 123v481q0 8 6 14t16 6
q9 0 14.5 -6t5.5 -14v-481q0 -62 -26.5 -109.5t-74.5 -73.5t-110 -26q-64 0 -114.5 38z" />
    <glyph glyph-name="Lacute" unicode="&#x139;" horiz-adv-x="522" 
d="M501 34q6 -6 6 -14q0 -9 -6 -14.5t-14 -5.5h-367q-9 0 -14.5 6t-5.5 14v660q0 8 6 14t15 6t15 -6t6 -14v-640h345q8 0 14 -6zM106 751.5q-3 3.5 -3 8.5q0 8 9 15l90 67q10 8 22 8q11 0 17 -7t6 -17q0 -16 -14 -24l-97 -47q-14 -7 -21 -7q-6 0 -9 3.5z" />
    <glyph glyph-name="Lcaron" unicode="&#x13d;" horiz-adv-x="523" 
d="M494.5 599.5q-13.5 -26.5 -34 -42t-38.5 -15.5q-7 0 -12.5 4t-5.5 12q0 9 4 12t14.5 6t16.5 6q14 7 21.5 22t7.5 31q0 24 -17 24q-15 0 -26 -9q-8 10 -8 20q0 13 13.5 23t30.5 10q21 0 34 -13t13 -34q0 -30 -13.5 -56.5zM501 34q6 -6 6 -14q0 -9 -6 -14.5t-14 -5.5h-367
q-9 0 -14.5 6t-5.5 14v660q0 8 6 14t14 6q9 0 14.5 -6t5.5 -14v-635q0 -5 5 -5h342q8 0 14 -6z" />
    <glyph glyph-name="Lcommaaccent" unicode="&#x13b;" horiz-adv-x="522" 
d="M501 34q6 -6 6 -14q0 -9 -6 -14.5t-14 -5.5h-367q-9 0 -14.5 6t-5.5 14v660q0 8 6 14t15 6t15 -6t6 -14v-640h345q8 0 14 -6zM316 -158q-21 -20 -48 -20q-30 0 -30 16q0 7 3.5 12t9.5 5q3 0 8.5 -1.5t10.5 -1.5q6 0 10 1q17 3 17 33q0 12 -10 12q-4 0 -10 -4t-11 -4
q-10 -1 -16.5 7t-6.5 16q0 15 12.5 24.5t34.5 9.5q21 0 34 -14t13 -41q0 -30 -21 -50z" />
    <glyph glyph-name="Ldot" unicode="&#x13f;" horiz-adv-x="537" 
d="M501 34q6 -6 6 -14q0 -9 -6 -14.5t-14 -5.5h-367q-9 0 -14.5 6t-5.5 14v660q0 8 6 14t15 6t15 -6t6 -14v-640h345q8 0 14 -6zM449 264q-9 9 -9 22v23q0 14 9 22.5t22 8.5h4q14 0 22.5 -8.5t8.5 -22.5v-23q0 -13 -8.5 -22t-22.5 -9h-4q-13 0 -22 9z" />
    <glyph glyph-name="uni1E36" unicode="&#x1e36;" horiz-adv-x="522" 
d="M501 34q6 -6 6 -14q0 -9 -6 -14.5t-14 -5.5h-367q-9 0 -14.5 6t-5.5 14v660q0 8 6 14t15 6t15 -6t6 -14v-640h345q8 0 14 -6zM260.5 -127q-9.5 10 -9.5 26v8q0 16 10 26t26 10q14 0 23.5 -10t9.5 -26v-8q0 -16 -9.5 -26t-24.5 -10q-16 0 -25.5 10z" />
    <glyph glyph-name="uni01C8" unicode="&#x1c8;" horiz-adv-x="790" 
d="M501 34q6 -6 6 -14q0 -9 -6 -14.5t-14 -5.5h-367q-9 0 -14.5 6t-5.5 14v660q0 8 6 14t15 6t15 -6t6 -14v-640h345q8 0 14 -6zM507 -193q-5 5 -5 13v2q0 7 5 12.5t13 6.5q39 6 68.5 31t29.5 70v538q0 8 5.5 14t14.5 6t14.5 -6t5.5 -14v-538q0 -42 -22 -74t-54 -49t-61 -17
q-9 0 -14 5zM612.5 593q-9.5 9 -9.5 23v8q0 14 10 23t26 9q14 0 23.5 -9t9.5 -23v-8q0 -14 -9.5 -23t-24.5 -9q-16 0 -25.5 9z" />
    <glyph glyph-name="uni1E3A" unicode="&#x1e3a;" horiz-adv-x="522" 
d="M501 34q6 -6 6 -14q0 -9 -6 -14.5t-14 -5.5h-367q-9 0 -14.5 6t-5.5 14v660q0 8 6 14t15 6t15 -6t6 -14v-640h345q8 0 14 -6zM171 -99q0 19 20 19h200q20 0 20 -19q0 -18 -20 -18h-200q-20 0 -20 18z" />
    <glyph glyph-name="Lslash" unicode="&#x141;" horiz-adv-x="561" 
d="M540 34q6 -6 6 -14q0 -9 -6 -14.5t-14 -5.5h-367q-9 0 -14.5 6t-5.5 14v357l-61 -27q-3 -2 -10 -2q-9 0 -13.5 5t-4.5 14q0 13 12 19l77 34v260q0 8 6 14t14 6q9 0 14.5 -6t5.5 -14v-243l83 37q6 3 11 3q9 0 13.5 -6.5t4.5 -13.5q0 -13 -13 -19l-99 -44v-354h347
q8 0 14 -6z" />
    <glyph glyph-name="M" unicode="M" horiz-adv-x="829" 
d="M724 693.5q5 -5.5 5 -13.5v-660q0 -8 -6.5 -14t-14.5 -6q-9 0 -15 6t-6 14v598l-258 -390q-5 -8 -14 -8q-11 0 -16 8l-259 391v-599q0 -8 -6 -14t-14 -6q-9 0 -14.5 6t-5.5 14v660q0 7 5.5 13.5t13.5 6.5q13 0 19 -9l277 -412l277 412q8 11 19 9q8 -1 13 -6.5z" />
    <glyph glyph-name="uni1E42" unicode="&#x1e42;" horiz-adv-x="829" 
d="M724 693.5q5 -5.5 5 -13.5v-660q0 -8 -6.5 -14t-14.5 -6q-9 0 -15 6t-6 14v598l-258 -390q-5 -8 -14 -8q-11 0 -16 8l-259 391v-599q0 -8 -6 -14t-14 -6q-9 0 -14.5 6t-5.5 14v660q0 7 5.5 13.5t13.5 6.5q13 0 19 -9l277 -412l277 412q8 11 19 9q8 -1 13 -6.5z
M389.5 -127q-9.5 10 -9.5 26v8q0 16 10 26t26 10q14 0 23.5 -10t9.5 -26v-8q0 -16 -9.5 -26t-24.5 -10q-16 0 -25.5 10z" />
    <glyph glyph-name="N" unicode="N" horiz-adv-x="725" 
d="M620 694.5q5 -5.5 5 -13.5v-659q0 -11 -6 -16.5t-15 -5.5q-10 0 -16 8l-450 615v-606q0 -7 -5.5 -12t-13.5 -5q-9 0 -14 5t-5 12v663q0 10 5.5 15t12.5 5q9 0 15 -7l454 -619v607q0 8 5.5 13.5t13.5 5.5q9 0 14 -5.5z" />
    <glyph glyph-name="uni01CA" unicode="&#x1ca;" horiz-adv-x="1303" 
d="M620 694.5q5 -5.5 5 -13.5v-659q0 -11 -6 -16.5t-15 -5.5q-10 0 -16 8l-450 615v-606q0 -7 -5.5 -12t-13.5 -5q-9 0 -14 5t-5 12v663q0 10 5.5 15t12.5 5q9 0 15 -7l454 -619v607q0 8 5.5 13.5t13.5 5.5q9 0 14 -5.5zM877.5 28q-50.5 38 -75.5 101q-2 6 -2 10q0 8 6 13
t14 5q13 0 19 -13q19 -51 60 -82.5t93 -31.5q77 0 123 46t46 123v481q0 8 6 14t16 6q9 0 14.5 -6t5.5 -14v-481q0 -62 -26.5 -109.5t-74.5 -73.5t-110 -26q-64 0 -114.5 38z" />
    <glyph glyph-name="Nacute" unicode="&#x143;" horiz-adv-x="725" 
d="M620 694.5q5 -5.5 5 -13.5v-659q0 -11 -6 -16.5t-15 -5.5q-10 0 -16 8l-450 615v-606q0 -7 -5.5 -12t-13.5 -5q-9 0 -14 5t-5 12v663q0 10 5.5 15t12.5 5q9 0 15 -7l454 -619v607q0 8 5.5 13.5t13.5 5.5q9 0 14 -5.5zM358 751.5q-3 3.5 -3 8.5q0 8 9 15l90 67q10 8 22 8
q11 0 17 -7t6 -17q0 -16 -14 -24l-97 -47q-14 -7 -21 -7q-6 0 -9 3.5z" />
    <glyph glyph-name="Ncaron" unicode="&#x147;" horiz-adv-x="725" 
d="M620 694.5q5 -5.5 5 -13.5v-659q0 -11 -6 -16.5t-15 -5.5q-10 0 -16 8l-450 615v-606q0 -7 -5.5 -12t-13.5 -5q-9 0 -14 5t-5 12v663q0 10 5.5 15t12.5 5q9 0 15 -7l454 -619v607q0 8 5.5 13.5t13.5 5.5q9 0 14 -5.5zM474.5 877.5q3.5 -3.5 3.5 -8.5q0 -6 -6 -12l-81 -86
q-8 -12 -24 -12h-10q-16 0 -24 12l-81 85q-6 6 -6 12q0 5 3.5 8.5t8.5 3.5q7 0 19 -10l88 -68l82 69q12 10 19 10q5 0 8.5 -3.5z" />
    <glyph glyph-name="Ncommaaccent" unicode="&#x145;" horiz-adv-x="725" 
d="M620 694.5q5 -5.5 5 -13.5v-659q0 -11 -6 -16.5t-15 -5.5q-10 0 -16 8l-450 615v-606q0 -7 -5.5 -12t-13.5 -5q-9 0 -14 5t-5 12v663q0 10 5.5 15t12.5 5q9 0 15 -7l454 -619v607q0 8 5.5 13.5t13.5 5.5q9 0 14 -5.5zM393 -158q-21 -20 -48 -20q-30 0 -30 16q0 7 3.5 12
t9.5 5q3 0 8.5 -1.5t10.5 -1.5q6 0 10 1q17 3 17 33q0 12 -10 12q-4 0 -10 -4t-11 -4q-10 -1 -16.5 7t-6.5 16q0 15 12.5 24.5t34.5 9.5q21 0 34 -14t13 -41q0 -30 -21 -50z" />
    <glyph glyph-name="uni1E44" unicode="&#x1e44;" horiz-adv-x="725" 
d="M620 694.5q5 -5.5 5 -13.5v-659q0 -11 -6 -16.5t-15 -5.5q-10 0 -16 8l-450 615v-606q0 -7 -5.5 -12t-13.5 -5q-9 0 -14 5t-5 12v663q0 10 5.5 15t12.5 5q9 0 15 -7l454 -619v607q0 8 5.5 13.5t13.5 5.5q9 0 14 -5.5zM337.5 790q-9.5 10 -9.5 26v8q0 16 10 26t26 10
q14 0 23.5 -10t9.5 -26v-8q0 -16 -9.5 -26t-24.5 -10q-16 0 -25.5 10z" />
    <glyph glyph-name="uni1E46" unicode="&#x1e46;" horiz-adv-x="725" 
d="M620 694.5q5 -5.5 5 -13.5v-659q0 -11 -6 -16.5t-15 -5.5q-10 0 -16 8l-450 615v-606q0 -7 -5.5 -12t-13.5 -5q-9 0 -14 5t-5 12v663q0 10 5.5 15t12.5 5q9 0 15 -7l454 -619v607q0 8 5.5 13.5t13.5 5.5q9 0 14 -5.5zM337.5 -127q-9.5 10 -9.5 26v8q0 16 10 26t26 10
q14 0 23.5 -10t9.5 -26v-8q0 -16 -9.5 -26t-24.5 -10q-16 0 -25.5 10z" />
    <glyph glyph-name="Eng" unicode="&#x14a;" horiz-adv-x="745" 
d="M639.5 690q5.5 -6 5.5 -14v-720q0 -156 -175 -156q-10 0 -16 5.5t-6 14.5t6 14.5t15 5.5q80 0 107.5 29.5t28.5 86.5l1 56l-466 610v-602q0 -8 -6 -14t-14 -6q-9 0 -14.5 6t-5.5 14v660q0 9 6 14.5t15 5.5q5 0 9.5 -3t6.5 -6l468 -612v597q0 8 6 14t14 6q9 0 14.5 -6z
" />
    <glyph glyph-name="uni019D" unicode="&#x19d;" horiz-adv-x="725" 
d="M620 694.5q5 -5.5 5 -13.5v-659q0 -11 -6 -16.5t-15 -5.5q-10 0 -16 8l-450 615v-681q0 -60 -40 -95.5t-94 -44.5h-4q-8 0 -13 5t-5 13q0 9 5 14.5t13 6.5q40 6 70 31t30 70v738q0 10 5.5 15t12.5 5q9 0 15 -7l454 -619v607q0 8 5.5 13.5t13.5 5.5q9 0 14 -5.5z" />
    <glyph glyph-name="uni01CB" unicode="&#x1cb;" horiz-adv-x="993" 
d="M620 694.5q5 -5.5 5 -13.5v-659q0 -11 -6 -16.5t-15 -5.5q-10 0 -16 8l-450 615v-606q0 -7 -5.5 -12t-13.5 -5q-9 0 -14 5t-5 12v663q0 10 5.5 15t12.5 5q9 0 15 -7l454 -619v607q0 8 5.5 13.5t13.5 5.5q9 0 14 -5.5zM710 -193q-5 5 -5 13v2q0 7 5 12.5t13 6.5
q39 6 68.5 31t29.5 70v538q0 8 5.5 14t14.5 6t14.5 -6t5.5 -14v-538q0 -42 -22 -74t-54 -49t-61 -17q-9 0 -14 5zM815.5 593q-9.5 9 -9.5 23v8q0 14 10 23t26 9q14 0 23.5 -9t9.5 -23v-8q0 -14 -9.5 -23t-24.5 -9q-16 0 -25.5 9z" />
    <glyph glyph-name="uni1E48" unicode="&#x1e48;" horiz-adv-x="725" 
d="M620 694.5q5 -5.5 5 -13.5v-659q0 -11 -6 -16.5t-15 -5.5q-10 0 -16 8l-450 615v-606q0 -7 -5.5 -12t-13.5 -5q-9 0 -14 5t-5 12v663q0 10 5.5 15t12.5 5q9 0 15 -7l454 -619v607q0 8 5.5 13.5t13.5 5.5q9 0 14 -5.5zM248 -99q0 19 20 19h200q20 0 20 -19q0 -18 -20 -18
h-200q-20 0 -20 18z" />
    <glyph glyph-name="Ntilde" unicode="&#xd1;" horiz-adv-x="725" 
d="M620 694.5q5 -5.5 5 -13.5v-659q0 -11 -6 -16.5t-15 -5.5q-10 0 -16 8l-450 615v-606q0 -7 -5.5 -12t-13.5 -5q-9 0 -14 5t-5 12v663q0 10 5.5 15t12.5 5q9 0 15 -7l454 -619v607q0 8 5.5 13.5t13.5 5.5q9 0 14 -5.5zM221 799q0 8 3 18q8 31 30 46t49 15q15 0 31 -7.5
t42 -23.5q23 -14 35.5 -20t23.5 -6q15 0 24.5 12t12.5 33q1 8 5.5 13t12.5 5q16 0 16 -19q0 -3 -2 -15q-15 -65 -77 -65q-13 0 -28 7t-39 22q-26 14 -38 20t-23 6q-32 0 -45 -44q-4 -14 -18 -14q-15 0 -15 17z" />
    <glyph glyph-name="O" unicode="O" horiz-adv-x="768" 
d="M675.5 163q-42.5 -82 -118.5 -127.5t-173 -45.5t-173 45.5t-118.5 127.5t-42.5 187t42.5 187t118.5 127.5t173 45.5t173 -45.5t118.5 -127.5t42.5 -187t-42.5 -187zM639 517q-37 73 -103.5 113t-151.5 40t-151.5 -40t-103.5 -113t-37 -167t37 -167t103.5 -113t151.5 -40
t151.5 40t103.5 113t37 167t-37 167z" />
    <glyph glyph-name="Oacute" unicode="&#xd3;" horiz-adv-x="768" 
d="M675.5 163q-42.5 -82 -118.5 -127.5t-173 -45.5t-173 45.5t-118.5 127.5t-42.5 187t42.5 187t118.5 127.5t173 45.5t173 -45.5t118.5 -127.5t42.5 -187t-42.5 -187zM639 517q-37 73 -103.5 113t-151.5 40t-151.5 -40t-103.5 -113t-37 -167t37 -167t103.5 -113t151.5 -40
t151.5 40t103.5 113t37 167t-37 167zM379 751.5q-3 3.5 -3 8.5q0 8 9 15l90 67q10 8 22 8q11 0 17 -7t6 -17q0 -16 -14 -24l-97 -47q-14 -7 -21 -7q-6 0 -9 3.5z" />
    <glyph glyph-name="Obreve" unicode="&#x14e;" horiz-adv-x="768" 
d="M675.5 163q-42.5 -82 -118.5 -127.5t-173 -45.5t-173 45.5t-118.5 127.5t-42.5 187t42.5 187t118.5 127.5t173 45.5t173 -45.5t118.5 -127.5t42.5 -187t-42.5 -187zM639 517q-37 73 -103.5 113t-151.5 40t-151.5 -40t-103.5 -113t-37 -167t37 -167t103.5 -113t151.5 -40
t151.5 40t103.5 113t37 167t-37 167zM300 807q-34 27 -46 76q-1 2 -1 7q0 15 16 15q9 0 12.5 -3.5t7.5 -13.5q27 -69 95 -69q67 0 94 69q3 9 7.5 12.5t12.5 3.5q11 0 14.5 -5t1.5 -16q-12 -49 -46 -76t-84 -27t-84 27z" />
    <glyph glyph-name="uni01D1" unicode="&#x1d1;" horiz-adv-x="768" 
d="M675.5 163q-42.5 -82 -118.5 -127.5t-173 -45.5t-173 45.5t-118.5 127.5t-42.5 187t42.5 187t118.5 127.5t173 45.5t173 -45.5t118.5 -127.5t42.5 -187t-42.5 -187zM639 517q-37 73 -103.5 113t-151.5 40t-151.5 -40t-103.5 -113t-37 -167t37 -167t103.5 -113t151.5 -40
t151.5 40t103.5 113t37 167t-37 167zM495.5 877.5q3.5 -3.5 3.5 -8.5q0 -6 -6 -12l-81 -86q-8 -12 -24 -12h-10q-16 0 -24 12l-81 85q-6 6 -6 12q0 5 3.5 8.5t8.5 3.5q7 0 19 -10l88 -68l82 69q12 10 19 10q5 0 8.5 -3.5z" />
    <glyph glyph-name="Ocircumflex" unicode="&#xd4;" horiz-adv-x="768" 
d="M675.5 163q-42.5 -82 -118.5 -127.5t-173 -45.5t-173 45.5t-118.5 127.5t-42.5 187t42.5 187t118.5 127.5t173 45.5t173 -45.5t118.5 -127.5t42.5 -187t-42.5 -187zM639 517q-37 73 -103.5 113t-151.5 40t-151.5 -40t-103.5 -113t-37 -167t37 -167t103.5 -113t151.5 -40
t151.5 40t103.5 113t37 167t-37 167zM499 781q0 -5 -3.5 -8.5t-8.5 -3.5q-7 0 -19 10l-88 68l-82 -69q-12 -10 -19 -10q-5 0 -8.5 3.5t-3.5 8.5q0 6 6 12l81 86q7 7 11.5 9.5t12.5 2.5h10q8 0 12.5 -2.5t11.5 -9.5l81 -85q6 -6 6 -12z" />
    <glyph glyph-name="uni1ED0" unicode="&#x1ed0;" horiz-adv-x="768" 
d="M675.5 163q-42.5 -82 -118.5 -127.5t-173 -45.5t-173 45.5t-118.5 127.5t-42.5 187t42.5 187t118.5 127.5t173 45.5t173 -45.5t118.5 -127.5t42.5 -187t-42.5 -187zM639 517q-37 73 -103.5 113t-151.5 40t-151.5 -40t-103.5 -113t-37 -167t37 -167t103.5 -113t151.5 -40
t151.5 40t103.5 113t37 167t-37 167zM499 781q0 -5 -3.5 -8.5t-8.5 -3.5q-7 0 -19 10l-88 68l-82 -69q-12 -10 -19 -10q-5 0 -8.5 3.5t-3.5 8.5q0 6 6 12l81 86q7 7 11.5 9.5t12.5 2.5h10q8 0 12.5 -2.5t11.5 -9.5l81 -85q6 -6 6 -12zM503 828.5q-3 3.5 -3 8.5q0 8 9 15
l90 67q10 8 22 8q11 0 17 -7t6 -17q0 -16 -14 -24l-97 -47q-14 -7 -21 -7q-6 0 -9 3.5z" />
    <glyph glyph-name="uni1ED8" unicode="&#x1ed8;" horiz-adv-x="768" 
d="M675.5 163q-42.5 -82 -118.5 -127.5t-173 -45.5t-173 45.5t-118.5 127.5t-42.5 187t42.5 187t118.5 127.5t173 45.5t173 -45.5t118.5 -127.5t42.5 -187t-42.5 -187zM639 517q-37 73 -103.5 113t-151.5 40t-151.5 -40t-103.5 -113t-37 -167t37 -167t103.5 -113t151.5 -40
t151.5 40t103.5 113t37 167t-37 167zM358.5 -127q-9.5 10 -9.5 26v8q0 16 10 26t26 10q14 0 23.5 -10t9.5 -26v-8q0 -16 -9.5 -26t-24.5 -10q-16 0 -25.5 10zM499 781q0 -5 -3.5 -8.5t-8.5 -3.5q-7 0 -19 10l-88 68l-82 -69q-12 -10 -19 -10q-5 0 -8.5 3.5t-3.5 8.5
q0 6 6 12l81 86q7 7 11.5 9.5t12.5 2.5h10q8 0 12.5 -2.5t11.5 -9.5l81 -85q6 -6 6 -12z" />
    <glyph glyph-name="uni1ED2" unicode="&#x1ed2;" horiz-adv-x="768" 
d="M675.5 163q-42.5 -82 -118.5 -127.5t-173 -45.5t-173 45.5t-118.5 127.5t-42.5 187t42.5 187t118.5 127.5t173 45.5t173 -45.5t118.5 -127.5t42.5 -187t-42.5 -187zM639 517q-37 73 -103.5 113t-151.5 40t-151.5 -40t-103.5 -113t-37 -167t37 -167t103.5 -113t151.5 -40
t151.5 40t103.5 113t37 167t-37 167zM499 781q0 -5 -3.5 -8.5t-8.5 -3.5q-7 0 -19 10l-88 68l-82 -69q-12 -10 -19 -10q-5 0 -8.5 3.5t-3.5 8.5q0 6 6 12l81 86q7 7 11.5 9.5t12.5 2.5h10q8 0 12.5 -2.5t11.5 -9.5l81 -85q6 -6 6 -12zM476 888l-97 47q-14 8 -14 24
q0 10 6 17t17 7q12 0 22 -8l90 -67q9 -7 9 -15q0 -5 -3 -8.5t-9 -3.5q-7 0 -21 7z" />
    <glyph glyph-name="uni1ED4" unicode="&#x1ed4;" horiz-adv-x="768" 
d="M675.5 163q-42.5 -82 -118.5 -127.5t-173 -45.5t-173 45.5t-118.5 127.5t-42.5 187t42.5 187t118.5 127.5t173 45.5t173 -45.5t118.5 -127.5t42.5 -187t-42.5 -187zM639 517q-37 73 -103.5 113t-151.5 40t-151.5 -40t-103.5 -113t-37 -167t37 -167t103.5 -113t151.5 -40
t151.5 40t103.5 113t37 167t-37 167zM498 788q0 -5 -3.5 -8.5t-8.5 -3.5q-7 0 -19 10l-88 68l-82 -69q-12 -10 -19 -10q-5 0 -8.5 3.5t-3.5 8.5q0 6 6 12l81 86q8 12 24 12h10q16 0 24 -12l81 -85q6 -6 6 -12zM518 998q37 0 55.5 -21.5t18.5 -47.5q0 -16 -9 -29.5t-29 -33.5
q-8 -8 -9 -23q-1 -7 -5.5 -10.5t-11.5 -3.5q-8 0 -12 4.5t-4 11.5q0 25 14 40q5 5 14 14.5t13 16t4 14.5q0 13 -11 22.5t-26 9.5q-22 0 -47 -19q-10 -8 -18 -8q-7 0 -13 6q-4 6 -4 11q0 7 7 14q32 32 73 32z" />
    <glyph glyph-name="uni1ED6" unicode="&#x1ed6;" horiz-adv-x="768" 
d="M675.5 163q-42.5 -82 -118.5 -127.5t-173 -45.5t-173 45.5t-118.5 127.5t-42.5 187t42.5 187t118.5 127.5t173 45.5t173 -45.5t118.5 -127.5t42.5 -187t-42.5 -187zM639 517q-37 73 -103.5 113t-151.5 40t-151.5 -40t-103.5 -113t-37 -167t37 -167t103.5 -113t151.5 -40
t151.5 40t103.5 113t37 167t-37 167zM499 781q0 -5 -3.5 -8.5t-8.5 -3.5q-7 0 -19 10l-88 68l-82 -69q-12 -10 -19 -10q-5 0 -8.5 3.5t-3.5 8.5q0 6 6 12l81 86q7 7 11.5 9.5t12.5 2.5h10q8 0 12.5 -2.5t11.5 -9.5l81 -85q6 -6 6 -12zM242 915q0 8 3 18q8 31 30 46t49 15
q15 0 31 -7.5t42 -23.5q23 -14 35.5 -20t23.5 -6q15 0 24.5 12t12.5 33q1 8 5.5 13t12.5 5q16 0 16 -19q0 -3 -2 -15q-15 -65 -77 -65q-13 0 -28 7t-39 22q-26 14 -38 20t-23 6q-32 0 -45 -44q-4 -14 -18 -14q-15 0 -15 17z" />
    <glyph glyph-name="uni020C" unicode="&#x20c;" horiz-adv-x="768" 
d="M675.5 163q-42.5 -82 -118.5 -127.5t-173 -45.5t-173 45.5t-118.5 127.5t-42.5 187t42.5 187t118.5 127.5t173 45.5t173 -45.5t118.5 -127.5t42.5 -187t-42.5 -187zM639 517q-37 73 -103.5 113t-151.5 40t-151.5 -40t-103.5 -113t-37 -167t37 -167t103.5 -113t151.5 -40
t151.5 40t103.5 113t37 167t-37 167zM331 763l-97 47q-14 8 -14 24q0 10 6 17t17 7q12 0 22 -8l90 -67q9 -7 9 -15q0 -5 -3 -8.5t-9 -3.5q-7 0 -21 7zM486 759l-97 47q-14 8 -14 24q0 10 6 17t17 7q12 0 22 -8l90 -67q9 -7 9 -15q0 -5 -3 -8.5t-9 -3.5q-7 0 -21 7z" />
    <glyph glyph-name="Odieresis" unicode="&#xd6;" horiz-adv-x="768" 
d="M675.5 163q-42.5 -82 -118.5 -127.5t-173 -45.5t-173 45.5t-118.5 127.5t-42.5 187t42.5 187t118.5 127.5t173 45.5t173 -45.5t118.5 -127.5t42.5 -187t-42.5 -187zM639 517q-37 73 -103.5 113t-151.5 40t-151.5 -40t-103.5 -113t-37 -167t37 -167t103.5 -113t151.5 -40
t151.5 40t103.5 113t37 167t-37 167zM277.5 790q-9.5 10 -9.5 26v8q0 16 10 26t26 10q14 0 23.5 -10t9.5 -26v-8q0 -16 -9.5 -26t-24.5 -10q-16 0 -25.5 10zM440.5 790q-9.5 10 -9.5 26v8q0 16 10 26t26 10q14 0 23.5 -10t9.5 -26v-8q0 -16 -9.5 -26t-24.5 -10
q-16 0 -25.5 10z" />
    <glyph glyph-name="uni022A" unicode="&#x22a;" horiz-adv-x="768" 
d="M675.5 163q-42.5 -82 -118.5 -127.5t-173 -45.5t-173 45.5t-118.5 127.5t-42.5 187t42.5 187t118.5 127.5t173 45.5t173 -45.5t118.5 -127.5t42.5 -187t-42.5 -187zM639 517q-37 73 -103.5 113t-151.5 40t-151.5 -40t-103.5 -113t-37 -167t37 -167t103.5 -113t151.5 -40
t151.5 40t103.5 113t37 167t-37 167zM277.5 790q-9.5 10 -9.5 26v8q0 16 10 26t26 10q14 0 23.5 -10t9.5 -26v-8q0 -16 -9.5 -26t-24.5 -10q-16 0 -25.5 10zM440.5 790q-9.5 10 -9.5 26v8q0 16 10 26t26 10q14 0 23.5 -10t9.5 -26v-8q0 -16 -9.5 -26t-24.5 -10
q-16 0 -25.5 10zM236 978q0 20 22 20h260q22 0 22 -20q0 -18 -22 -18h-260q-22 0 -22 18z" />
    <glyph glyph-name="uni0230" unicode="&#x230;" horiz-adv-x="768" 
d="M675.5 163q-42.5 -82 -118.5 -127.5t-173 -45.5t-173 45.5t-118.5 127.5t-42.5 187t42.5 187t118.5 127.5t173 45.5t173 -45.5t118.5 -127.5t42.5 -187t-42.5 -187zM639 517q-37 73 -103.5 113t-151.5 40t-151.5 -40t-103.5 -113t-37 -167t37 -167t103.5 -113t151.5 -40
t151.5 40t103.5 113t37 167t-37 167zM358.5 790q-9.5 10 -9.5 26v8q0 16 10 26t26 10q14 0 23.5 -10t9.5 -26v-8q0 -16 -9.5 -26t-24.5 -10q-16 0 -25.5 10zM236 978q0 20 22 20h260q22 0 22 -20q0 -18 -22 -18h-260q-22 0 -22 18z" />
    <glyph glyph-name="uni1ECC" unicode="&#x1ecc;" horiz-adv-x="768" 
d="M675.5 163q-42.5 -82 -118.5 -127.5t-173 -45.5t-173 45.5t-118.5 127.5t-42.5 187t42.5 187t118.5 127.5t173 45.5t173 -45.5t118.5 -127.5t42.5 -187t-42.5 -187zM639 517q-37 73 -103.5 113t-151.5 40t-151.5 -40t-103.5 -113t-37 -167t37 -167t103.5 -113t151.5 -40
t151.5 40t103.5 113t37 167t-37 167zM358.5 -127q-9.5 10 -9.5 26v8q0 16 10 26t26 10q14 0 23.5 -10t9.5 -26v-8q0 -16 -9.5 -26t-24.5 -10q-16 0 -25.5 10z" />
    <glyph glyph-name="Ograve" unicode="&#xd2;" horiz-adv-x="768" 
d="M675.5 163q-42.5 -82 -118.5 -127.5t-173 -45.5t-173 45.5t-118.5 127.5t-42.5 187t42.5 187t118.5 127.5t173 45.5t173 -45.5t118.5 -127.5t42.5 -187t-42.5 -187zM639 517q-37 73 -103.5 113t-151.5 40t-151.5 -40t-103.5 -113t-37 -167t37 -167t103.5 -113t151.5 -40
t151.5 40t103.5 113t37 167t-37 167zM363 755l-97 47q-14 8 -14 24q0 10 6 17t17 7q12 0 22 -8l90 -67q9 -7 9 -15q0 -5 -3 -8.5t-9 -3.5q-7 0 -21 7z" />
    <glyph glyph-name="uni1ECE" unicode="&#x1ece;" horiz-adv-x="768" 
d="M675.5 163q-42.5 -82 -118.5 -127.5t-173 -45.5t-173 45.5t-118.5 127.5t-42.5 187t42.5 187t118.5 127.5t173 45.5t173 -45.5t118.5 -127.5t42.5 -187t-42.5 -187zM639 517q-37 73 -103.5 113t-151.5 40t-151.5 -40t-103.5 -113t-37 -167t37 -167t103.5 -113t151.5 -40
t151.5 40t103.5 113t37 167t-37 167zM387 926q37 0 55.5 -21.5t18.5 -47.5q0 -16 -9 -29.5t-29 -33.5q-8 -8 -9 -23q-1 -7 -5.5 -10.5t-11.5 -3.5q-8 0 -12 4.5t-4 11.5q0 25 14 40q5 5 14 14.5t13 16t4 14.5q0 13 -11 22.5t-26 9.5q-22 0 -47 -19q-10 -8 -18 -8q-7 0 -13 6
q-4 6 -4 11q0 7 7 14q32 32 73 32z" />
    <glyph glyph-name="Ohorn" unicode="&#x1a0;" horiz-adv-x="768" 
d="M669 548.5q49 -85.5 49 -198.5q0 -105 -42.5 -187t-118.5 -127.5t-173 -45.5t-173 45.5t-118.5 127.5t-42.5 187t42.5 187t118.5 127.5t173 45.5q46 0 85 -10q49 1 71 19.5t22 62.5q0 13 4.5 21.5t13.5 8.5q18 0 18 -30q0 -37 -16.5 -64t-46.5 -42q85 -42 134 -127.5z
M535.5 70q66.5 40 103.5 113t37 167t-37 167t-103.5 113t-151.5 40t-151.5 -40t-103.5 -113t-37 -167t37 -167t103.5 -113t151.5 -40t151.5 40z" />
    <glyph glyph-name="uni1EDA" unicode="&#x1eda;" horiz-adv-x="768" 
d="M669 548.5q49 -85.5 49 -198.5q0 -105 -42.5 -187t-118.5 -127.5t-173 -45.5t-173 45.5t-118.5 127.5t-42.5 187t42.5 187t118.5 127.5t173 45.5q46 0 85 -10q49 1 71 19.5t22 62.5q0 13 4.5 21.5t13.5 8.5q18 0 18 -30q0 -37 -16.5 -64t-46.5 -42q85 -42 134 -127.5z
M535.5 70q66.5 40 103.5 113t37 167t-37 167t-103.5 113t-151.5 40t-151.5 -40t-103.5 -113t-37 -167t37 -167t103.5 -113t151.5 -40t151.5 40zM379 751.5q-3 3.5 -3 8.5q0 8 9 15l90 67q10 8 22 8q11 0 17 -7t6 -17q0 -16 -14 -24l-97 -47q-14 -7 -21 -7q-6 0 -9 3.5z" />
    <glyph glyph-name="uni1EE2" unicode="&#x1ee2;" horiz-adv-x="768" 
d="M669 548.5q49 -85.5 49 -198.5q0 -105 -42.5 -187t-118.5 -127.5t-173 -45.5t-173 45.5t-118.5 127.5t-42.5 187t42.5 187t118.5 127.5t173 45.5q46 0 85 -10q49 1 71 19.5t22 62.5q0 13 4.5 21.5t13.5 8.5q18 0 18 -30q0 -37 -16.5 -64t-46.5 -42q85 -42 134 -127.5z
M535.5 70q66.5 40 103.5 113t37 167t-37 167t-103.5 113t-151.5 40t-151.5 -40t-103.5 -113t-37 -167t37 -167t103.5 -113t151.5 -40t151.5 40zM358.5 -127q-9.5 10 -9.5 26v8q0 16 10 26t26 10q14 0 23.5 -10t9.5 -26v-8q0 -16 -9.5 -26t-24.5 -10q-16 0 -25.5 10z" />
    <glyph glyph-name="uni1EDC" unicode="&#x1edc;" horiz-adv-x="768" 
d="M669 548.5q49 -85.5 49 -198.5q0 -105 -42.5 -187t-118.5 -127.5t-173 -45.5t-173 45.5t-118.5 127.5t-42.5 187t42.5 187t118.5 127.5t173 45.5q46 0 85 -10q49 1 71 19.5t22 62.5q0 13 4.5 21.5t13.5 8.5q18 0 18 -30q0 -37 -16.5 -64t-46.5 -42q85 -42 134 -127.5z
M535.5 70q66.5 40 103.5 113t37 167t-37 167t-103.5 113t-151.5 40t-151.5 -40t-103.5 -113t-37 -167t37 -167t103.5 -113t151.5 -40t151.5 40zM363 755l-97 47q-14 8 -14 24q0 10 6 17t17 7q12 0 22 -8l90 -67q9 -7 9 -15q0 -5 -3 -8.5t-9 -3.5q-7 0 -21 7z" />
    <glyph glyph-name="uni1EDE" unicode="&#x1ede;" horiz-adv-x="768" 
d="M669 548.5q49 -85.5 49 -198.5q0 -105 -42.5 -187t-118.5 -127.5t-173 -45.5t-173 45.5t-118.5 127.5t-42.5 187t42.5 187t118.5 127.5t173 45.5q46 0 85 -10q49 1 71 19.5t22 62.5q0 13 4.5 21.5t13.5 8.5q18 0 18 -30q0 -37 -16.5 -64t-46.5 -42q85 -42 134 -127.5z
M535.5 70q66.5 40 103.5 113t37 167t-37 167t-103.5 113t-151.5 40t-151.5 -40t-103.5 -113t-37 -167t37 -167t103.5 -113t151.5 -40t151.5 40zM387 926q37 0 55.5 -21.5t18.5 -47.5q0 -16 -9 -29.5t-29 -33.5q-8 -8 -9 -23q-1 -7 -5.5 -10.5t-11.5 -3.5q-8 0 -12 4.5
t-4 11.5q0 25 14 40q5 5 14 14.5t13 16t4 14.5q0 13 -11 22.5t-26 9.5q-22 0 -47 -19q-10 -8 -18 -8q-7 0 -13 6q-4 6 -4 11q0 7 7 14q32 32 73 32z" />
    <glyph glyph-name="uni1EE0" unicode="&#x1ee0;" horiz-adv-x="768" 
d="M669 548.5q49 -85.5 49 -198.5q0 -105 -42.5 -187t-118.5 -127.5t-173 -45.5t-173 45.5t-118.5 127.5t-42.5 187t42.5 187t118.5 127.5t173 45.5q46 0 85 -10q49 1 71 19.5t22 62.5q0 13 4.5 21.5t13.5 8.5q18 0 18 -30q0 -37 -16.5 -64t-46.5 -42q85 -42 134 -127.5z
M535.5 70q66.5 40 103.5 113t37 167t-37 167t-103.5 113t-151.5 40t-151.5 -40t-103.5 -113t-37 -167t37 -167t103.5 -113t151.5 -40t151.5 40zM242 799q0 8 3 18q8 31 30 46t49 15q15 0 31 -7.5t42 -23.5q23 -14 35.5 -20t23.5 -6q15 0 24.5 12t12.5 33q1 8 5.5 13t12.5 5
q16 0 16 -19q0 -3 -2 -15q-15 -65 -77 -65q-13 0 -28 7t-39 22q-26 14 -38 20t-23 6q-32 0 -45 -44q-4 -14 -18 -14q-15 0 -15 17z" />
    <glyph glyph-name="Ohungarumlaut" unicode="&#x150;" horiz-adv-x="768" 
d="M675.5 163q-42.5 -82 -118.5 -127.5t-173 -45.5t-173 45.5t-118.5 127.5t-42.5 187t42.5 187t118.5 127.5t173 45.5t173 -45.5t118.5 -127.5t42.5 -187t-42.5 -187zM639 517q-37 73 -103.5 113t-151.5 40t-151.5 -40t-103.5 -113t-37 -167t37 -167t103.5 -113t151.5 -40
t151.5 40t103.5 113t37 167t-37 167zM274 736.5q-3 3.5 -3 8.5t5 13l62 93q9 16 26 16q11 0 18.5 -6.5t7.5 -18.5q0 -8 -7 -17l-75 -77q-15 -15 -26 -15q-5 0 -8 3.5zM422 736.5q-3 3.5 -3 8.5t5 13l62 93q9 16 26 16q11 0 18.5 -6.5t7.5 -18.5q0 -8 -7 -17l-75 -77
q-15 -15 -26 -15q-5 0 -8 3.5z" />
    <glyph glyph-name="uni020E" unicode="&#x20e;" horiz-adv-x="768" 
d="M675.5 163q-42.5 -82 -118.5 -127.5t-173 -45.5t-173 45.5t-118.5 127.5t-42.5 187t42.5 187t118.5 127.5t173 45.5t173 -45.5t118.5 -127.5t42.5 -187t-42.5 -187zM639 517q-37 73 -103.5 113t-151.5 40t-151.5 -40t-103.5 -113t-37 -167t37 -167t103.5 -113t151.5 -40
t151.5 40t103.5 113t37 167t-37 167zM442.5 830q27.5 -14 44 -37t16.5 -49q0 -7 -5.5 -12.5t-13.5 -5.5q-18 0 -21 20q-5 28 -27.5 44t-53.5 16t-54 -16t-27 -44q-2 -20 -21 -20q-8 0 -13.5 5.5t-5.5 12.5q0 26 16.5 49t44 37t60.5 14t60.5 -14z" />
    <glyph glyph-name="Omacron" unicode="&#x14c;" horiz-adv-x="768" 
d="M675.5 163q-42.5 -82 -118.5 -127.5t-173 -45.5t-173 45.5t-118.5 127.5t-42.5 187t42.5 187t118.5 127.5t173 45.5t173 -45.5t118.5 -127.5t42.5 -187t-42.5 -187zM639 517q-37 73 -103.5 113t-151.5 40t-151.5 -40t-103.5 -113t-37 -167t37 -167t103.5 -113t151.5 -40
t151.5 40t103.5 113t37 167t-37 167zM236 818q0 20 22 20h260q22 0 22 -20q0 -18 -22 -18h-260q-22 0 -22 18z" />
    <glyph glyph-name="uni1E52" unicode="&#x1e52;" horiz-adv-x="768" 
d="M675.5 163q-42.5 -82 -118.5 -127.5t-173 -45.5t-173 45.5t-118.5 127.5t-42.5 187t42.5 187t118.5 127.5t173 45.5t173 -45.5t118.5 -127.5t42.5 -187t-42.5 -187zM639 517q-37 73 -103.5 113t-151.5 40t-151.5 -40t-103.5 -113t-37 -167t37 -167t103.5 -113t151.5 -40
t151.5 40t103.5 113t37 167t-37 167zM236 818q0 20 22 20h260q22 0 22 -20q0 -18 -22 -18h-260q-22 0 -22 18zM379 900.5q-3 3.5 -3 8.5q0 8 9 15l90 67q10 8 22 8q11 0 17 -7t6 -17q0 -16 -14 -24l-97 -47q-14 -7 -21 -7q-6 0 -9 3.5z" />
    <glyph glyph-name="uni1E50" unicode="&#x1e50;" horiz-adv-x="768" 
d="M675.5 163q-42.5 -82 -118.5 -127.5t-173 -45.5t-173 45.5t-118.5 127.5t-42.5 187t42.5 187t118.5 127.5t173 45.5t173 -45.5t118.5 -127.5t42.5 -187t-42.5 -187zM639 517q-37 73 -103.5 113t-151.5 40t-151.5 -40t-103.5 -113t-37 -167t37 -167t103.5 -113t151.5 -40
t151.5 40t103.5 113t37 167t-37 167zM236 818q0 20 22 20h260q22 0 22 -20q0 -18 -22 -18h-260q-22 0 -22 18zM363 904l-97 47q-14 8 -14 24q0 10 6 17t17 7q12 0 22 -8l90 -67q9 -7 9 -15q0 -5 -3 -8.5t-9 -3.5q-7 0 -21 7z" />
    <glyph glyph-name="uni01EA" unicode="&#x1ea;" horiz-adv-x="768" 
d="M396 -38.5q-17 -21.5 -17 -46.5q0 -29 16.5 -46t38.5 -17q12 0 18 1t9 6q8 10 13.5 14.5t12.5 4.5q6 0 10 -4t4 -10q0 -20 -20.5 -34.5t-51.5 -14.5q-35 0 -61.5 26t-26.5 66q0 50 38 83q-96 1 -170.5 47t-116.5 127.5t-42 185.5q0 105 42.5 187t118.5 127.5t173 45.5
t173 -45.5t118.5 -127.5t42.5 -187q0 -95 -35.5 -171.5t-99 -124.5t-146.5 -60q-24 -11 -41 -32.5zM129 183q37 -73 103.5 -113t151.5 -40t151.5 40t103.5 113t37 167t-37 167t-103.5 113t-151.5 40t-151.5 -40t-103.5 -113t-37 -167t37 -167z" />
    <glyph glyph-name="Oslash" unicode="&#xd8;" horiz-adv-x="721" 
d="M690.5 503.5q27.5 -69.5 27.5 -153.5q0 -105 -42.5 -187t-118.5 -127.5t-173 -45.5q-67 0 -124.5 22t-101.5 64l-67 -80q-6 -8 -11 -12t-14 -4q-7 0 -12 5t-5 12q0 6 5 13l78 94q-40 47 -61 110t-21 136q0 105 42.5 187t118.5 127.5t173 45.5q114 0 200 -64l50 61
q6 7 10 9t12 2q6 0 11.5 -4.5t5.5 -11.5q0 -8 -6 -15l-54 -65q50 -49 77.5 -118.5zM159 136l398 479q-74 55 -173 55q-85 0 -151.5 -40t-103.5 -113t-37 -167q0 -128 67 -214zM535.5 70q66.5 40 103.5 113t37 167q0 74 -23.5 136t-66.5 104l-402 -482q39 -38 90 -58t110 -20
q85 0 151.5 40z" />
    <glyph glyph-name="Oslashacute" unicode="&#x1fe;" horiz-adv-x="721" 
d="M690.5 503.5q27.5 -69.5 27.5 -153.5q0 -105 -42.5 -187t-118.5 -127.5t-173 -45.5q-67 0 -124.5 22t-101.5 64l-67 -80q-6 -8 -11 -12t-14 -4q-7 0 -12 5t-5 12q0 6 5 13l78 94q-40 47 -61 110t-21 136q0 105 42.5 187t118.5 127.5t173 45.5q114 0 200 -64l50 61
q6 7 10 9t12 2q6 0 11.5 -4.5t5.5 -11.5q0 -8 -6 -15l-54 -65q50 -49 77.5 -118.5zM159 136l398 479q-74 55 -173 55q-85 0 -151.5 -40t-103.5 -113t-37 -167q0 -128 67 -214zM535.5 70q66.5 40 103.5 113t37 167q0 74 -23.5 136t-66.5 104l-402 -482q39 -38 90 -58t110 -20
q85 0 151.5 40zM356 751.5q-3 3.5 -3 8.5q0 8 9 15l90 67q10 8 22 8q11 0 17 -7t6 -17q0 -16 -14 -24l-97 -47q-14 -7 -21 -7q-6 0 -9 3.5z" />
    <glyph glyph-name="Otilde" unicode="&#xd5;" horiz-adv-x="768" 
d="M675.5 163q-42.5 -82 -118.5 -127.5t-173 -45.5t-173 45.5t-118.5 127.5t-42.5 187t42.5 187t118.5 127.5t173 45.5t173 -45.5t118.5 -127.5t42.5 -187t-42.5 -187zM639 517q-37 73 -103.5 113t-151.5 40t-151.5 -40t-103.5 -113t-37 -167t37 -167t103.5 -113t151.5 -40
t151.5 40t103.5 113t37 167t-37 167zM242 799q0 8 3 18q8 31 30 46t49 15q15 0 31 -7.5t42 -23.5q23 -14 35.5 -20t23.5 -6q15 0 24.5 12t12.5 33q1 8 5.5 13t12.5 5q16 0 16 -19q0 -3 -2 -15q-15 -65 -77 -65q-13 0 -28 7t-39 22q-26 14 -38 20t-23 6q-32 0 -45 -44
q-4 -14 -18 -14q-15 0 -15 17z" />
    <glyph glyph-name="uni1E4C" unicode="&#x1e4c;" horiz-adv-x="768" 
d="M675.5 163q-42.5 -82 -118.5 -127.5t-173 -45.5t-173 45.5t-118.5 127.5t-42.5 187t42.5 187t118.5 127.5t173 45.5t173 -45.5t118.5 -127.5t42.5 -187t-42.5 -187zM639 517q-37 73 -103.5 113t-151.5 40t-151.5 -40t-103.5 -113t-37 -167t37 -167t103.5 -113t151.5 -40
t151.5 40t103.5 113t37 167t-37 167zM242 799q0 8 3 18q8 31 30 46t49 15q15 0 31 -7.5t42 -23.5q23 -14 35.5 -20t23.5 -6q15 0 24.5 12t12.5 33q1 8 5.5 13t12.5 5q16 0 16 -19q0 -3 -2 -15q-15 -65 -77 -65q-13 0 -28 7t-39 22q-26 14 -38 20t-23 6q-32 0 -45 -44
q-4 -14 -18 -14q-15 0 -15 17zM379 935.5q-3 3.5 -3 8.5q0 8 9 15l90 67q10 8 22 8q11 0 17 -7t6 -17q0 -16 -14 -24l-97 -47q-14 -7 -21 -7q-6 0 -9 3.5z" />
    <glyph glyph-name="uni1E4E" unicode="&#x1e4e;" horiz-adv-x="768" 
d="M675.5 163q-42.5 -82 -118.5 -127.5t-173 -45.5t-173 45.5t-118.5 127.5t-42.5 187t42.5 187t118.5 127.5t173 45.5t173 -45.5t118.5 -127.5t42.5 -187t-42.5 -187zM639 517q-37 73 -103.5 113t-151.5 40t-151.5 -40t-103.5 -113t-37 -167t37 -167t103.5 -113t151.5 -40
t151.5 40t103.5 113t37 167t-37 167zM242 799q0 8 3 18q8 31 30 46t49 15q15 0 31 -7.5t42 -23.5q23 -14 35.5 -20t23.5 -6q15 0 24.5 12t12.5 33q1 8 5.5 13t12.5 5q16 0 16 -19q0 -3 -2 -15q-15 -65 -77 -65q-13 0 -28 7t-39 22q-26 14 -38 20t-23 6q-32 0 -45 -44
q-4 -14 -18 -14q-15 0 -15 17zM277.5 974q-9.5 10 -9.5 26v8q0 16 10 26t26 10q14 0 23.5 -10t9.5 -26v-8q0 -16 -9.5 -26t-24.5 -10q-16 0 -25.5 10zM440.5 974q-9.5 10 -9.5 26v8q0 16 10 26t26 10q14 0 23.5 -10t9.5 -26v-8q0 -16 -9.5 -26t-24.5 -10q-16 0 -25.5 10z
" />
    <glyph glyph-name="uni022C" unicode="&#x22c;" horiz-adv-x="768" 
d="M675.5 163q-42.5 -82 -118.5 -127.5t-173 -45.5t-173 45.5t-118.5 127.5t-42.5 187t42.5 187t118.5 127.5t173 45.5t173 -45.5t118.5 -127.5t42.5 -187t-42.5 -187zM639 517q-37 73 -103.5 113t-151.5 40t-151.5 -40t-103.5 -113t-37 -167t37 -167t103.5 -113t151.5 -40
t151.5 40t103.5 113t37 167t-37 167zM242 799q0 8 3 18q8 31 30 46t49 15q15 0 31 -7.5t42 -23.5q23 -14 35.5 -20t23.5 -6q15 0 24.5 12t12.5 33q1 8 5.5 13t12.5 5q16 0 16 -19q0 -3 -2 -15q-15 -65 -77 -65q-13 0 -28 7t-39 22q-26 14 -38 20t-23 6q-32 0 -45 -44
q-4 -14 -18 -14q-15 0 -15 17zM236 1002q0 20 22 20h260q22 0 22 -20q0 -18 -22 -18h-260q-22 0 -22 18z" />
    <glyph glyph-name="OE" unicode="&#x152;" horiz-adv-x="998" 
d="M942 34q6 -6 6 -14q0 -9 -6 -14.5t-14 -5.5h-588q-97 0 -162 46.5t-96.5 125.5t-31.5 178q0 95 31.5 174.5t97 127.5t161.5 48h588q8 0 14 -6t6 -14q0 -9 -6 -14.5t-14 -5.5h-347v-274h302q8 0 14 -6t6 -14q0 -9 -6 -14.5t-14 -5.5h-302v-306h347q8 0 14 -6zM154.5 126
q64.5 -86 195.5 -86h190v620h-190q-88 0 -146 -42t-86 -112.5t-28 -155.5q0 -138 64.5 -224z" />
    <glyph glyph-name="P" unicode="P" horiz-adv-x="594" 
d="M497 647q52 -53 52 -138q0 -56 -23.5 -101.5t-66.5 -71t-99 -25.5h-218v-291q0 -8 -6.5 -14t-14.5 -6q-9 0 -15 6t-6 14v660q0 8 6 14t14 6h240q85 0 137 -53zM467 395.5q40 44.5 40 113.5t-39.5 110t-107.5 41h-218v-309h218q67 0 107 44.5z" />
    <glyph glyph-name="Thorn" unicode="&#xde;" horiz-adv-x="583" 
d="M486 534q52 -53 52 -138q0 -56 -23.5 -101.5t-66.5 -71t-99 -25.5h-209v-178q0 -8 -6 -14t-14 -6q-9 0 -14.5 6t-5.5 14v700q0 8 6 14t14 6q9 0 14.5 -6t5.5 -14v-133h209q85 0 137 -53zM456 282.5q40 44.5 40 113.5t-39.5 110t-107.5 41h-209v-309h209q67 0 107 44.5z
" />
    <glyph glyph-name="Q" unicode="Q" horiz-adv-x="782" 
d="M792.5 -69.5q4.5 -4.5 4.5 -12.5q0 -19 -28 -38.5t-69.5 -32t-78.5 -12.5q-55 0 -93 12t-87 36q-41 21 -71 31t-69 10q-14 0 -25.5 -3.5t-27.5 -10.5q-18 -8 -24 -8q-8 0 -14 6t-6 15q0 12 11 17l146 51q-91 5 -161.5 52t-110 126.5t-39.5 180.5q0 105 42.5 187
t118.5 127.5t173 45.5t173 -45.5t118.5 -127.5t42.5 -187q0 -90 -31.5 -163t-89 -122t-132.5 -66l-123 -40q31 -3 57.5 -13t63.5 -28q48 -23 81 -34t77 -11q37 0 63.5 9.5t51.5 23.5q8 4 19 15q6 6 12.5 10t12.5 4q8 0 12.5 -4.5zM129 183q37 -73 103.5 -113t151.5 -40
t151.5 40t103.5 113t37 167t-37 167t-103.5 113t-151.5 40t-151.5 -40t-103.5 -113t-37 -167t37 -167z" />
    <glyph glyph-name="R" unicode="R" horiz-adv-x="664" 
d="M609 21q0 -9 -5.5 -14.5t-13.5 -5.5q-6 0 -9 2q-27 15 -43 50.5t-16 116.5q0 82 -44 112.5t-102 30.5h-234v-293q0 -8 -6 -14t-15 -6t-15 6t-6 14v660q0 8 6 14t14 6h264q58 0 103 -23.5t70 -64.5t25 -93q0 -67 -35.5 -115t-92.5 -65q48 -15 79 -59.5t31 -109.5
q0 -67 8.5 -93.5t25.5 -37.5q11 -7 11 -18zM389 353q63 6 107 50t44 115q0 62 -44 102t-117 40h-237v-307h247z" />
    <glyph glyph-name="Racute" unicode="&#x154;" horiz-adv-x="664" 
d="M609 21q0 -9 -5.5 -14.5t-13.5 -5.5q-6 0 -9 2q-27 15 -43 50.5t-16 116.5q0 82 -44 112.5t-102 30.5h-234v-293q0 -8 -6 -14t-15 -6t-15 6t-6 14v660q0 8 6 14t14 6h264q58 0 103 -23.5t70 -64.5t25 -93q0 -67 -35.5 -115t-92.5 -65q48 -15 79 -59.5t31 -109.5
q0 -67 8.5 -93.5t25.5 -37.5q11 -7 11 -18zM389 353q63 6 107 50t44 115q0 62 -44 102t-117 40h-237v-307h247zM322 751.5q-3 3.5 -3 8.5q0 8 9 15l90 67q10 8 22 8q11 0 17 -7t6 -17q0 -16 -14 -24l-97 -47q-14 -7 -21 -7q-6 0 -9 3.5z" />
    <glyph glyph-name="Rcaron" unicode="&#x158;" horiz-adv-x="664" 
d="M609 21q0 -9 -5.5 -14.5t-13.5 -5.5q-6 0 -9 2q-27 15 -43 50.5t-16 116.5q0 82 -44 112.5t-102 30.5h-234v-293q0 -8 -6 -14t-15 -6t-15 6t-6 14v660q0 8 6 14t14 6h264q58 0 103 -23.5t70 -64.5t25 -93q0 -67 -35.5 -115t-92.5 -65q48 -15 79 -59.5t31 -109.5
q0 -67 8.5 -93.5t25.5 -37.5q11 -7 11 -18zM389 353q63 6 107 50t44 115q0 62 -44 102t-117 40h-237v-307h247zM438.5 877.5q3.5 -3.5 3.5 -8.5q0 -6 -6 -12l-81 -86q-8 -12 -24 -12h-10q-16 0 -24 12l-81 85q-6 6 -6 12q0 5 3.5 8.5t8.5 3.5q7 0 19 -10l88 -68l82 69
q12 10 19 10q5 0 8.5 -3.5z" />
    <glyph glyph-name="Rcommaaccent" unicode="&#x156;" horiz-adv-x="664" 
d="M609 21q0 -9 -5.5 -14.5t-13.5 -5.5q-6 0 -9 2q-27 15 -43 50.5t-16 116.5q0 82 -44 112.5t-102 30.5h-234v-293q0 -8 -6 -14t-15 -6t-15 6t-6 14v660q0 8 6 14t14 6h264q58 0 103 -23.5t70 -64.5t25 -93q0 -67 -35.5 -115t-92.5 -65q48 -15 79 -59.5t31 -109.5
q0 -67 8.5 -93.5t25.5 -37.5q11 -7 11 -18zM389 353q63 6 107 50t44 115q0 62 -44 102t-117 40h-237v-307h247zM357 -158q-21 -20 -48 -20q-30 0 -30 16q0 7 3.5 12t9.5 5q3 0 8.5 -1.5t10.5 -1.5q6 0 10 1q17 3 17 33q0 12 -10 12q-4 0 -10 -4t-11 -4q-10 -1 -16.5 7
t-6.5 16q0 15 12.5 24.5t34.5 9.5q21 0 34 -14t13 -41q0 -30 -21 -50z" />
    <glyph glyph-name="uni0210" unicode="&#x210;" horiz-adv-x="664" 
d="M609 21q0 -9 -5.5 -14.5t-13.5 -5.5q-6 0 -9 2q-27 15 -43 50.5t-16 116.5q0 82 -44 112.5t-102 30.5h-234v-293q0 -8 -6 -14t-15 -6t-15 6t-6 14v660q0 8 6 14t14 6h264q58 0 103 -23.5t70 -64.5t25 -93q0 -67 -35.5 -115t-92.5 -65q48 -15 79 -59.5t31 -109.5
q0 -67 8.5 -93.5t25.5 -37.5q11 -7 11 -18zM389 353q63 6 107 50t44 115q0 62 -44 102t-117 40h-237v-307h247zM274 763l-97 47q-14 8 -14 24q0 10 6 17t17 7q12 0 22 -8l90 -67q9 -7 9 -15q0 -5 -3 -8.5t-9 -3.5q-7 0 -21 7zM429 759l-97 47q-14 8 -14 24q0 10 6 17t17 7
q12 0 22 -8l90 -67q9 -7 9 -15q0 -5 -3 -8.5t-9 -3.5q-7 0 -21 7z" />
    <glyph glyph-name="uni1E5A" unicode="&#x1e5a;" horiz-adv-x="664" 
d="M609 21q0 -9 -5.5 -14.5t-13.5 -5.5q-6 0 -9 2q-27 15 -43 50.5t-16 116.5q0 82 -44 112.5t-102 30.5h-234v-293q0 -8 -6 -14t-15 -6t-15 6t-6 14v660q0 8 6 14t14 6h264q58 0 103 -23.5t70 -64.5t25 -93q0 -67 -35.5 -115t-92.5 -65q48 -15 79 -59.5t31 -109.5
q0 -67 8.5 -93.5t25.5 -37.5q11 -7 11 -18zM389 353q63 6 107 50t44 115q0 62 -44 102t-117 40h-237v-307h247zM301.5 -127q-9.5 10 -9.5 26v8q0 16 10 26t26 10q14 0 23.5 -10t9.5 -26v-8q0 -16 -9.5 -26t-24.5 -10q-16 0 -25.5 10z" />
    <glyph glyph-name="uni0212" unicode="&#x212;" horiz-adv-x="664" 
d="M609 21q0 -9 -5.5 -14.5t-13.5 -5.5q-6 0 -9 2q-27 15 -43 50.5t-16 116.5q0 82 -44 112.5t-102 30.5h-234v-293q0 -8 -6 -14t-15 -6t-15 6t-6 14v660q0 8 6 14t14 6h264q58 0 103 -23.5t70 -64.5t25 -93q0 -67 -35.5 -115t-92.5 -65q48 -15 79 -59.5t31 -109.5
q0 -67 8.5 -93.5t25.5 -37.5q11 -7 11 -18zM389 353q63 6 107 50t44 115q0 62 -44 102t-117 40h-237v-307h247zM385.5 830q27.5 -14 44 -37t16.5 -49q0 -7 -5.5 -12.5t-13.5 -5.5q-18 0 -21 20q-5 28 -27.5 44t-53.5 16t-54 -16t-27 -44q-2 -20 -21 -20q-8 0 -13.5 5.5
t-5.5 12.5q0 26 16.5 49t44 37t60.5 14t60.5 -14z" />
    <glyph glyph-name="uni1E5E" unicode="&#x1e5e;" horiz-adv-x="664" 
d="M609 21q0 -9 -5.5 -14.5t-13.5 -5.5q-6 0 -9 2q-27 15 -43 50.5t-16 116.5q0 82 -44 112.5t-102 30.5h-234v-293q0 -8 -6 -14t-15 -6t-15 6t-6 14v660q0 8 6 14t14 6h264q58 0 103 -23.5t70 -64.5t25 -93q0 -67 -35.5 -115t-92.5 -65q48 -15 79 -59.5t31 -109.5
q0 -67 8.5 -93.5t25.5 -37.5q11 -7 11 -18zM389 353q63 6 107 50t44 115q0 62 -44 102t-117 40h-237v-307h247zM212 -99q0 19 20 19h200q20 0 20 -19q0 -18 -20 -18h-200q-20 0 -20 18z" />
    <glyph glyph-name="S" unicode="S" horiz-adv-x="550" 
d="M150 15.5q-55 25.5 -109 79.5q-6 6 -6 15q0 8 7 15.5t15 7.5q9 0 17 -9q39 -46 92.5 -70t112.5 -24q77 0 127 37t50 98q-1 48 -26 79t-61.5 49.5t-99.5 41.5q-69 26 -107.5 46t-66 57t-27.5 97q0 49 27 89t77 63t116 23q59 0 112 -21.5t84 -60.5q10 -14 10 -21
q0 -8 -7.5 -14.5t-16.5 -6.5q-8 0 -13 6q-28 36 -72 57t-97 21q-76 0 -126.5 -36t-50.5 -98q0 -43 24.5 -73t61.5 -48.5t92 -38.5q70 -25 111 -46t70 -61t29 -106q0 -46 -27 -86t-77.5 -63.5t-115.5 -23.5q-74 0 -129 25.5z" />
    <glyph glyph-name="Sacute" unicode="&#x15a;" horiz-adv-x="550" 
d="M150 15.5q-55 25.5 -109 79.5q-6 6 -6 15q0 8 7 15.5t15 7.5q9 0 17 -9q39 -46 92.5 -70t112.5 -24q77 0 127 37t50 98q-1 48 -26 79t-61.5 49.5t-99.5 41.5q-69 26 -107.5 46t-66 57t-27.5 97q0 49 27 89t77 63t116 23q59 0 112 -21.5t84 -60.5q10 -14 10 -21
q0 -8 -7.5 -14.5t-16.5 -6.5q-8 0 -13 6q-28 36 -72 57t-97 21q-76 0 -126.5 -36t-50.5 -98q0 -43 24.5 -73t61.5 -48.5t92 -38.5q70 -25 111 -46t70 -61t29 -106q0 -46 -27 -86t-77.5 -63.5t-115.5 -23.5q-74 0 -129 25.5zM270 751.5q-3 3.5 -3 8.5q0 8 9 15l90 67
q10 8 22 8q11 0 17 -7t6 -17q0 -16 -14 -24l-97 -47q-14 -7 -21 -7q-6 0 -9 3.5z" />
    <glyph glyph-name="uni1E64" unicode="&#x1e64;" horiz-adv-x="550" 
d="M150 15.5q-55 25.5 -109 79.5q-6 6 -6 15q0 8 7 15.5t15 7.5q9 0 17 -9q39 -46 92.5 -70t112.5 -24q77 0 127 37t50 98q-1 48 -26 79t-61.5 49.5t-99.5 41.5q-69 26 -107.5 46t-66 57t-27.5 97q0 49 27 89t77 63t116 23q59 0 112 -21.5t84 -60.5q10 -14 10 -21
q0 -8 -7.5 -14.5t-16.5 -6.5q-8 0 -13 6q-28 36 -72 57t-97 21q-76 0 -126.5 -36t-50.5 -98q0 -43 24.5 -73t61.5 -48.5t92 -38.5q70 -25 111 -46t70 -61t29 -106q0 -46 -27 -86t-77.5 -63.5t-115.5 -23.5q-74 0 -129 25.5zM270 751.5q-3 3.5 -3 8.5q0 8 9 15l90 67
q10 8 22 8q11 0 17 -7t6 -17q0 -16 -14 -24l-97 -47q-14 -7 -21 -7q-6 0 -9 3.5zM292.5 936q-9.5 10 -9.5 26v8q0 16 10 26t26 10q14 0 23.5 -10t9.5 -26v-8q0 -16 -9.5 -26t-24.5 -10q-16 0 -25.5 10z" />
    <glyph glyph-name="Scaron" unicode="&#x160;" horiz-adv-x="550" 
d="M150 15.5q-55 25.5 -109 79.5q-6 6 -6 15q0 8 7 15.5t15 7.5q9 0 17 -9q39 -46 92.5 -70t112.5 -24q77 0 127 37t50 98q-1 48 -26 79t-61.5 49.5t-99.5 41.5q-69 26 -107.5 46t-66 57t-27.5 97q0 49 27 89t77 63t116 23q59 0 112 -21.5t84 -60.5q10 -14 10 -21
q0 -8 -7.5 -14.5t-16.5 -6.5q-8 0 -13 6q-28 36 -72 57t-97 21q-76 0 -126.5 -36t-50.5 -98q0 -43 24.5 -73t61.5 -48.5t92 -38.5q70 -25 111 -46t70 -61t29 -106q0 -46 -27 -86t-77.5 -63.5t-115.5 -23.5q-74 0 -129 25.5zM386.5 877.5q3.5 -3.5 3.5 -8.5q0 -6 -6 -12
l-81 -86q-8 -12 -24 -12h-10q-16 0 -24 12l-81 85q-6 6 -6 12q0 5 3.5 8.5t8.5 3.5q7 0 19 -10l88 -68l82 69q12 10 19 10q5 0 8.5 -3.5z" />
    <glyph glyph-name="uni1E66" unicode="&#x1e66;" horiz-adv-x="550" 
d="M150 15.5q-55 25.5 -109 79.5q-6 6 -6 15q0 8 7 15.5t15 7.5q9 0 17 -9q39 -46 92.5 -70t112.5 -24q77 0 127 37t50 98q-1 48 -26 79t-61.5 49.5t-99.5 41.5q-69 26 -107.5 46t-66 57t-27.5 97q0 49 27 89t77 63t116 23q59 0 112 -21.5t84 -60.5q10 -14 10 -21
q0 -8 -7.5 -14.5t-16.5 -6.5q-8 0 -13 6q-28 36 -72 57t-97 21q-76 0 -126.5 -36t-50.5 -98q0 -43 24.5 -73t61.5 -48.5t92 -38.5q70 -25 111 -46t70 -61t29 -106q0 -46 -27 -86t-77.5 -63.5t-115.5 -23.5q-74 0 -129 25.5zM386.5 877.5q3.5 -3.5 3.5 -8.5q0 -6 -6 -12
l-81 -86q-8 -12 -24 -12h-10q-16 0 -24 12l-81 85q-6 6 -6 12q0 5 3.5 8.5t8.5 3.5q7 0 19 -10l88 -68l82 69q12 10 19 10q5 0 8.5 -3.5zM249.5 950q-9.5 10 -9.5 26v8q0 16 10 26t26 10q14 0 23.5 -10t9.5 -26v-8q0 -16 -9.5 -26t-24.5 -10q-16 0 -25.5 10z" />
    <glyph glyph-name="Scedilla" unicode="&#x15e;" horiz-adv-x="550" 
d="M472.5 77.5q-26.5 -39.5 -76 -63.5t-113.5 -24l-57 -116q-7 -15 -21 -15q-10 0 -22.5 8.5t-12.5 18.5q0 9 5 14l75 91q-62 5 -111.5 30.5t-97.5 73.5q-6 6 -6 15q0 8 7 15.5t15 7.5q9 0 17 -9q39 -46 92.5 -70t112.5 -24q77 0 127 37t50 98q-1 48 -26 79t-61.5 49.5
t-99.5 41.5q-69 26 -107.5 46t-66 57t-27.5 97q0 49 27 89t77 63t116 23q59 0 112 -21.5t84 -60.5q10 -14 10 -21q0 -8 -7.5 -14.5t-16.5 -6.5q-8 0 -13 6q-28 36 -72 57t-97 21q-76 0 -126.5 -36t-50.5 -98q0 -43 24.5 -73t61.5 -48.5t92 -38.5q70 -25 111 -46t70 -61
t29 -106q0 -46 -26.5 -85.5z" />
    <glyph glyph-name="Scircumflex" unicode="&#x15c;" horiz-adv-x="550" 
d="M150 15.5q-55 25.5 -109 79.5q-6 6 -6 15q0 8 7 15.5t15 7.5q9 0 17 -9q39 -46 92.5 -70t112.5 -24q77 0 127 37t50 98q-1 48 -26 79t-61.5 49.5t-99.5 41.5q-69 26 -107.5 46t-66 57t-27.5 97q0 49 27 89t77 63t116 23q59 0 112 -21.5t84 -60.5q10 -14 10 -21
q0 -8 -7.5 -14.5t-16.5 -6.5q-8 0 -13 6q-28 36 -72 57t-97 21q-76 0 -126.5 -36t-50.5 -98q0 -43 24.5 -73t61.5 -48.5t92 -38.5q70 -25 111 -46t70 -61t29 -106q0 -46 -27 -86t-77.5 -63.5t-115.5 -23.5q-74 0 -129 25.5zM390 781q0 -5 -3.5 -8.5t-8.5 -3.5q-7 0 -19 10
l-88 68l-82 -69q-12 -10 -19 -10q-5 0 -8.5 3.5t-3.5 8.5q0 6 6 12l81 86q7 7 11.5 9.5t12.5 2.5h10q8 0 12.5 -2.5t11.5 -9.5l81 -85q6 -6 6 -12z" />
    <glyph glyph-name="Scommaaccent" unicode="&#x218;" horiz-adv-x="550" 
d="M150 15.5q-55 25.5 -109 79.5q-6 6 -6 15q0 8 7 15.5t15 7.5q9 0 17 -9q39 -46 92.5 -70t112.5 -24q77 0 127 37t50 98q-1 48 -26 79t-61.5 49.5t-99.5 41.5q-69 26 -107.5 46t-66 57t-27.5 97q0 49 27 89t77 63t116 23q59 0 112 -21.5t84 -60.5q10 -14 10 -21
q0 -8 -7.5 -14.5t-16.5 -6.5q-8 0 -13 6q-28 36 -72 57t-97 21q-76 0 -126.5 -36t-50.5 -98q0 -43 24.5 -73t61.5 -48.5t92 -38.5q70 -25 111 -46t70 -61t29 -106q0 -46 -27 -86t-77.5 -63.5t-115.5 -23.5q-74 0 -129 25.5zM305 -158q-21 -20 -48 -20q-30 0 -30 16
q0 7 3.5 12t9.5 5q3 0 8.5 -1.5t10.5 -1.5q6 0 10 1q17 3 17 33q0 12 -10 12q-4 0 -10 -4t-11 -4q-10 -1 -16.5 7t-6.5 16q0 15 12.5 24.5t34.5 9.5q21 0 34 -14t13 -41q0 -30 -21 -50z" />
    <glyph glyph-name="uni1E60" unicode="&#x1e60;" horiz-adv-x="550" 
d="M150 15.5q-55 25.5 -109 79.5q-6 6 -6 15q0 8 7 15.5t15 7.5q9 0 17 -9q39 -46 92.5 -70t112.5 -24q77 0 127 37t50 98q-1 48 -26 79t-61.5 49.5t-99.5 41.5q-69 26 -107.5 46t-66 57t-27.5 97q0 49 27 89t77 63t116 23q59 0 112 -21.5t84 -60.5q10 -14 10 -21
q0 -8 -7.5 -14.5t-16.5 -6.5q-8 0 -13 6q-28 36 -72 57t-97 21q-76 0 -126.5 -36t-50.5 -98q0 -43 24.5 -73t61.5 -48.5t92 -38.5q70 -25 111 -46t70 -61t29 -106q0 -46 -27 -86t-77.5 -63.5t-115.5 -23.5q-74 0 -129 25.5zM249.5 790q-9.5 10 -9.5 26v8q0 16 10 26t26 10
q14 0 23.5 -10t9.5 -26v-8q0 -16 -9.5 -26t-24.5 -10q-16 0 -25.5 10z" />
    <glyph glyph-name="uni1E62" unicode="&#x1e62;" horiz-adv-x="550" 
d="M150 15.5q-55 25.5 -109 79.5q-6 6 -6 15q0 8 7 15.5t15 7.5q9 0 17 -9q39 -46 92.5 -70t112.5 -24q77 0 127 37t50 98q-1 48 -26 79t-61.5 49.5t-99.5 41.5q-69 26 -107.5 46t-66 57t-27.5 97q0 49 27 89t77 63t116 23q59 0 112 -21.5t84 -60.5q10 -14 10 -21
q0 -8 -7.5 -14.5t-16.5 -6.5q-8 0 -13 6q-28 36 -72 57t-97 21q-76 0 -126.5 -36t-50.5 -98q0 -43 24.5 -73t61.5 -48.5t92 -38.5q70 -25 111 -46t70 -61t29 -106q0 -46 -27 -86t-77.5 -63.5t-115.5 -23.5q-74 0 -129 25.5zM249.5 -127q-9.5 10 -9.5 26v8q0 16 10 26t26 10
q14 0 23.5 -10t9.5 -26v-8q0 -16 -9.5 -26t-24.5 -10q-16 0 -25.5 10z" />
    <glyph glyph-name="uni1E68" unicode="&#x1e68;" horiz-adv-x="550" 
d="M150 15.5q-55 25.5 -109 79.5q-6 6 -6 15q0 8 7 15.5t15 7.5q9 0 17 -9q39 -46 92.5 -70t112.5 -24q77 0 127 37t50 98q-1 48 -26 79t-61.5 49.5t-99.5 41.5q-69 26 -107.5 46t-66 57t-27.5 97q0 49 27 89t77 63t116 23q59 0 112 -21.5t84 -60.5q10 -14 10 -21
q0 -8 -7.5 -14.5t-16.5 -6.5q-8 0 -13 6q-28 36 -72 57t-97 21q-76 0 -126.5 -36t-50.5 -98q0 -43 24.5 -73t61.5 -48.5t92 -38.5q70 -25 111 -46t70 -61t29 -106q0 -46 -27 -86t-77.5 -63.5t-115.5 -23.5q-74 0 -129 25.5zM249.5 -127q-9.5 10 -9.5 26v8q0 16 10 26t26 10
q14 0 23.5 -10t9.5 -26v-8q0 -16 -9.5 -26t-24.5 -10q-16 0 -25.5 10zM249.5 790q-9.5 10 -9.5 26v8q0 16 10 26t26 10q14 0 23.5 -10t9.5 -26v-8q0 -16 -9.5 -26t-24.5 -10q-16 0 -25.5 10z" />
    <glyph glyph-name="uni1E9E" unicode="&#x1e9e;" horiz-adv-x="692" 
d="M573 313.5q28 -21.5 48 -58.5t20 -92q0 -46 -23.5 -86t-66.5 -63.5t-99 -23.5q-51 0 -88 21t-71 64q-7 11 -7 17q0 8 7.5 14.5t15.5 6.5q11 0 17 -9q25 -35 57.5 -54.5t67.5 -19.5q39 0 72.5 17t54 47.5t20.5 70.5q-2 40 -18 68.5t-39.5 47.5t-60.5 41q-45 27 -69.5 46.5
t-42.5 50.5t-18 76q0 61 50 103t141 53q-29 18 -67.5 27.5t-77.5 9.5q-137 0 -195.5 -66t-58.5 -169l-2 -429q0 -20 -20 -20t-20 20l2 429q0 72 27.5 133.5t93.5 100.5t173 39q52 0 104 -15.5t85 -40.5q10 -9 13.5 -13.5t3.5 -11.5q0 -16 -20 -19q-92 -10 -140.5 -45.5
t-48.5 -84.5q0 -34 14 -57.5t35 -39.5t57 -37q46 -27 74 -48.5z" />
    <glyph glyph-name="uni018F" unicode="&#x18f;" horiz-adv-x="753" 
d="M540 661.5q75 -48.5 119 -131t44 -180.5t-44 -180.5t-119 -131t-164 -48.5q-86 0 -160 46.5t-119 125t-47 171.5v17q0 7 6 12t14 5h589q-4 83 -44 152.5t-103.5 110t-135.5 40.5q-84 0 -144.5 -30.5t-108.5 -94.5q-6 -8 -16 -8q-6 0 -10 3q-10 6 -10 17q0 6 5 13
q54 70 123 105t161 35q89 0 164 -48.5zM511.5 69q63.5 39 103.5 107t44 151h-568q4 -81 44 -149t104 -108t137 -40q72 0 135.5 39z" />
    <glyph glyph-name="T" unicode="T" horiz-adv-x="596" 
d="M555 694.5q6 -5.5 6 -13.5q0 -9 -5.5 -14t-14.5 -5h-223v-642q0 -8 -6 -14t-14 -6q-9 0 -14.5 6t-5.5 14v642h-223q-8 0 -14 5.5t-6 13.5t6 13.5t14 5.5h486q8 0 14 -5.5z" />
    <glyph glyph-name="Tbar" unicode="&#x166;" horiz-adv-x="596" 
d="M555 694.5q6 -5.5 6 -13.5q0 -9 -5.5 -14t-14.5 -5h-223v-320h61q20 0 20 -20q0 -18 -20 -18h-61v-284q0 -8 -6 -14t-14 -6q-9 0 -14.5 6t-5.5 14v284h-59q-20 0 -20 19t20 19h59v320h-223q-8 0 -14 5.5t-6 13.5t6 13.5t14 5.5h486q8 0 14 -5.5z" />
    <glyph glyph-name="Tcaron" unicode="&#x164;" horiz-adv-x="596" 
d="M555 694.5q6 -5.5 6 -13.5q0 -9 -5.5 -14t-14.5 -5h-223v-642q0 -8 -6 -14t-14 -6q-9 0 -14.5 6t-5.5 14v642h-223q-8 0 -14 5.5t-6 13.5t6 13.5t14 5.5h486q8 0 14 -5.5zM409.5 877.5q3.5 -3.5 3.5 -8.5q0 -6 -6 -12l-81 -86q-8 -12 -24 -12h-10q-16 0 -24 12l-81 85
q-6 6 -6 12q0 5 3.5 8.5t8.5 3.5q7 0 19 -10l88 -68l82 69q12 10 19 10q5 0 8.5 -3.5z" />
    <glyph glyph-name="uni0162" unicode="&#x162;" horiz-adv-x="596" 
d="M555 694.5q6 -5.5 6 -13.5q0 -9 -5.5 -14t-14.5 -5h-223v-642q0 -5 -3 -10h1l-67 -136q-7 -15 -21 -15q-10 0 -22.5 8.5t-12.5 18.5q0 9 5 14l86 105q-6 6 -6 15v642h-223q-8 0 -14 5.5t-6 13.5t6 13.5t14 5.5h486q8 0 14 -5.5z" />
    <glyph glyph-name="uni021A" unicode="&#x21a;" horiz-adv-x="596" 
d="M555 694.5q6 -5.5 6 -13.5q0 -9 -5.5 -14t-14.5 -5h-223v-642q0 -8 -6 -14t-14 -6q-9 0 -14.5 6t-5.5 14v642h-223q-8 0 -14 5.5t-6 13.5t6 13.5t14 5.5h486q8 0 14 -5.5zM328 -158q-21 -20 -48 -20q-30 0 -30 16q0 7 3.5 12t9.5 5q3 0 8.5 -1.5t10.5 -1.5q6 0 10 1
q17 3 17 33q0 12 -10 12q-4 0 -10 -4t-11 -4q-10 -1 -16.5 7t-6.5 16q0 15 12.5 24.5t34.5 9.5q21 0 34 -14t13 -41q0 -30 -21 -50z" />
    <glyph glyph-name="uni1E6C" unicode="&#x1e6c;" horiz-adv-x="596" 
d="M555 694.5q6 -5.5 6 -13.5q0 -9 -5.5 -14t-14.5 -5h-223v-642q0 -8 -6 -14t-14 -6q-9 0 -14.5 6t-5.5 14v642h-223q-8 0 -14 5.5t-6 13.5t6 13.5t14 5.5h486q8 0 14 -5.5zM272.5 -127q-9.5 10 -9.5 26v8q0 16 10 26t26 10q14 0 23.5 -10t9.5 -26v-8q0 -16 -9.5 -26
t-24.5 -10q-16 0 -25.5 10z" />
    <glyph glyph-name="uni1E6E" unicode="&#x1e6e;" horiz-adv-x="596" 
d="M555 694.5q6 -5.5 6 -13.5q0 -9 -5.5 -14t-14.5 -5h-223v-642q0 -8 -6 -14t-14 -6q-9 0 -14.5 6t-5.5 14v642h-223q-8 0 -14 5.5t-6 13.5t6 13.5t14 5.5h486q8 0 14 -5.5zM183 -99q0 19 20 19h200q20 0 20 -19q0 -18 -20 -18h-200q-20 0 -20 18z" />
    <glyph glyph-name="U" unicode="U" horiz-adv-x="715" 
d="M609.5 694q5.5 -6 5.5 -14v-432q0 -70 -35 -129t-94 -94t-128 -35q-70 0 -129 35t-94 94t-35 129v432q0 9 6 14.5t15 5.5t15 -6t6 -14v-432q0 -59 29 -109t78.5 -79.5t108.5 -29.5t108.5 29.5t79 79.5t29.5 109v432q0 8 5.5 14t14.5 6t14.5 -6z" />
    <glyph glyph-name="Uacute" unicode="&#xda;" horiz-adv-x="715" 
d="M609.5 694q5.5 -6 5.5 -14v-432q0 -70 -35 -129t-94 -94t-128 -35q-70 0 -129 35t-94 94t-35 129v432q0 9 6 14.5t15 5.5t15 -6t6 -14v-432q0 -59 29 -109t78.5 -79.5t108.5 -29.5t108.5 29.5t79 79.5t29.5 109v432q0 8 5.5 14t14.5 6t14.5 -6zM353 751.5q-3 3.5 -3 8.5
q0 8 9 15l90 67q10 8 22 8q11 0 17 -7t6 -17q0 -16 -14 -24l-97 -47q-14 -7 -21 -7q-6 0 -9 3.5z" />
    <glyph glyph-name="Ubreve" unicode="&#x16c;" horiz-adv-x="715" 
d="M609.5 694q5.5 -6 5.5 -14v-432q0 -70 -35 -129t-94 -94t-128 -35q-70 0 -129 35t-94 94t-35 129v432q0 9 6 14.5t15 5.5t15 -6t6 -14v-432q0 -59 29 -109t78.5 -79.5t108.5 -29.5t108.5 29.5t79 79.5t29.5 109v432q0 8 5.5 14t14.5 6t14.5 -6zM274 807q-34 27 -46 76
q-1 2 -1 7q0 15 16 15q9 0 12.5 -3.5t7.5 -13.5q27 -69 95 -69q67 0 94 69q3 9 7.5 12.5t12.5 3.5q11 0 14.5 -5t1.5 -16q-12 -49 -46 -76t-84 -27t-84 27z" />
    <glyph glyph-name="uni01D3" unicode="&#x1d3;" horiz-adv-x="715" 
d="M609.5 694q5.5 -6 5.5 -14v-432q0 -70 -35 -129t-94 -94t-128 -35q-70 0 -129 35t-94 94t-35 129v432q0 9 6 14.5t15 5.5t15 -6t6 -14v-432q0 -59 29 -109t78.5 -79.5t108.5 -29.5t108.5 29.5t79 79.5t29.5 109v432q0 8 5.5 14t14.5 6t14.5 -6zM469.5 877.5
q3.5 -3.5 3.5 -8.5q0 -6 -6 -12l-81 -86q-8 -12 -24 -12h-10q-16 0 -24 12l-81 85q-6 6 -6 12q0 5 3.5 8.5t8.5 3.5q7 0 19 -10l88 -68l82 69q12 10 19 10q5 0 8.5 -3.5z" />
    <glyph glyph-name="Ucircumflex" unicode="&#xdb;" horiz-adv-x="715" 
d="M609.5 694q5.5 -6 5.5 -14v-432q0 -70 -35 -129t-94 -94t-128 -35q-70 0 -129 35t-94 94t-35 129v432q0 9 6 14.5t15 5.5t15 -6t6 -14v-432q0 -59 29 -109t78.5 -79.5t108.5 -29.5t108.5 29.5t79 79.5t29.5 109v432q0 8 5.5 14t14.5 6t14.5 -6zM473 781q0 -5 -3.5 -8.5
t-8.5 -3.5q-7 0 -19 10l-88 68l-82 -69q-12 -10 -19 -10q-5 0 -8.5 3.5t-3.5 8.5q0 6 6 12l81 86q7 7 11.5 9.5t12.5 2.5h10q8 0 12.5 -2.5t11.5 -9.5l81 -85q6 -6 6 -12z" />
    <glyph glyph-name="uni0214" unicode="&#x214;" horiz-adv-x="715" 
d="M609.5 694q5.5 -6 5.5 -14v-432q0 -70 -35 -129t-94 -94t-128 -35q-70 0 -129 35t-94 94t-35 129v432q0 9 6 14.5t15 5.5t15 -6t6 -14v-432q0 -59 29 -109t78.5 -79.5t108.5 -29.5t108.5 29.5t79 79.5t29.5 109v432q0 8 5.5 14t14.5 6t14.5 -6zM305 763l-97 47
q-14 8 -14 24q0 10 6 17t17 7q12 0 22 -8l90 -67q9 -7 9 -15q0 -5 -3 -8.5t-9 -3.5q-7 0 -21 7zM460 759l-97 47q-14 8 -14 24q0 10 6 17t17 7q12 0 22 -8l90 -67q9 -7 9 -15q0 -5 -3 -8.5t-9 -3.5q-7 0 -21 7z" />
    <glyph glyph-name="Udieresis" unicode="&#xdc;" horiz-adv-x="715" 
d="M609.5 694q5.5 -6 5.5 -14v-432q0 -70 -35 -129t-94 -94t-128 -35q-70 0 -129 35t-94 94t-35 129v432q0 9 6 14.5t15 5.5t15 -6t6 -14v-432q0 -59 29 -109t78.5 -79.5t108.5 -29.5t108.5 29.5t79 79.5t29.5 109v432q0 8 5.5 14t14.5 6t14.5 -6zM251.5 790
q-9.5 10 -9.5 26v8q0 16 10 26t26 10q14 0 23.5 -10t9.5 -26v-8q0 -16 -9.5 -26t-24.5 -10q-16 0 -25.5 10zM414.5 790q-9.5 10 -9.5 26v8q0 16 10 26t26 10q14 0 23.5 -10t9.5 -26v-8q0 -16 -9.5 -26t-24.5 -10q-16 0 -25.5 10z" />
    <glyph glyph-name="uni1EE4" unicode="&#x1ee4;" horiz-adv-x="715" 
d="M609.5 694q5.5 -6 5.5 -14v-432q0 -70 -35 -129t-94 -94t-128 -35q-70 0 -129 35t-94 94t-35 129v432q0 9 6 14.5t15 5.5t15 -6t6 -14v-432q0 -59 29 -109t78.5 -79.5t108.5 -29.5t108.5 29.5t79 79.5t29.5 109v432q0 8 5.5 14t14.5 6t14.5 -6zM332.5 -127
q-9.5 10 -9.5 26v8q0 16 10 26t26 10q14 0 23.5 -10t9.5 -26v-8q0 -16 -9.5 -26t-24.5 -10q-16 0 -25.5 10z" />
    <glyph glyph-name="Ugrave" unicode="&#xd9;" horiz-adv-x="715" 
d="M609.5 694q5.5 -6 5.5 -14v-432q0 -70 -35 -129t-94 -94t-128 -35q-70 0 -129 35t-94 94t-35 129v432q0 9 6 14.5t15 5.5t15 -6t6 -14v-432q0 -59 29 -109t78.5 -79.5t108.5 -29.5t108.5 29.5t79 79.5t29.5 109v432q0 8 5.5 14t14.5 6t14.5 -6zM337 755l-97 47
q-14 8 -14 24q0 10 6 17t17 7q12 0 22 -8l90 -67q9 -7 9 -15q0 -5 -3 -8.5t-9 -3.5q-7 0 -21 7z" />
    <glyph glyph-name="uni1EE6" unicode="&#x1ee6;" horiz-adv-x="715" 
d="M609.5 694q5.5 -6 5.5 -14v-432q0 -70 -35 -129t-94 -94t-128 -35q-70 0 -129 35t-94 94t-35 129v432q0 9 6 14.5t15 5.5t15 -6t6 -14v-432q0 -59 29 -109t78.5 -79.5t108.5 -29.5t108.5 29.5t79 79.5t29.5 109v432q0 8 5.5 14t14.5 6t14.5 -6zM361 926q37 0 55.5 -21.5
t18.5 -47.5q0 -16 -9 -29.5t-29 -33.5q-8 -8 -9 -23q-1 -7 -5.5 -10.5t-11.5 -3.5q-8 0 -12 4.5t-4 11.5q0 25 14 40q5 5 14 14.5t13 16t4 14.5q0 13 -11 22.5t-26 9.5q-22 0 -47 -19q-10 -8 -18 -8q-7 0 -13 6q-4 6 -4 11q0 7 7 14q32 32 73 32z" />
    <glyph glyph-name="Uhorn" unicode="&#x1af;" horiz-adv-x="715" 
d="M697.5 699q-30.5 -31 -82.5 -36v-415q0 -70 -35 -129t-94 -94t-128 -35q-70 0 -129 35t-94 94t-35 129v432q0 9 6 14.5t15 5.5t15 -6t6 -14v-432q0 -59 29 -109t78.5 -79.5t108.5 -29.5t108.5 29.5t79 79.5t29.5 109v432q0 8 5.5 14t14.5 6q51 0 74 19t23 63
q0 13 4.5 21.5t13.5 8.5q18 0 18 -30q0 -52 -30.5 -83z" />
    <glyph glyph-name="uni1EE8" unicode="&#x1ee8;" horiz-adv-x="715" 
d="M697.5 699q-30.5 -31 -82.5 -36v-415q0 -70 -35 -129t-94 -94t-128 -35q-70 0 -129 35t-94 94t-35 129v432q0 9 6 14.5t15 5.5t15 -6t6 -14v-432q0 -59 29 -109t78.5 -79.5t108.5 -29.5t108.5 29.5t79 79.5t29.5 109v432q0 8 5.5 14t14.5 6q51 0 74 19t23 63
q0 13 4.5 21.5t13.5 8.5q18 0 18 -30q0 -52 -30.5 -83zM353 751.5q-3 3.5 -3 8.5q0 8 9 15l90 67q10 8 22 8q11 0 17 -7t6 -17q0 -16 -14 -24l-97 -47q-14 -7 -21 -7q-6 0 -9 3.5z" />
    <glyph glyph-name="uni1EF0" unicode="&#x1ef0;" horiz-adv-x="715" 
d="M697.5 699q-30.5 -31 -82.5 -36v-415q0 -70 -35 -129t-94 -94t-128 -35q-70 0 -129 35t-94 94t-35 129v432q0 9 6 14.5t15 5.5t15 -6t6 -14v-432q0 -59 29 -109t78.5 -79.5t108.5 -29.5t108.5 29.5t79 79.5t29.5 109v432q0 8 5.5 14t14.5 6q51 0 74 19t23 63
q0 13 4.5 21.5t13.5 8.5q18 0 18 -30q0 -52 -30.5 -83zM332.5 -127q-9.5 10 -9.5 26v8q0 16 10 26t26 10q14 0 23.5 -10t9.5 -26v-8q0 -16 -9.5 -26t-24.5 -10q-16 0 -25.5 10z" />
    <glyph glyph-name="uni1EEA" unicode="&#x1eea;" horiz-adv-x="715" 
d="M697.5 699q-30.5 -31 -82.5 -36v-415q0 -70 -35 -129t-94 -94t-128 -35q-70 0 -129 35t-94 94t-35 129v432q0 9 6 14.5t15 5.5t15 -6t6 -14v-432q0 -59 29 -109t78.5 -79.5t108.5 -29.5t108.5 29.5t79 79.5t29.5 109v432q0 8 5.5 14t14.5 6q51 0 74 19t23 63
q0 13 4.5 21.5t13.5 8.5q18 0 18 -30q0 -52 -30.5 -83zM337 755l-97 47q-14 8 -14 24q0 10 6 17t17 7q12 0 22 -8l90 -67q9 -7 9 -15q0 -5 -3 -8.5t-9 -3.5q-7 0 -21 7z" />
    <glyph glyph-name="uni1EEC" unicode="&#x1eec;" horiz-adv-x="715" 
d="M697.5 699q-30.5 -31 -82.5 -36v-415q0 -70 -35 -129t-94 -94t-128 -35q-70 0 -129 35t-94 94t-35 129v432q0 9 6 14.5t15 5.5t15 -6t6 -14v-432q0 -59 29 -109t78.5 -79.5t108.5 -29.5t108.5 29.5t79 79.5t29.5 109v432q0 8 5.5 14t14.5 6q51 0 74 19t23 63
q0 13 4.5 21.5t13.5 8.5q18 0 18 -30q0 -52 -30.5 -83zM361 926q37 0 55.5 -21.5t18.5 -47.5q0 -16 -9 -29.5t-29 -33.5q-8 -8 -9 -23q-1 -7 -5.5 -10.5t-11.5 -3.5q-8 0 -12 4.5t-4 11.5q0 25 14 40q5 5 14 14.5t13 16t4 14.5q0 13 -11 22.5t-26 9.5q-22 0 -47 -19
q-10 -8 -18 -8q-7 0 -13 6q-4 6 -4 11q0 7 7 14q32 32 73 32z" />
    <glyph glyph-name="uni1EEE" unicode="&#x1eee;" horiz-adv-x="715" 
d="M697.5 699q-30.5 -31 -82.5 -36v-415q0 -70 -35 -129t-94 -94t-128 -35q-70 0 -129 35t-94 94t-35 129v432q0 9 6 14.5t15 5.5t15 -6t6 -14v-432q0 -59 29 -109t78.5 -79.5t108.5 -29.5t108.5 29.5t79 79.5t29.5 109v432q0 8 5.5 14t14.5 6q51 0 74 19t23 63
q0 13 4.5 21.5t13.5 8.5q18 0 18 -30q0 -52 -30.5 -83zM216 799q0 8 3 18q8 31 30 46t49 15q15 0 31 -7.5t42 -23.5q23 -14 35.5 -20t23.5 -6q15 0 24.5 12t12.5 33q1 8 5.5 13t12.5 5q16 0 16 -19q0 -3 -2 -15q-15 -65 -77 -65q-13 0 -28 7t-39 22q-26 14 -38 20t-23 6
q-32 0 -45 -44q-4 -14 -18 -14q-15 0 -15 17z" />
    <glyph glyph-name="Uhungarumlaut" unicode="&#x170;" horiz-adv-x="715" 
d="M609.5 694q5.5 -6 5.5 -14v-432q0 -70 -35 -129t-94 -94t-128 -35q-70 0 -129 35t-94 94t-35 129v432q0 9 6 14.5t15 5.5t15 -6t6 -14v-432q0 -59 29 -109t78.5 -79.5t108.5 -29.5t108.5 29.5t79 79.5t29.5 109v432q0 8 5.5 14t14.5 6t14.5 -6zM248 736.5q-3 3.5 -3 8.5
t5 13l62 93q9 16 26 16q11 0 18.5 -6.5t7.5 -18.5q0 -8 -7 -17l-75 -77q-15 -15 -26 -15q-5 0 -8 3.5zM396 736.5q-3 3.5 -3 8.5t5 13l62 93q9 16 26 16q11 0 18.5 -6.5t7.5 -18.5q0 -8 -7 -17l-75 -77q-15 -15 -26 -15q-5 0 -8 3.5z" />
    <glyph glyph-name="uni0216" unicode="&#x216;" horiz-adv-x="715" 
d="M609.5 694q5.5 -6 5.5 -14v-432q0 -70 -35 -129t-94 -94t-128 -35q-70 0 -129 35t-94 94t-35 129v432q0 9 6 14.5t15 5.5t15 -6t6 -14v-432q0 -59 29 -109t78.5 -79.5t108.5 -29.5t108.5 29.5t79 79.5t29.5 109v432q0 8 5.5 14t14.5 6t14.5 -6zM416.5 830
q27.5 -14 44 -37t16.5 -49q0 -7 -5.5 -12.5t-13.5 -5.5q-18 0 -21 20q-5 28 -27.5 44t-53.5 16t-54 -16t-27 -44q-2 -20 -21 -20q-8 0 -13.5 5.5t-5.5 12.5q0 26 16.5 49t44 37t60.5 14t60.5 -14z" />
    <glyph glyph-name="Umacron" unicode="&#x16a;" horiz-adv-x="715" 
d="M609.5 694q5.5 -6 5.5 -14v-432q0 -70 -35 -129t-94 -94t-128 -35q-70 0 -129 35t-94 94t-35 129v432q0 9 6 14.5t15 5.5t15 -6t6 -14v-432q0 -59 29 -109t78.5 -79.5t108.5 -29.5t108.5 29.5t79 79.5t29.5 109v432q0 8 5.5 14t14.5 6t14.5 -6zM210 818q0 20 22 20h260
q22 0 22 -20q0 -18 -22 -18h-260q-22 0 -22 18z" />
    <glyph glyph-name="uni1E7A" unicode="&#x1e7a;" horiz-adv-x="715" 
d="M609.5 694q5.5 -6 5.5 -14v-432q0 -70 -35 -129t-94 -94t-128 -35q-70 0 -129 35t-94 94t-35 129v432q0 9 6 14.5t15 5.5t15 -6t6 -14v-432q0 -59 29 -109t78.5 -79.5t108.5 -29.5t108.5 29.5t79 79.5t29.5 109v432q0 8 5.5 14t14.5 6t14.5 -6zM210 818q0 20 22 20h260
q22 0 22 -20q0 -18 -22 -18h-260q-22 0 -22 18zM251.5 939q-9.5 10 -9.5 26v8q0 16 10 26t26 10q14 0 23.5 -10t9.5 -26v-8q0 -16 -9.5 -26t-24.5 -10q-16 0 -25.5 10zM414.5 939q-9.5 10 -9.5 26v8q0 16 10 26t26 10q14 0 23.5 -10t9.5 -26v-8q0 -16 -9.5 -26t-24.5 -10
q-16 0 -25.5 10z" />
    <glyph glyph-name="Uogonek" unicode="&#x172;" horiz-adv-x="715" 
d="M609.5 694q5.5 -6 5.5 -14v-432q0 -74 -37 -136.5t-99 -90.5q-4 -2 -33 -14.5t-48 -36.5t-19 -55q0 -29 16.5 -46t38.5 -17q25 0 31 10q5 8 9.5 12t11.5 4t11 -4.5t4 -9.5q0 -20 -20.5 -34.5t-51.5 -14.5q-35 0 -61.5 26t-26.5 66q0 51 40 84q-8 -1 -23 -1q-70 0 -129 35
t-94 94t-35 129v432q0 9 6 14.5t15 5.5t15 -6t6 -14v-432q0 -59 29 -109t78.5 -79.5t108.5 -29.5q60 0 110 29.5t78.5 79.5t28.5 109v432q0 8 5.5 14t14.5 6t14.5 -6z" />
    <glyph glyph-name="Uring" unicode="&#x16e;" horiz-adv-x="715" 
d="M609.5 694q5.5 -6 5.5 -14v-432q0 -70 -35 -129t-94 -94t-128 -35q-70 0 -129 35t-94 94t-35 129v432q0 9 6 14.5t15 5.5t15 -6t6 -14v-432q0 -59 29 -109t78.5 -79.5t108.5 -29.5t108.5 29.5t79 79.5t29.5 109v432q0 8 5.5 14t14.5 6t14.5 -6zM289.5 767.5
q-29.5 27.5 -29.5 66.5t29.5 66.5t68.5 27.5t68.5 -27.5t29.5 -66.5t-29.5 -66.5t-68.5 -27.5t-68.5 27.5zM401.5 790.5q18.5 18.5 18.5 43.5q0 26 -18.5 44t-43.5 18q-26 0 -44 -18t-18 -44q0 -25 18 -43.5t44 -18.5q25 0 43.5 18.5z" />
    <glyph glyph-name="Utilde" unicode="&#x168;" horiz-adv-x="715" 
d="M609.5 694q5.5 -6 5.5 -14v-432q0 -70 -35 -129t-94 -94t-128 -35q-70 0 -129 35t-94 94t-35 129v432q0 9 6 14.5t15 5.5t15 -6t6 -14v-432q0 -59 29 -109t78.5 -79.5t108.5 -29.5t108.5 29.5t79 79.5t29.5 109v432q0 8 5.5 14t14.5 6t14.5 -6zM216 799q0 8 3 18
q8 31 30 46t49 15q15 0 31 -7.5t42 -23.5q23 -14 35.5 -20t23.5 -6q15 0 24.5 12t12.5 33q1 8 5.5 13t12.5 5q16 0 16 -19q0 -3 -2 -15q-15 -65 -77 -65q-13 0 -28 7t-39 22q-26 14 -38 20t-23 6q-32 0 -45 -44q-4 -14 -18 -14q-15 0 -15 17z" />
    <glyph glyph-name="uni1E78" unicode="&#x1e78;" horiz-adv-x="715" 
d="M609.5 694q5.5 -6 5.5 -14v-432q0 -70 -35 -129t-94 -94t-128 -35q-70 0 -129 35t-94 94t-35 129v432q0 9 6 14.5t15 5.5t15 -6t6 -14v-432q0 -59 29 -109t78.5 -79.5t108.5 -29.5t108.5 29.5t79 79.5t29.5 109v432q0 8 5.5 14t14.5 6t14.5 -6zM216 799q0 8 3 18
q8 31 30 46t49 15q15 0 31 -7.5t42 -23.5q23 -14 35.5 -20t23.5 -6q15 0 24.5 12t12.5 33q1 8 5.5 13t12.5 5q16 0 16 -19q0 -3 -2 -15q-15 -65 -77 -65q-13 0 -28 7t-39 22q-26 14 -38 20t-23 6q-32 0 -45 -44q-4 -14 -18 -14q-15 0 -15 17zM353 935.5q-3 3.5 -3 8.5
q0 8 9 15l90 67q10 8 22 8q11 0 17 -7t6 -17q0 -16 -14 -24l-97 -47q-14 -7 -21 -7q-6 0 -9 3.5z" />
    <glyph glyph-name="V" unicode="V" horiz-adv-x="660" 
d="M619.5 695q5.5 -5 5.5 -13q0 -4 -2 -10l-274 -659q-6 -13 -19 -13q-6 0 -11.5 3.5t-7.5 9.5l-272 656q-3 6 -3 12q0 8 5.5 13.5t13.5 5.5q15 0 22 -16l254 -611l255 614q7 13 19 13q9 0 14.5 -5z" />
    <glyph glyph-name="W" unicode="W" horiz-adv-x="974" 
d="M933 697q6 -5 6 -14l-2 -10l-229 -660q-2 -6 -7.5 -9.5t-10.5 -3.5q-16 0 -20 12l-183 462l-183 -462q-5 -12 -21 -12q-6 0 -11 3.5t-6 9.5l-229 660l-2 9q0 9 7 14.5t15 5.5q6 0 11.5 -3.5t7.5 -9.5l212 -612l180 455q5 13 19 13q6 0 11.5 -3.5t7.5 -9.5l181 -456
l211 613q5 13 20 13q9 0 15 -5z" />
    <glyph glyph-name="Wacute" unicode="&#x1e82;" horiz-adv-x="974" 
d="M933 697q6 -5 6 -14l-2 -10l-229 -660q-2 -6 -7.5 -9.5t-10.5 -3.5q-16 0 -20 12l-183 462l-183 -462q-5 -12 -21 -12q-6 0 -11 3.5t-6 9.5l-229 660l-2 9q0 9 7 14.5t15 5.5q6 0 11.5 -3.5t7.5 -9.5l212 -612l180 455q5 13 19 13q6 0 11.5 -3.5t7.5 -9.5l181 -456
l211 613q5 13 20 13q9 0 15 -5zM482 751.5q-3 3.5 -3 8.5q0 8 9 15l90 67q10 8 22 8q11 0 17 -7t6 -17q0 -16 -14 -24l-97 -47q-14 -7 -21 -7q-6 0 -9 3.5z" />
    <glyph glyph-name="Wcircumflex" unicode="&#x174;" horiz-adv-x="974" 
d="M933 697q6 -5 6 -14l-2 -10l-229 -660q-2 -6 -7.5 -9.5t-10.5 -3.5q-16 0 -20 12l-183 462l-183 -462q-5 -12 -21 -12q-6 0 -11 3.5t-6 9.5l-229 660l-2 9q0 9 7 14.5t15 5.5q6 0 11.5 -3.5t7.5 -9.5l212 -612l180 455q5 13 19 13q6 0 11.5 -3.5t7.5 -9.5l181 -456
l211 613q5 13 20 13q9 0 15 -5zM602 781q0 -5 -3.5 -8.5t-8.5 -3.5q-7 0 -19 10l-88 68l-82 -69q-12 -10 -19 -10q-5 0 -8.5 3.5t-3.5 8.5q0 6 6 12l81 86q7 7 11.5 9.5t12.5 2.5h10q8 0 12.5 -2.5t11.5 -9.5l81 -85q6 -6 6 -12z" />
    <glyph glyph-name="Wdieresis" unicode="&#x1e84;" horiz-adv-x="974" 
d="M933 697q6 -5 6 -14l-2 -10l-229 -660q-2 -6 -7.5 -9.5t-10.5 -3.5q-16 0 -20 12l-183 462l-183 -462q-5 -12 -21 -12q-6 0 -11 3.5t-6 9.5l-229 660l-2 9q0 9 7 14.5t15 5.5q6 0 11.5 -3.5t7.5 -9.5l212 -612l180 455q5 13 19 13q6 0 11.5 -3.5t7.5 -9.5l181 -456
l211 613q5 13 20 13q9 0 15 -5zM380.5 790q-9.5 10 -9.5 26v8q0 16 10 26t26 10q14 0 23.5 -10t9.5 -26v-8q0 -16 -9.5 -26t-24.5 -10q-16 0 -25.5 10zM543.5 790q-9.5 10 -9.5 26v8q0 16 10 26t26 10q14 0 23.5 -10t9.5 -26v-8q0 -16 -9.5 -26t-24.5 -10q-16 0 -25.5 10z
" />
    <glyph glyph-name="Wgrave" unicode="&#x1e80;" horiz-adv-x="974" 
d="M933 697q6 -5 6 -14l-2 -10l-229 -660q-2 -6 -7.5 -9.5t-10.5 -3.5q-16 0 -20 12l-183 462l-183 -462q-5 -12 -21 -12q-6 0 -11 3.5t-6 9.5l-229 660l-2 9q0 9 7 14.5t15 5.5q6 0 11.5 -3.5t7.5 -9.5l212 -612l180 455q5 13 19 13q6 0 11.5 -3.5t7.5 -9.5l181 -456
l211 613q5 13 20 13q9 0 15 -5zM466 755l-97 47q-14 8 -14 24q0 10 6 17t17 7q12 0 22 -8l90 -67q9 -7 9 -15q0 -5 -3 -8.5t-9 -3.5q-7 0 -21 7z" />
    <glyph glyph-name="X" unicode="X" horiz-adv-x="589" 
d="M554 29q5 -7 5 -12q0 -9 -6 -14.5t-15 -5.5q-11 0 -16 8l-229 312l-228 -312q-5 -8 -15 -8q-9 0 -14 5.5t-5 11.5q0 5 5 13l235 321l-237 323q-4 5 -4 12q0 9 6 14.5t14 5.5q12 0 17 -8l229 -313l228 314q6 8 15 8t14.5 -4.5t5.5 -11.5t-5 -14l-235 -324z" />
    <glyph glyph-name="Y" unicode="Y" horiz-adv-x="547" 
d="M523 672l-228 -310v-342q0 -8 -6 -14t-15 -6t-15 6t-6 14v338l-229 314q-4 5 -4 13q0 7 6.5 13t14.5 6q11 0 17 -9l216 -295l216 295q6 9 17 9q9 0 14.5 -6.5t5.5 -12.5q0 -5 -4 -13z" />
    <glyph glyph-name="Yacute" unicode="&#xdd;" horiz-adv-x="547" 
d="M523 672l-228 -310v-342q0 -8 -6 -14t-15 -6t-15 6t-6 14v338l-229 314q-4 5 -4 13q0 7 6.5 13t14.5 6q11 0 17 -9l216 -295l216 295q6 9 17 9q9 0 14.5 -6.5t5.5 -12.5q0 -5 -4 -13zM269 751.5q-3 3.5 -3 8.5q0 8 9 15l90 67q10 8 22 8q11 0 17 -7t6 -17q0 -16 -14 -24
l-97 -47q-14 -7 -21 -7q-6 0 -9 3.5z" />
    <glyph glyph-name="Ycircumflex" unicode="&#x176;" horiz-adv-x="547" 
d="M523 672l-228 -310v-342q0 -8 -6 -14t-15 -6t-15 6t-6 14v338l-229 314q-4 5 -4 13q0 7 6.5 13t14.5 6q11 0 17 -9l216 -295l216 295q6 9 17 9q9 0 14.5 -6.5t5.5 -12.5q0 -5 -4 -13zM389 781q0 -5 -3.5 -8.5t-8.5 -3.5q-7 0 -19 10l-88 68l-82 -69q-12 -10 -19 -10
q-5 0 -8.5 3.5t-3.5 8.5q0 6 6 12l81 86q7 7 11.5 9.5t12.5 2.5h10q8 0 12.5 -2.5t11.5 -9.5l81 -85q6 -6 6 -12z" />
    <glyph glyph-name="Ydieresis" unicode="&#x178;" horiz-adv-x="547" 
d="M523 672l-228 -310v-342q0 -8 -6 -14t-15 -6t-15 6t-6 14v338l-229 314q-4 5 -4 13q0 7 6.5 13t14.5 6q11 0 17 -9l216 -295l216 295q6 9 17 9q9 0 14.5 -6.5t5.5 -12.5q0 -5 -4 -13zM167.5 790q-9.5 10 -9.5 26v8q0 16 10 26t26 10q14 0 23.5 -10t9.5 -26v-8
q0 -16 -9.5 -26t-24.5 -10q-16 0 -25.5 10zM330.5 790q-9.5 10 -9.5 26v8q0 16 10 26t26 10q14 0 23.5 -10t9.5 -26v-8q0 -16 -9.5 -26t-24.5 -10q-16 0 -25.5 10z" />
    <glyph glyph-name="uni1E8E" unicode="&#x1e8e;" horiz-adv-x="547" 
d="M523 672l-228 -310v-342q0 -8 -6 -14t-15 -6t-15 6t-6 14v338l-229 314q-4 5 -4 13q0 7 6.5 13t14.5 6q11 0 17 -9l216 -295l216 295q6 9 17 9q9 0 14.5 -6.5t5.5 -12.5q0 -5 -4 -13zM248.5 790q-9.5 10 -9.5 26v8q0 16 10 26t26 10q14 0 23.5 -10t9.5 -26v-8
q0 -16 -9.5 -26t-24.5 -10q-16 0 -25.5 10z" />
    <glyph glyph-name="uni1EF4" unicode="&#x1ef4;" horiz-adv-x="547" 
d="M523 672l-228 -310v-342q0 -8 -6 -14t-15 -6t-15 6t-6 14v338l-229 314q-4 5 -4 13q0 7 6.5 13t14.5 6q11 0 17 -9l216 -295l216 295q6 9 17 9q9 0 14.5 -6.5t5.5 -12.5q0 -5 -4 -13zM248.5 -127q-9.5 10 -9.5 26v8q0 16 10 26t26 10q14 0 23.5 -10t9.5 -26v-8
q0 -16 -9.5 -26t-24.5 -10q-16 0 -25.5 10z" />
    <glyph glyph-name="Ygrave" unicode="&#x1ef2;" horiz-adv-x="547" 
d="M523 672l-228 -310v-342q0 -8 -6 -14t-15 -6t-15 6t-6 14v338l-229 314q-4 5 -4 13q0 7 6.5 13t14.5 6q11 0 17 -9l216 -295l216 295q6 9 17 9q9 0 14.5 -6.5t5.5 -12.5q0 -5 -4 -13zM253 755l-97 47q-14 8 -14 24q0 10 6 17t17 7q12 0 22 -8l90 -67q9 -7 9 -15
q0 -5 -3 -8.5t-9 -3.5q-7 0 -21 7z" />
    <glyph glyph-name="uni1EF6" unicode="&#x1ef6;" horiz-adv-x="547" 
d="M523 672l-228 -310v-342q0 -8 -6 -14t-15 -6t-15 6t-6 14v338l-229 314q-4 5 -4 13q0 7 6.5 13t14.5 6q11 0 17 -9l216 -295l216 295q6 9 17 9q9 0 14.5 -6.5t5.5 -12.5q0 -5 -4 -13zM277 926q37 0 55.5 -21.5t18.5 -47.5q0 -16 -9 -29.5t-29 -33.5q-8 -8 -9 -23
q-1 -7 -5.5 -10.5t-11.5 -3.5q-8 0 -12 4.5t-4 11.5q0 25 14 40q5 5 14 14.5t13 16t4 14.5q0 13 -11 22.5t-26 9.5q-22 0 -47 -19q-10 -8 -18 -8q-7 0 -13 6q-4 6 -4 11q0 7 7 14q32 32 73 32z" />
    <glyph glyph-name="uni0232" unicode="&#x232;" horiz-adv-x="547" 
d="M523 672l-228 -310v-342q0 -8 -6 -14t-15 -6t-15 6t-6 14v338l-229 314q-4 5 -4 13q0 7 6.5 13t14.5 6q11 0 17 -9l216 -295l216 295q6 9 17 9q9 0 14.5 -6.5t5.5 -12.5q0 -5 -4 -13zM126 818q0 20 22 20h260q22 0 22 -20q0 -18 -22 -18h-260q-22 0 -22 18z" />
    <glyph glyph-name="uni1EF8" unicode="&#x1ef8;" horiz-adv-x="547" 
d="M523 672l-228 -310v-342q0 -8 -6 -14t-15 -6t-15 6t-6 14v338l-229 314q-4 5 -4 13q0 7 6.5 13t14.5 6q11 0 17 -9l216 -295l216 295q6 9 17 9q9 0 14.5 -6.5t5.5 -12.5q0 -5 -4 -13zM132 799q0 8 3 18q8 31 30 46t49 15q15 0 31 -7.5t42 -23.5q23 -14 35.5 -20t23.5 -6
q15 0 24.5 12t12.5 33q1 8 5.5 13t12.5 5q16 0 16 -19q0 -3 -2 -15q-15 -65 -77 -65q-13 0 -28 7t-39 22q-26 14 -38 20t-23 6q-32 0 -45 -44q-4 -14 -18 -14q-15 0 -15 17z" />
    <glyph glyph-name="Z" unicode="Z" horiz-adv-x="643" 
d="M586 32q6 -6 6 -13q0 -8 -6 -13.5t-14 -5.5h-492q-9 0 -14.5 6.5t-5.5 14.5q0 7 4 12l472 629h-436q-8 0 -14 5.5t-6 13.5t6 13.5t14 5.5h470q12 0 17.5 -6t5.5 -14q0 -7 -4 -12l-471 -630h454q8 0 14 -6z" />
    <glyph glyph-name="Zacute" unicode="&#x179;" horiz-adv-x="643" 
d="M586 32q6 -6 6 -13q0 -8 -6 -13.5t-14 -5.5h-492q-9 0 -14.5 6.5t-5.5 14.5q0 7 4 12l472 629h-436q-8 0 -14 5.5t-6 13.5t6 13.5t14 5.5h470q12 0 17.5 -6t5.5 -14q0 -7 -4 -12l-471 -630h454q8 0 14 -6zM317 751.5q-3 3.5 -3 8.5q0 8 9 15l90 67q10 8 22 8q11 0 17 -7
t6 -17q0 -16 -14 -24l-97 -47q-14 -7 -21 -7q-6 0 -9 3.5z" />
    <glyph glyph-name="Zcaron" unicode="&#x17d;" horiz-adv-x="643" 
d="M586 32q6 -6 6 -13q0 -8 -6 -13.5t-14 -5.5h-492q-9 0 -14.5 6.5t-5.5 14.5q0 7 4 12l472 629h-436q-8 0 -14 5.5t-6 13.5t6 13.5t14 5.5h470q12 0 17.5 -6t5.5 -14q0 -7 -4 -12l-471 -630h454q8 0 14 -6zM433.5 877.5q3.5 -3.5 3.5 -8.5q0 -6 -6 -12l-81 -86
q-8 -12 -24 -12h-10q-16 0 -24 12l-81 85q-6 6 -6 12q0 5 3.5 8.5t8.5 3.5q7 0 19 -10l88 -68l82 69q12 10 19 10q5 0 8.5 -3.5z" />
    <glyph glyph-name="Zdotaccent" unicode="&#x17b;" horiz-adv-x="643" 
d="M586 32q6 -6 6 -13q0 -8 -6 -13.5t-14 -5.5h-492q-9 0 -14.5 6.5t-5.5 14.5q0 7 4 12l472 629h-436q-8 0 -14 5.5t-6 13.5t6 13.5t14 5.5h470q12 0 17.5 -6t5.5 -14q0 -7 -4 -12l-471 -630h454q8 0 14 -6zM296.5 790q-9.5 10 -9.5 26v8q0 16 10 26t26 10q14 0 23.5 -10
t9.5 -26v-8q0 -16 -9.5 -26t-24.5 -10q-16 0 -25.5 10z" />
    <glyph glyph-name="uni1E92" unicode="&#x1e92;" horiz-adv-x="643" 
d="M586 32q6 -6 6 -13q0 -8 -6 -13.5t-14 -5.5h-492q-9 0 -14.5 6.5t-5.5 14.5q0 7 4 12l472 629h-436q-8 0 -14 5.5t-6 13.5t6 13.5t14 5.5h470q12 0 17.5 -6t5.5 -14q0 -7 -4 -12l-471 -630h454q8 0 14 -6zM296.5 -127q-9.5 10 -9.5 26v8q0 16 10 26t26 10q14 0 23.5 -10
t9.5 -26v-8q0 -16 -9.5 -26t-24.5 -10q-16 0 -25.5 10z" />
    <glyph glyph-name="a" unicode="a" horiz-adv-x="595" 
d="M506.5 493q5.5 -6 5.5 -14v-459q0 -8 -6 -14t-14 -6q-9 0 -14.5 6t-5.5 14v90q-25 -51 -77 -85.5t-115 -34.5q-66 0 -119 34.5t-83 95t-30 135.5q0 74 30.5 133.5t83.5 93t118 33.5t117 -34t75 -91v89q0 8 5.5 14t14.5 6t14.5 -6zM381.5 57.5q44.5 29.5 69.5 81.5t25 116
q0 61 -25 112t-69.5 80.5t-99.5 29.5t-99.5 -28.5t-69.5 -79t-25 -114.5t25 -116t69 -81.5t100 -29.5q55 0 99.5 29.5z" />
    <glyph glyph-name="aacute" unicode="&#xe1;" horiz-adv-x="595" 
d="M506.5 493q5.5 -6 5.5 -14v-459q0 -8 -6 -14t-14 -6q-9 0 -14.5 6t-5.5 14v90q-25 -51 -77 -85.5t-115 -34.5q-66 0 -119 34.5t-83 95t-30 135.5q0 74 30.5 133.5t83.5 93t118 33.5t117 -34t75 -91v89q0 8 5.5 14t14.5 6t14.5 -6zM381.5 57.5q44.5 29.5 69.5 81.5t25 116
q0 61 -25 112t-69.5 80.5t-99.5 29.5t-99.5 -28.5t-69.5 -79t-25 -114.5t25 -116t69 -81.5t100 -29.5q55 0 99.5 29.5zM262 549.5q-3 3.5 -3 8.5t5 13l62 93q9 16 26 16q11 0 18.5 -6.5t7.5 -18.5q0 -8 -7 -17l-75 -77q-15 -15 -26 -15q-5 0 -8 3.5z" />
    <glyph glyph-name="abreve" unicode="&#x103;" horiz-adv-x="595" 
d="M506.5 493q5.5 -6 5.5 -14v-459q0 -8 -6 -14t-14 -6q-9 0 -14.5 6t-5.5 14v90q-25 -51 -77 -85.5t-115 -34.5q-66 0 -119 34.5t-83 95t-30 135.5q0 74 30.5 133.5t83.5 93t118 33.5t117 -34t75 -91v89q0 8 5.5 14t14.5 6t14.5 -6zM381.5 57.5q44.5 29.5 69.5 81.5t25 116
q0 61 -25 112t-69.5 80.5t-99.5 29.5t-99.5 -28.5t-69.5 -79t-25 -114.5t25 -116t69 -81.5t100 -29.5q55 0 99.5 29.5zM217.5 591.5q-27.5 18.5 -44 48.5t-16.5 63q0 7 5.5 12.5t13.5 5.5q19 0 21 -20q4 -42 27 -66t54 -24t53.5 24.5t27.5 65.5q3 20 21 20q8 0 13.5 -5.5
t5.5 -12.5q0 -33 -16.5 -63t-44 -48.5t-60.5 -18.5t-60.5 18.5z" />
    <glyph glyph-name="uni1EAF" unicode="&#x1eaf;" horiz-adv-x="595" 
d="M506.5 493q5.5 -6 5.5 -14v-459q0 -8 -6 -14t-14 -6q-9 0 -14.5 6t-5.5 14v90q-25 -51 -77 -85.5t-115 -34.5q-66 0 -119 34.5t-83 95t-30 135.5q0 74 30.5 133.5t83.5 93t118 33.5t117 -34t75 -91v89q0 8 5.5 14t14.5 6t14.5 -6zM381.5 57.5q44.5 29.5 69.5 81.5t25 116
q0 61 -25 112t-69.5 80.5t-99.5 29.5t-99.5 -28.5t-69.5 -79t-25 -114.5t25 -116t69 -81.5t100 -29.5q55 0 99.5 29.5zM230.5 601.5q-27.5 18.5 -44 48.5t-16.5 63q0 7 5.5 12.5t13.5 5.5q19 0 21 -20q4 -42 27 -66t54 -24t53.5 24.5t27.5 65.5q3 20 21 20q8 0 13.5 -5.5
t5.5 -12.5q0 -33 -16.5 -63t-44 -48.5t-60.5 -18.5t-60.5 18.5zM275 717.5q-3 3.5 -3 8.5t5 13l62 93q9 16 26 16q11 0 18.5 -6.5t7.5 -18.5q0 -8 -7 -17l-75 -77q-15 -15 -26 -15q-5 0 -8 3.5z" />
    <glyph glyph-name="uni1EB7" unicode="&#x1eb7;" horiz-adv-x="595" 
d="M506.5 493q5.5 -6 5.5 -14v-459q0 -8 -6 -14t-14 -6q-9 0 -14.5 6t-5.5 14v90q-25 -51 -77 -85.5t-115 -34.5q-66 0 -119 34.5t-83 95t-30 135.5q0 74 30.5 133.5t83.5 93t118 33.5t117 -34t75 -91v89q0 8 5.5 14t14.5 6t14.5 -6zM381.5 57.5q44.5 29.5 69.5 81.5t25 116
q0 61 -25 112t-69.5 80.5t-99.5 29.5t-99.5 -28.5t-69.5 -79t-25 -114.5t25 -116t69 -81.5t100 -29.5q55 0 99.5 29.5zM252.5 -121q-9.5 9 -9.5 23v8q0 14 10 23t26 9q14 0 23.5 -9t9.5 -23v-8q0 -14 -9.5 -23t-24.5 -9q-16 0 -25.5 9zM217.5 591.5q-27.5 18.5 -44 48.5
t-16.5 63q0 7 5.5 12.5t13.5 5.5q19 0 21 -20q4 -42 27 -66t54 -24t53.5 24.5t27.5 65.5q3 20 21 20q8 0 13.5 -5.5t5.5 -12.5q0 -33 -16.5 -63t-44 -48.5t-60.5 -18.5t-60.5 18.5z" />
    <glyph glyph-name="uni1EB1" unicode="&#x1eb1;" horiz-adv-x="595" 
d="M506.5 493q5.5 -6 5.5 -14v-459q0 -8 -6 -14t-14 -6q-9 0 -14.5 6t-5.5 14v90q-25 -51 -77 -85.5t-115 -34.5q-66 0 -119 34.5t-83 95t-30 135.5q0 74 30.5 133.5t83.5 93t118 33.5t117 -34t75 -91v89q0 8 5.5 14t14.5 6t14.5 -6zM381.5 57.5q44.5 29.5 69.5 81.5t25 116
q0 61 -25 112t-69.5 80.5t-99.5 29.5t-99.5 -28.5t-69.5 -79t-25 -114.5t25 -116t69 -81.5t100 -29.5q55 0 99.5 29.5zM227.5 602.5q-27.5 18.5 -44 48.5t-16.5 63q0 7 5.5 12.5t13.5 5.5q19 0 21 -20q4 -42 27 -66t54 -24t53.5 24.5t27.5 65.5q3 20 21 20q8 0 13.5 -5.5
t5.5 -12.5q0 -33 -16.5 -63t-44 -48.5t-60.5 -18.5t-60.5 18.5zM273 729l-71 79q-7 9 -7 17q0 23 22 23q17 0 26 -16l62 -93q5 -8 5 -13t-3 -8.5t-8 -3.5q-11 0 -26 15z" />
    <glyph glyph-name="uni1EB3" unicode="&#x1eb3;" horiz-adv-x="595" 
d="M506.5 493q5.5 -6 5.5 -14v-459q0 -8 -6 -14t-14 -6q-9 0 -14.5 6t-5.5 14v90q-25 -51 -77 -85.5t-115 -34.5q-66 0 -119 34.5t-83 95t-30 135.5q0 74 30.5 133.5t83.5 93t118 33.5t117 -34t75 -91v89q0 8 5.5 14t14.5 6t14.5 -6zM381.5 57.5q44.5 29.5 69.5 81.5t25 116
q0 61 -25 112t-69.5 80.5t-99.5 29.5t-99.5 -28.5t-69.5 -79t-25 -114.5t25 -116t69 -81.5t100 -29.5q55 0 99.5 29.5zM227.5 583.5q-27.5 18.5 -44 48.5t-16.5 63q0 7 5.5 12.5t13.5 5.5q19 0 21 -20q4 -42 27 -66t54 -24t53.5 24.5t27.5 65.5q3 20 21 20q8 0 13.5 -5.5
t5.5 -12.5q0 -33 -16.5 -63t-44 -48.5t-60.5 -18.5t-60.5 18.5zM279 843q37 0 55.5 -21.5t18.5 -47.5q0 -16 -9 -29.5t-29 -33.5q-8 -8 -9 -23q-1 -7 -5.5 -10.5t-11.5 -3.5q-8 0 -12 4.5t-4 11.5q0 25 14 40q5 5 14 14.5t13 16t4 14.5q0 13 -11 22.5t-26 9.5q-22 0 -47 -19
q-10 -8 -18 -8q-7 0 -13 6q-4 6 -4 11q0 7 7 14q32 32 73 32z" />
    <glyph glyph-name="uni1EB5" unicode="&#x1eb5;" horiz-adv-x="595" 
d="M506.5 493q5.5 -6 5.5 -14v-459q0 -8 -6 -14t-14 -6q-9 0 -14.5 6t-5.5 14v90q-25 -51 -77 -85.5t-115 -34.5q-66 0 -119 34.5t-83 95t-30 135.5q0 74 30.5 133.5t83.5 93t118 33.5t117 -34t75 -91v89q0 8 5.5 14t14.5 6t14.5 -6zM381.5 57.5q44.5 29.5 69.5 81.5t25 116
q0 61 -25 112t-69.5 80.5t-99.5 29.5t-99.5 -28.5t-69.5 -79t-25 -114.5t25 -116t69 -81.5t100 -29.5q55 0 99.5 29.5zM229.5 582.5q-27.5 18.5 -44 48.5t-16.5 63q0 7 5.5 12.5t13.5 5.5q19 0 21 -20q4 -42 27 -66t54 -24t53.5 24.5t27.5 65.5q3 20 21 20q8 0 13.5 -5.5
t5.5 -12.5q0 -33 -16.5 -63t-44 -48.5t-60.5 -18.5t-60.5 18.5zM157 783q0 3 4 21q8 31 30 46t49 15q15 0 32 -7.5t41 -22.5q21 -12 34.5 -18.5t24.5 -6.5q30 0 36 43q1 8 6 13t13 5q17 0 17 -15q0 -5 -1 -10t-2 -9q-14 -65 -77 -65q-13 0 -29 7t-38 21q-5 3 -19 10.5
t-24 11t-18 3.5q-32 0 -44 -42q-4 -14 -19 -14q-16 0 -16 14z" />
    <glyph glyph-name="uni01CE" unicode="&#x1ce;" horiz-adv-x="595" 
d="M506.5 493q5.5 -6 5.5 -14v-459q0 -8 -6 -14t-14 -6q-9 0 -14.5 6t-5.5 14v90q-25 -51 -77 -85.5t-115 -34.5q-66 0 -119 34.5t-83 95t-30 135.5q0 74 30.5 133.5t83.5 93t118 33.5t117 -34t75 -91v89q0 8 5.5 14t14.5 6t14.5 -6zM381.5 57.5q44.5 29.5 69.5 81.5t25 116
q0 61 -25 112t-69.5 80.5t-99.5 29.5t-99.5 -28.5t-69.5 -79t-25 -114.5t25 -116t69 -81.5t100 -29.5q55 0 99.5 29.5zM399.5 676.5q3.5 -3.5 3.5 -8.5q0 -6 -6 -12l-81 -86q-8 -12 -24 -12h-10q-16 0 -24 12l-81 85q-6 6 -6 12q0 5 3.5 8.5t8.5 3.5q7 0 19 -10l88 -68
l82 69q12 10 19 10q5 0 8.5 -3.5z" />
    <glyph glyph-name="acircumflex" unicode="&#xe2;" horiz-adv-x="595" 
d="M506.5 493q5.5 -6 5.5 -14v-459q0 -8 -6 -14t-14 -6q-9 0 -14.5 6t-5.5 14v90q-25 -51 -77 -85.5t-115 -34.5q-66 0 -119 34.5t-83 95t-30 135.5q0 74 30.5 133.5t83.5 93t118 33.5t117 -34t75 -91v89q0 8 5.5 14t14.5 6t14.5 -6zM381.5 57.5q44.5 29.5 69.5 81.5t25 116
q0 61 -25 112t-69.5 80.5t-99.5 29.5t-99.5 -28.5t-69.5 -79t-25 -114.5t25 -116t69 -81.5t100 -29.5q55 0 99.5 29.5zM406 580q0 -5 -3.5 -8.5t-8.5 -3.5q-7 0 -19 10l-88 68l-82 -69q-12 -10 -19 -10q-5 0 -8.5 3.5t-3.5 8.5q0 6 6 12l81 86q8 12 24 12h10q16 0 24 -12
l81 -85q6 -6 6 -12z" />
    <glyph glyph-name="uni1EA5" unicode="&#x1ea5;" horiz-adv-x="595" 
d="M506.5 493q5.5 -6 5.5 -14v-459q0 -8 -6 -14t-14 -6q-9 0 -14.5 6t-5.5 14v90q-25 -51 -77 -85.5t-115 -34.5q-66 0 -119 34.5t-83 95t-30 135.5q0 74 30.5 133.5t83.5 93t118 33.5t117 -34t75 -91v89q0 8 5.5 14t14.5 6t14.5 -6zM381.5 57.5q44.5 29.5 69.5 81.5t25 116
q0 61 -25 112t-69.5 80.5t-99.5 29.5t-99.5 -28.5t-69.5 -79t-25 -114.5t25 -116t69 -81.5t100 -29.5q55 0 99.5 29.5zM398 575q0 -5 -3.5 -8.5t-8.5 -3.5q-7 0 -19 10l-88 68l-82 -69q-12 -10 -19 -10q-5 0 -8.5 3.5t-3.5 8.5q0 6 6 12l81 86q8 12 24 12h10q16 0 24 -12
l81 -85q6 -6 6 -12zM379 649.5q-3 3.5 -3 8.5t5 13l62 93q9 16 26 16q11 0 18.5 -6.5t7.5 -18.5q0 -8 -7 -17l-75 -77q-15 -15 -26 -15q-5 0 -8 3.5z" />
    <glyph glyph-name="uni1EAD" unicode="&#x1ead;" horiz-adv-x="595" 
d="M506.5 493q5.5 -6 5.5 -14v-459q0 -8 -6 -14t-14 -6q-9 0 -14.5 6t-5.5 14v90q-25 -51 -77 -85.5t-115 -34.5q-66 0 -119 34.5t-83 95t-30 135.5q0 74 30.5 133.5t83.5 93t118 33.5t117 -34t75 -91v89q0 8 5.5 14t14.5 6t14.5 -6zM381.5 57.5q44.5 29.5 69.5 81.5t25 116
q0 61 -25 112t-69.5 80.5t-99.5 29.5t-99.5 -28.5t-69.5 -79t-25 -114.5t25 -116t69 -81.5t100 -29.5q55 0 99.5 29.5zM252.5 -121q-9.5 9 -9.5 23v8q0 14 10 23t26 9q14 0 23.5 -9t9.5 -23v-8q0 -14 -9.5 -23t-24.5 -9q-16 0 -25.5 9zM406 580q0 -5 -3.5 -8.5t-8.5 -3.5
q-7 0 -19 10l-88 68l-82 -69q-12 -10 -19 -10q-5 0 -8.5 3.5t-3.5 8.5q0 6 6 12l81 86q8 12 24 12h10q16 0 24 -12l81 -85q6 -6 6 -12z" />
    <glyph glyph-name="uni1EA7" unicode="&#x1ea7;" horiz-adv-x="595" 
d="M506.5 493q5.5 -6 5.5 -14v-459q0 -8 -6 -14t-14 -6q-9 0 -14.5 6t-5.5 14v90q-25 -51 -77 -85.5t-115 -34.5q-66 0 -119 34.5t-83 95t-30 135.5q0 74 30.5 133.5t83.5 93t118 33.5t117 -34t75 -91v89q0 8 5.5 14t14.5 6t14.5 -6zM381.5 57.5q44.5 29.5 69.5 81.5t25 116
q0 61 -25 112t-69.5 80.5t-99.5 29.5t-99.5 -28.5t-69.5 -79t-25 -114.5t25 -116t69 -81.5t100 -29.5q55 0 99.5 29.5zM390 575q0 -5 -3.5 -8.5t-8.5 -3.5q-7 0 -19 10l-88 68l-82 -69q-12 -10 -19 -10q-5 0 -8.5 3.5t-3.5 8.5q0 6 6 12l81 86q8 12 24 12h10q16 0 24 -12
l81 -85q6 -6 6 -12zM372 671l-71 79q-7 9 -7 17q0 23 22 23q17 0 26 -16l62 -93q5 -8 5 -13t-3 -8.5t-8 -3.5q-11 0 -26 15z" />
    <glyph glyph-name="uni1EA9" unicode="&#x1ea9;" horiz-adv-x="595" 
d="M506.5 493q5.5 -6 5.5 -14v-459q0 -8 -6 -14t-14 -6q-9 0 -14.5 6t-5.5 14v90q-25 -51 -77 -85.5t-115 -34.5q-66 0 -119 34.5t-83 95t-30 135.5q0 74 30.5 133.5t83.5 93t118 33.5t117 -34t75 -91v89q0 8 5.5 14t14.5 6t14.5 -6zM381.5 57.5q44.5 29.5 69.5 81.5t25 116
q0 61 -25 112t-69.5 80.5t-99.5 29.5t-99.5 -28.5t-69.5 -79t-25 -114.5t25 -116t69 -81.5t100 -29.5q55 0 99.5 29.5zM402 587q0 -5 -3.5 -8.5t-8.5 -3.5q-7 0 -19 10l-88 68l-82 -69q-12 -10 -19 -10q-5 0 -8.5 3.5t-3.5 8.5q0 6 6 12l81 86q8 12 24 12h10q16 0 24 -12
l81 -85q6 -6 6 -12zM422 797q37 0 55.5 -21.5t18.5 -47.5q0 -16 -9 -29.5t-29 -33.5q-8 -8 -9 -23q-1 -7 -5.5 -10.5t-11.5 -3.5q-8 0 -12 4.5t-4 11.5q0 25 14 40q5 5 14 14.5t13 16t4 14.5q0 13 -11 22.5t-26 9.5q-22 0 -47 -19q-10 -8 -18 -8q-7 0 -13 6q-4 6 -4 11
q0 7 7 14q32 32 73 32z" />
    <glyph glyph-name="uni1EAB" unicode="&#x1eab;" horiz-adv-x="595" 
d="M506.5 493q5.5 -6 5.5 -14v-459q0 -8 -6 -14t-14 -6q-9 0 -14.5 6t-5.5 14v90q-25 -51 -77 -85.5t-115 -34.5q-66 0 -119 34.5t-83 95t-30 135.5q0 74 30.5 133.5t83.5 93t118 33.5t117 -34t75 -91v89q0 8 5.5 14t14.5 6t14.5 -6zM381.5 57.5q44.5 29.5 69.5 81.5t25 116
q0 61 -25 112t-69.5 80.5t-99.5 29.5t-99.5 -28.5t-69.5 -79t-25 -114.5t25 -116t69 -81.5t100 -29.5q55 0 99.5 29.5zM406 575q0 -5 -3.5 -8.5t-8.5 -3.5q-7 0 -19 10l-88 68l-82 -69q-12 -10 -19 -10q-5 0 -8.5 3.5t-3.5 8.5q0 6 6 12l81 86q8 12 24 12h10q16 0 24 -12
l81 -85q6 -6 6 -12zM149 708q0 3 4 21q8 31 30 46t49 15q15 0 32 -7.5t41 -22.5q21 -12 34.5 -18.5t24.5 -6.5q30 0 36 43q1 8 6 13t13 5q17 0 17 -15q0 -5 -1 -10t-2 -9q-14 -65 -77 -65q-13 0 -29 7t-38 21q-5 3 -19 10.5t-24 11t-18 3.5q-32 0 -44 -42q-4 -14 -19 -14
q-16 0 -16 14z" />
    <glyph glyph-name="uni0201" unicode="&#x201;" horiz-adv-x="595" 
d="M506.5 493q5.5 -6 5.5 -14v-459q0 -8 -6 -14t-14 -6q-9 0 -14.5 6t-5.5 14v90q-25 -51 -77 -85.5t-115 -34.5q-66 0 -119 34.5t-83 95t-30 135.5q0 74 30.5 133.5t83.5 93t118 33.5t117 -34t75 -91v89q0 8 5.5 14t14.5 6t14.5 -6zM381.5 57.5q44.5 29.5 69.5 81.5t25 116
q0 61 -25 112t-69.5 80.5t-99.5 29.5t-99.5 -28.5t-69.5 -79t-25 -114.5t25 -116t69 -81.5t100 -29.5q55 0 99.5 29.5zM222 608l-71 79q-7 9 -7 17q0 23 22 23q17 0 26 -16l62 -93q5 -8 5 -13t-3 -8.5t-8 -3.5q-11 0 -26 15zM350 608l-71 79q-7 9 -7 17q0 23 22 23
q17 0 26 -16l62 -93q5 -8 5 -13t-3 -8.5t-8 -3.5q-11 0 -26 15z" />
    <glyph glyph-name="adieresis" unicode="&#xe4;" horiz-adv-x="595" 
d="M506.5 493q5.5 -6 5.5 -14v-459q0 -8 -6 -14t-14 -6q-9 0 -14.5 6t-5.5 14v90q-25 -51 -77 -85.5t-115 -34.5q-66 0 -119 34.5t-83 95t-30 135.5q0 74 30.5 133.5t83.5 93t118 33.5t117 -34t75 -91v89q0 8 5.5 14t14.5 6t14.5 -6zM381.5 57.5q44.5 29.5 69.5 81.5t25 116
q0 61 -25 112t-69.5 80.5t-99.5 29.5t-99.5 -28.5t-69.5 -79t-25 -114.5t25 -116t69 -81.5t100 -29.5q55 0 99.5 29.5zM169.5 599q-9.5 10 -9.5 26v8q0 16 10 26t26 10q14 0 23.5 -10t9.5 -26v-8q0 -16 -9.5 -26t-24.5 -10q-16 0 -25.5 10zM332.5 599q-9.5 10 -9.5 26v8
q0 16 10 26t26 10q14 0 23.5 -10t9.5 -26v-8q0 -16 -9.5 -26t-24.5 -10q-16 0 -25.5 10z" />
    <glyph glyph-name="uni1EA1" unicode="&#x1ea1;" horiz-adv-x="595" 
d="M506.5 493q5.5 -6 5.5 -14v-459q0 -8 -6 -14t-14 -6q-9 0 -14.5 6t-5.5 14v90q-25 -51 -77 -85.5t-115 -34.5q-66 0 -119 34.5t-83 95t-30 135.5q0 74 30.5 133.5t83.5 93t118 33.5t117 -34t75 -91v89q0 8 5.5 14t14.5 6t14.5 -6zM381.5 57.5q44.5 29.5 69.5 81.5t25 116
q0 61 -25 112t-69.5 80.5t-99.5 29.5t-99.5 -28.5t-69.5 -79t-25 -114.5t25 -116t69 -81.5t100 -29.5q55 0 99.5 29.5zM252.5 -121q-9.5 9 -9.5 23v8q0 14 10 23t26 9q14 0 23.5 -9t9.5 -23v-8q0 -14 -9.5 -23t-24.5 -9q-16 0 -25.5 9z" />
    <glyph glyph-name="agrave" unicode="&#xe0;" horiz-adv-x="595" 
d="M506.5 493q5.5 -6 5.5 -14v-459q0 -8 -6 -14t-14 -6q-9 0 -14.5 6t-5.5 14v90q-25 -51 -77 -85.5t-115 -34.5q-66 0 -119 34.5t-83 95t-30 135.5q0 74 30.5 133.5t83.5 93t118 33.5t117 -34t75 -91v89q0 8 5.5 14t14.5 6t14.5 -6zM381.5 57.5q44.5 29.5 69.5 81.5t25 116
q0 61 -25 112t-69.5 80.5t-99.5 29.5t-99.5 -28.5t-69.5 -79t-25 -114.5t25 -116t69 -81.5t100 -29.5q55 0 99.5 29.5zM263 569l-71 79q-7 9 -7 17q0 23 22 23q17 0 26 -16l62 -93q5 -8 5 -13t-3 -8.5t-8 -3.5q-11 0 -26 15z" />
    <glyph glyph-name="uni1EA3" unicode="&#x1ea3;" horiz-adv-x="595" 
d="M506.5 493q5.5 -6 5.5 -14v-459q0 -8 -6 -14t-14 -6q-9 0 -14.5 6t-5.5 14v90q-25 -51 -77 -85.5t-115 -34.5q-66 0 -119 34.5t-83 95t-30 135.5q0 74 30.5 133.5t83.5 93t118 33.5t117 -34t75 -91v89q0 8 5.5 14t14.5 6t14.5 -6zM381.5 57.5q44.5 29.5 69.5 81.5t25 116
q0 61 -25 112t-69.5 80.5t-99.5 29.5t-99.5 -28.5t-69.5 -79t-25 -114.5t25 -116t69 -81.5t100 -29.5q55 0 99.5 29.5zM291 725q37 0 55.5 -21.5t18.5 -47.5q0 -16 -9 -29.5t-29 -33.5q-8 -8 -9 -23q-1 -7 -5.5 -10.5t-11.5 -3.5q-8 0 -12 4.5t-4 11.5q0 25 14 40
q5 5 14 14.5t13 16t4 14.5q0 13 -11 22.5t-26 9.5q-22 0 -47 -19q-10 -8 -18 -8q-7 0 -13 6q-4 6 -4 11q0 7 7 14q32 32 73 32z" />
    <glyph glyph-name="uni0203" unicode="&#x203;" horiz-adv-x="595" 
d="M506.5 493q5.5 -6 5.5 -14v-459q0 -8 -6 -14t-14 -6q-9 0 -14.5 6t-5.5 14v90q-25 -51 -77 -85.5t-115 -34.5q-66 0 -119 34.5t-83 95t-30 135.5q0 74 30.5 133.5t83.5 93t118 33.5t117 -34t75 -91v89q0 8 5.5 14t14.5 6t14.5 -6zM381.5 57.5q44.5 29.5 69.5 81.5t25 116
q0 61 -25 112t-69.5 80.5t-99.5 29.5t-99.5 -28.5t-69.5 -79t-25 -114.5t25 -116t69 -81.5t100 -29.5q55 0 99.5 29.5zM358.5 693.5q27.5 -18.5 44 -48.5t16.5 -63q0 -7 -5.5 -12.5t-13.5 -5.5q-19 0 -21 20q-4 42 -27 66t-54 24t-53.5 -24.5t-27.5 -65.5q-3 -20 -21 -20
q-8 0 -13.5 5.5t-5.5 12.5q0 33 16.5 63t44 48.5t60.5 18.5t60.5 -18.5z" />
    <glyph glyph-name="amacron" unicode="&#x101;" horiz-adv-x="595" 
d="M506.5 493q5.5 -6 5.5 -14v-459q0 -8 -6 -14t-14 -6q-9 0 -14.5 6t-5.5 14v90q-25 -51 -77 -85.5t-115 -34.5q-66 0 -119 34.5t-83 95t-30 135.5q0 74 30.5 133.5t83.5 93t118 33.5t117 -34t75 -91v89q0 8 5.5 14t14.5 6t14.5 -6zM381.5 57.5q44.5 29.5 69.5 81.5t25 116
q0 61 -25 112t-69.5 80.5t-99.5 29.5t-99.5 -28.5t-69.5 -79t-25 -114.5t25 -116t69 -81.5t100 -29.5q55 0 99.5 29.5zM145 625q0 21 20 21h240q20 0 20 -21q0 -20 -20 -20h-240q-20 0 -20 20z" />
    <glyph glyph-name="aogonek" unicode="&#x105;" horiz-adv-x="593" 
d="M544 -126q4 -4 4 -10q0 -20 -20.5 -34.5t-51.5 -14.5q-35 0 -61.5 26t-26.5 66q0 42 24.5 69.5t59.5 39.5v94q-25 -51 -77 -85.5t-115 -34.5q-66 0 -119 34.5t-83 95t-30 135.5q0 74 30.5 133.5t83.5 93t118 33.5t117 -34t75 -91v89q0 8 5.5 14t14.5 6t14.5 -6t5.5 -14
v-459q0 -18 -28 -28q-24 -8 -41 -30t-17 -47q0 -29 16.5 -46t38.5 -17q12 0 19.5 2.5t12.5 9.5q4 5 9 9.5t12 4.5q6 0 10 -4zM381.5 57.5q44.5 29.5 69.5 81.5t25 116q0 61 -25 112t-69.5 80.5t-99.5 29.5t-99.5 -28.5t-69.5 -79t-25 -114.5t25 -116t69 -81.5t100 -29.5
q55 0 99.5 29.5z" />
    <glyph glyph-name="aring" unicode="&#xe5;" horiz-adv-x="595" 
d="M506.5 493q5.5 -6 5.5 -14v-459q0 -8 -6 -14t-14 -6q-9 0 -14.5 6t-5.5 14v90q-25 -51 -77 -85.5t-115 -34.5q-66 0 -119 34.5t-83 95t-30 135.5q0 74 30.5 133.5t83.5 93t118 33.5t117 -34t75 -91v89q0 8 5.5 14t14.5 6t14.5 -6zM381.5 57.5q44.5 29.5 69.5 81.5t25 116
q0 61 -25 112t-69.5 80.5t-99.5 29.5t-99.5 -28.5t-69.5 -79t-25 -114.5t25 -116t69 -81.5t100 -29.5q55 0 99.5 29.5zM219.5 577.5q-29.5 27.5 -29.5 66.5t29.5 66.5t68.5 27.5t68.5 -27.5t29.5 -66.5t-29.5 -66.5t-68.5 -27.5t-68.5 27.5zM331.5 600.5
q18.5 18.5 18.5 43.5q0 26 -18.5 44t-43.5 18q-26 0 -44 -18t-18 -44q0 -25 18 -43.5t44 -18.5q25 0 43.5 18.5z" />
    <glyph glyph-name="aringacute" unicode="&#x1fb;" horiz-adv-x="595" 
d="M506.5 493q5.5 -6 5.5 -14v-459q0 -8 -6 -14t-14 -6q-9 0 -14.5 6t-5.5 14v90q-25 -51 -77 -85.5t-115 -34.5q-66 0 -119 34.5t-83 95t-30 135.5q0 74 30.5 133.5t83.5 93t118 33.5t117 -34t75 -91v89q0 8 5.5 14t14.5 6t14.5 -6zM381.5 57.5q44.5 29.5 69.5 81.5t25 116
q0 61 -25 112t-69.5 80.5t-99.5 29.5t-99.5 -28.5t-69.5 -79t-25 -114.5t25 -116t69 -81.5t100 -29.5q55 0 99.5 29.5zM240.5 577.5q-29.5 27.5 -29.5 66.5t29.5 66.5t68.5 27.5t68.5 -27.5t29.5 -66.5t-29.5 -66.5t-68.5 -27.5t-68.5 27.5zM352.5 600.5
q18.5 18.5 18.5 43.5q0 26 -18.5 44t-43.5 18q-26 0 -44 -18t-18 -44q0 -25 18 -43.5t44 -18.5q25 0 43.5 18.5zM304 778.5q-3 3.5 -3 8.5q0 8 9 15l90 67q10 8 22 8q11 0 17 -7t6 -17q0 -16 -14 -24l-97 -47q-14 -7 -21 -7q-6 0 -9 3.5z" />
    <glyph glyph-name="atilde" unicode="&#xe3;" horiz-adv-x="595" 
d="M506.5 493q5.5 -6 5.5 -14v-459q0 -8 -6 -14t-14 -6q-9 0 -14.5 6t-5.5 14v90q-25 -51 -77 -85.5t-115 -34.5q-66 0 -119 34.5t-83 95t-30 135.5q0 74 30.5 133.5t83.5 93t118 33.5t117 -34t75 -91v89q0 8 5.5 14t14.5 6t14.5 -6zM381.5 57.5q44.5 29.5 69.5 81.5t25 116
q0 61 -25 112t-69.5 80.5t-99.5 29.5t-99.5 -28.5t-69.5 -79t-25 -114.5t25 -116t69 -81.5t100 -29.5q55 0 99.5 29.5zM145 592q0 3 4 21q8 31 30 46t49 15q15 0 32 -7.5t41 -22.5q21 -12 34.5 -18.5t24.5 -6.5q30 0 36 43q1 8 6 13t13 5q17 0 17 -15q0 -5 -1 -10t-2 -9
q-14 -65 -77 -65q-13 0 -29 7t-38 21q-5 3 -19 10.5t-24 11t-18 3.5q-32 0 -44 -42q-4 -14 -19 -14q-16 0 -16 14z" />
    <glyph glyph-name="ae" unicode="&#xe6;" horiz-adv-x="887" 
d="M829 114.5q5 -5.5 5 -12.5t-4 -12q-33 -44 -82 -72t-105 -28q-75 0 -133.5 33t-90.5 92q-89 -125 -221 -125q-37 0 -71.5 17t-56.5 50t-22 79q0 79 70.5 123.5t201.5 44.5h70v66q0 60 -35.5 83.5t-88.5 23.5q-48 0 -97 -28.5t-73 -64.5q-7 -9 -17 -9q-7 0 -12 5.5
t-5 12.5t4 12q34 44 89 77t111 33q67 0 110.5 -26.5t48.5 -85.5q31 53 81.5 82.5t106.5 29.5q59 0 109.5 -25.5t82.5 -76.5t34 -126q0 -8 -6 -14.5t-14 -6.5h-393v-13q0 -62 25 -113.5t74 -81.5t118 -30q48 0 90.5 23.5t66.5 59.5q8 9 17 9q7 0 12 -5.5zM537.5 455.5
q-38.5 -19.5 -68 -58t-39.5 -93.5h368v9q-5 51 -32.5 87.5t-68 55.5t-84.5 19q-37 0 -75.5 -19.5zM283 48q41 20 73 49t46 56q-15 44 -15 97v16h-65q-112 0 -173 -33.5t-61 -92.5q0 -36 17 -61.5t43.5 -38t53.5 -12.5q40 0 81 20z" />
    <glyph glyph-name="aeacute" unicode="&#x1fd;" horiz-adv-x="887" 
d="M829 114.5q5 -5.5 5 -12.5t-4 -12q-33 -44 -82 -72t-105 -28q-75 0 -133.5 33t-90.5 92q-89 -125 -221 -125q-37 0 -71.5 17t-56.5 50t-22 79q0 79 70.5 123.5t201.5 44.5h70v66q0 60 -35.5 83.5t-88.5 23.5q-48 0 -97 -28.5t-73 -64.5q-7 -9 -17 -9q-7 0 -12 5.5
t-5 12.5t4 12q34 44 89 77t111 33q67 0 110.5 -26.5t48.5 -85.5q31 53 81.5 82.5t106.5 29.5q59 0 109.5 -25.5t82.5 -76.5t34 -126q0 -8 -6 -14.5t-14 -6.5h-393v-13q0 -62 25 -113.5t74 -81.5t118 -30q48 0 90.5 23.5t66.5 59.5q8 9 17 9q7 0 12 -5.5zM537.5 455.5
q-38.5 -19.5 -68 -58t-39.5 -93.5h368v9q-5 51 -32.5 87.5t-68 55.5t-84.5 19q-37 0 -75.5 -19.5zM283 48q41 20 73 49t46 56q-15 44 -15 97v16h-65q-112 0 -173 -33.5t-61 -92.5q0 -36 17 -61.5t43.5 -38t53.5 -12.5q40 0 81 20zM431 565.5q-3 3.5 -3 8.5t5 13l62 93
q9 16 26 16q11 0 18.5 -6.5t7.5 -18.5q0 -8 -7 -17l-75 -77q-15 -15 -26 -15q-5 0 -8 3.5z" />
    <glyph glyph-name="b" unicode="b" horiz-adv-x="595" 
d="M434 481.5q53 -33.5 83 -93t30 -133.5t-30.5 -134.5t-83.5 -95.5t-118 -35q-59 0 -109 31.5t-83 87.5v-89q0 -8 -5.5 -14t-14.5 -6q-8 0 -14 6t-6 14v699q0 8 5.5 14t14.5 6t14.5 -6t5.5 -14v-326q30 59 80.5 90.5t111.5 31.5q66 0 119 -33.5zM412 58q44 30 69.5 81.5
t25.5 115.5t-25.5 114.5t-69.5 79t-99 28.5q-56 0 -100.5 -28.5t-69 -79t-24.5 -114.5t25 -116t69 -81.5t100 -29.5q55 0 99 30z" />
    <glyph glyph-name="c" unicode="c" horiz-adv-x="513" 
d="M383.5 505q40.5 -10 65 -26.5t24.5 -34.5q0 -8 -5.5 -14t-13.5 -6q-9 0 -13.5 3t-12.5 11q-13 15 -27 22q-36 17 -102 17q-57 0 -105.5 -30t-77 -81.5t-28.5 -112.5q0 -64 26.5 -115.5t75 -80.5t109.5 -29q40 0 63 7t46 20q16 10 28 22q5 5 10 8.5t10 3.5q8 0 12.5 -5
t4.5 -13q0 -14 -23 -33.5t-63.5 -33.5t-90.5 -14q-72 0 -128.5 34t-88 94t-31.5 135q0 70 31.5 130t89 96t131.5 36q43 0 83.5 -10z" />
    <glyph glyph-name="cacute" unicode="&#x107;" horiz-adv-x="513" 
d="M383.5 505q40.5 -10 65 -26.5t24.5 -34.5q0 -8 -5.5 -14t-13.5 -6q-9 0 -13.5 3t-12.5 11q-13 15 -27 22q-36 17 -102 17q-57 0 -105.5 -30t-77 -81.5t-28.5 -112.5q0 -64 26.5 -115.5t75 -80.5t109.5 -29q40 0 63 7t46 20q16 10 28 22q5 5 10 8.5t10 3.5q8 0 12.5 -5
t4.5 -13q0 -14 -23 -33.5t-63.5 -33.5t-90.5 -14q-72 0 -128.5 34t-88 94t-31.5 135q0 70 31.5 130t89 96t131.5 36q43 0 83.5 -10zM271 549.5q-3 3.5 -3 8.5t5 13l62 93q9 16 26 16q11 0 18.5 -6.5t7.5 -18.5q0 -8 -7 -17l-75 -77q-15 -15 -26 -15q-5 0 -8 3.5z" />
    <glyph glyph-name="ccaron" unicode="&#x10d;" horiz-adv-x="513" 
d="M383.5 505q40.5 -10 65 -26.5t24.5 -34.5q0 -8 -5.5 -14t-13.5 -6q-9 0 -13.5 3t-12.5 11q-13 15 -27 22q-36 17 -102 17q-57 0 -105.5 -30t-77 -81.5t-28.5 -112.5q0 -64 26.5 -115.5t75 -80.5t109.5 -29q40 0 63 7t46 20q16 10 28 22q5 5 10 8.5t10 3.5q8 0 12.5 -5
t4.5 -13q0 -14 -23 -33.5t-63.5 -33.5t-90.5 -14q-72 0 -128.5 34t-88 94t-31.5 135q0 70 31.5 130t89 96t131.5 36q43 0 83.5 -10zM408.5 676.5q3.5 -3.5 3.5 -8.5q0 -6 -6 -12l-81 -86q-8 -12 -24 -12h-10q-16 0 -24 12l-81 85q-6 6 -6 12q0 5 3.5 8.5t8.5 3.5q7 0 19 -10
l88 -68l82 69q12 10 19 10q5 0 8.5 -3.5z" />
    <glyph glyph-name="ccedilla" unicode="&#xe7;" horiz-adv-x="513" 
d="M468.5 84q4.5 -5 4.5 -13q0 -13 -21 -31.5t-58.5 -33t-84.5 -16.5l-57 -116q-7 -15 -21 -15q-9 0 -22 8t-13 19q0 9 5 14l74 91q-67 5 -118.5 40t-80 93t-28.5 129q0 70 31.5 130t89 96t131.5 36q43 0 83.5 -10t65 -26.5t24.5 -34.5q0 -8 -5.5 -14t-13.5 -6q-9 0 -13.5 3
t-12.5 11q-13 15 -27 22q-36 17 -102 17q-57 0 -105.5 -30t-77 -81.5t-28.5 -112.5q0 -64 26.5 -115.5t75 -80.5t109.5 -29q40 0 63 7t46 20q16 10 28 22q5 5 10 8.5t10 3.5q8 0 12.5 -5z" />
    <glyph glyph-name="uni1E09" unicode="&#x1e09;" horiz-adv-x="513" 
d="M271 549.5q-3 3.5 -3 8.5t5 13l62 93q9 16 26 16q11 0 18.5 -6.5t7.5 -18.5q0 -8 -7 -17l-75 -77q-15 -15 -26 -15q-5 0 -8 3.5zM468.5 84q4.5 -5 4.5 -13q0 -13 -21 -31.5t-58.5 -33t-84.5 -16.5l-57 -116q-7 -15 -21 -15q-9 0 -22 8t-13 19q0 9 5 14l74 91
q-67 5 -118.5 40t-80 93t-28.5 129q0 70 31.5 130t89 96t131.5 36q43 0 83.5 -10t65 -26.5t24.5 -34.5q0 -8 -5.5 -14t-13.5 -6q-9 0 -13.5 3t-12.5 11q-13 15 -27 22q-36 17 -102 17q-57 0 -105.5 -30t-77 -81.5t-28.5 -112.5q0 -64 26.5 -115.5t75 -80.5t109.5 -29
q40 0 63 7t46 20q16 10 28 22q5 5 10 8.5t10 3.5q8 0 12.5 -5z" />
    <glyph glyph-name="ccircumflex" unicode="&#x109;" horiz-adv-x="513" 
d="M383.5 505q40.5 -10 65 -26.5t24.5 -34.5q0 -8 -5.5 -14t-13.5 -6q-9 0 -13.5 3t-12.5 11q-13 15 -27 22q-36 17 -102 17q-57 0 -105.5 -30t-77 -81.5t-28.5 -112.5q0 -64 26.5 -115.5t75 -80.5t109.5 -29q40 0 63 7t46 20q16 10 28 22q5 5 10 8.5t10 3.5q8 0 12.5 -5
t4.5 -13q0 -14 -23 -33.5t-63.5 -33.5t-90.5 -14q-72 0 -128.5 34t-88 94t-31.5 135q0 70 31.5 130t89 96t131.5 36q43 0 83.5 -10zM415 580q0 -5 -3.5 -8.5t-8.5 -3.5q-7 0 -19 10l-88 68l-82 -69q-12 -10 -19 -10q-5 0 -8.5 3.5t-3.5 8.5q0 6 6 12l81 86q8 12 24 12h10
q16 0 24 -12l81 -85q6 -6 6 -12z" />
    <glyph glyph-name="cdotaccent" unicode="&#x10b;" horiz-adv-x="513" 
d="M383.5 505q40.5 -10 65 -26.5t24.5 -34.5q0 -8 -5.5 -14t-13.5 -6q-9 0 -13.5 3t-12.5 11q-13 15 -27 22q-36 17 -102 17q-57 0 -105.5 -30t-77 -81.5t-28.5 -112.5q0 -64 26.5 -115.5t75 -80.5t109.5 -29q40 0 63 7t46 20q16 10 28 22q5 5 10 8.5t10 3.5q8 0 12.5 -5
t4.5 -13q0 -14 -23 -33.5t-63.5 -33.5t-90.5 -14q-72 0 -128.5 34t-88 94t-31.5 135q0 70 31.5 130t89 96t131.5 36q43 0 83.5 -10zM271.5 592q-9.5 9 -9.5 23v8q0 14 10 23t26 9q14 0 23.5 -9t9.5 -23v-8q0 -14 -9.5 -23t-24.5 -9q-16 0 -25.5 9z" />
    <glyph glyph-name="d" unicode="d" horiz-adv-x="595" 
d="M506.5 734q5.5 -6 5.5 -14v-700q0 -8 -6 -14t-14 -6q-9 0 -14.5 6t-5.5 14v95q-24 -53 -76 -89t-116 -36q-65 0 -118 34.5t-83.5 94.5t-30.5 134t30.5 134t83.5 94t118 34q62 0 115 -35t77 -91v331q0 8 5.5 14t14.5 6t14.5 -6zM382 57q44 29 69 80.5t25 115.5t-25 115
t-69.5 80t-99.5 29q-54 0 -98.5 -29t-70 -80.5t-25.5 -114.5q0 -64 25.5 -115t69.5 -80.5t99 -29.5q56 0 100 29z" />
    <glyph glyph-name="eth" unicode="&#xf0;" horiz-adv-x="561" 
d="M483.5 450.5q29.5 -93.5 29.5 -165.5q0 -82 -31 -147t-84.5 -102t-117.5 -37q-63 0 -116.5 35.5t-84.5 96t-31 130.5q0 69 31 127t84 91.5t117 33.5q56 0 98 -26t71 -70q-30 112 -93 185l-2 -1l-123 -48l-8 -2q-13 0 -18 13q-1 3 -1 8q0 13 13 18l106 41l2 1
q-62 54 -142 68q-16 5 -16 18q0 22 18 22q5 0 7 -1q98 -21 173 -92l89 35q6 2 9 2q5 0 10 -3.5t7 -9.5q1 -3 1 -8q0 -13 -13 -18l-74 -29q60 -72 89.5 -165.5zM375.5 68q44.5 31 70.5 82.5t26 110.5q0 55 -26 104.5t-70 79.5t-96 30q-53 0 -97 -28.5t-69.5 -77.5t-25.5 -108
t26 -110.5t70.5 -82.5t95.5 -31t95.5 31z" />
    <glyph glyph-name="dcaron" unicode="&#x10f;" horiz-adv-x="688" 
d="M506.5 734q5.5 -6 5.5 -14v-700q0 -8 -6 -14t-14 -6q-9 0 -14.5 6t-5.5 14v95q-24 -53 -76 -89t-116 -36q-65 0 -118 34.5t-83.5 94.5t-30.5 134t30.5 134t83.5 94t118 34q62 0 115 -35t77 -91v331q0 8 5.5 14t14.5 6t14.5 -6zM382 57q44 29 69 80.5t25 115.5t-25 115
t-69.5 80t-99.5 29q-54 0 -98.5 -29t-70 -80.5t-25.5 -114.5q0 -64 25.5 -115t69.5 -80.5t99 -29.5q56 0 100 29zM674.5 559.5q-13.5 -26.5 -34 -42t-38.5 -15.5q-7 0 -12.5 4t-5.5 12q0 9 4 12t14.5 6t16.5 6q14 7 21.5 22t7.5 31q0 24 -17 24q-15 0 -26 -9q-8 10 -8 20
q0 13 13.5 23t30.5 10q21 0 34 -13t13 -34q0 -30 -13.5 -56.5z" />
    <glyph glyph-name="dcroat" unicode="&#x111;" horiz-adv-x="595" 
d="M568 614q0 -18 -20 -18h-36v-576q0 -8 -6 -14t-14 -6q-9 0 -14.5 6t-5.5 14v95q-24 -53 -76 -89t-116 -36q-65 0 -118 34.5t-83.5 94.5t-30.5 134t30.5 134t83.5 94t118 34q62 0 115 -35t77 -91v207h-84q-20 0 -20 19t20 19h84v86q0 8 5.5 14t14.5 6t14.5 -6t5.5 -14v-86
h36q20 0 20 -20zM382 57q44 29 69 80.5t25 115.5t-25 115t-69.5 80t-99.5 29q-54 0 -98.5 -29t-70 -80.5t-25.5 -114.5q0 -64 25.5 -115t69.5 -80.5t99 -29.5q56 0 100 29z" />
    <glyph glyph-name="uni1E0D" unicode="&#x1e0d;" horiz-adv-x="595" 
d="M506.5 734q5.5 -6 5.5 -14v-700q0 -8 -6 -14t-14 -6q-9 0 -14.5 6t-5.5 14v95q-24 -53 -76 -89t-116 -36q-65 0 -118 34.5t-83.5 94.5t-30.5 134t30.5 134t83.5 94t118 34q62 0 115 -35t77 -91v331q0 8 5.5 14t14.5 6t14.5 -6zM382 57q44 29 69 80.5t25 115.5t-25 115
t-69.5 80t-99.5 29q-54 0 -98.5 -29t-70 -80.5t-25.5 -114.5q0 -64 25.5 -115t69.5 -80.5t99 -29.5q56 0 100 29zM272.5 -121q-9.5 9 -9.5 23v8q0 14 10 23t26 9q14 0 23.5 -9t9.5 -23v-8q0 -14 -9.5 -23t-24.5 -9q-16 0 -25.5 9z" />
    <glyph glyph-name="uni1E0F" unicode="&#x1e0f;" horiz-adv-x="595" 
d="M506.5 734q5.5 -6 5.5 -14v-700q0 -8 -6 -14t-14 -6q-9 0 -14.5 6t-5.5 14v95q-24 -53 -76 -89t-116 -36q-65 0 -118 34.5t-83.5 94.5t-30.5 134t30.5 134t83.5 94t118 34q62 0 115 -35t77 -91v331q0 8 5.5 14t14.5 6t14.5 -6zM382 57q44 29 69 80.5t25 115.5t-25 115
t-69.5 80t-99.5 29q-54 0 -98.5 -29t-70 -80.5t-25.5 -114.5q0 -64 25.5 -115t69.5 -80.5t99 -29.5q56 0 100 29zM156 -99q0 19 20 19h230q20 0 20 -19q0 -18 -20 -18h-230q-20 0 -20 18z" />
    <glyph glyph-name="uni01C6" unicode="&#x1c6;" horiz-adv-x="1072" 
d="M506.5 734q5.5 -6 5.5 -14v-700q0 -8 -6 -14t-14 -6q-9 0 -14.5 6t-5.5 14v95q-24 -53 -76 -89t-116 -36q-65 0 -118 34.5t-83.5 94.5t-30.5 134t30.5 134t83.5 94t118 34q62 0 115 -35t77 -91v331q0 8 5.5 14t14.5 6t14.5 -6zM382 57q44 29 69 80.5t25 115.5t-25 115
t-69.5 80t-99.5 29q-54 0 -98.5 -29t-70 -80.5t-25.5 -114.5q0 -64 25.5 -115t69.5 -80.5t99 -29.5q56 0 100 29zM1017 481l-316 -443h291q8 0 14 -6t6 -13q0 -8 -6 -13.5t-14 -5.5h-326q-9 0 -15 7t-6 13t5 13l316 444h-270q-8 0 -14 5.5t-6 13.5t6 13.5t14 5.5h306
q8 0 13.5 -6t6.5 -14q0 -7 -5 -14zM968.5 676.5q3.5 -3.5 3.5 -8.5q0 -6 -6 -12l-81 -86q-8 -12 -24 -12h-10q-16 0 -24 12l-81 85q-6 6 -6 12q0 5 3.5 8.5t8.5 3.5q7 0 19 -10l88 -68l82 69q12 10 19 10q5 0 8.5 -3.5z" />
    <glyph glyph-name="e" unicode="e" horiz-adv-x="548" 
d="M490 114.5q5 -5.5 5 -12.5t-4 -12q-33 -44 -82 -72t-105 -28q-75 0 -133 32t-90.5 91t-32.5 137q0 80 31.5 140.5t83.5 92.5t111 32t109.5 -25.5t82.5 -76.5t34 -126q0 -8 -6 -14.5t-14 -6.5h-393v-13q0 -62 25 -113.5t74 -81.5t118 -30q48 0 90.5 23.5t66.5 59.5
q7 9 17 9q7 0 12 -5.5zM198.5 455.5q-38.5 -19.5 -68 -58t-39.5 -93.5h368v9q-5 51 -32.5 87.5t-68 55.5t-84.5 19q-37 0 -75.5 -19.5z" />
    <glyph glyph-name="eacute" unicode="&#xe9;" horiz-adv-x="548" 
d="M490 114.5q5 -5.5 5 -12.5t-4 -12q-33 -44 -82 -72t-105 -28q-75 0 -133 32t-90.5 91t-32.5 137q0 80 31.5 140.5t83.5 92.5t111 32t109.5 -25.5t82.5 -76.5t34 -126q0 -8 -6 -14.5t-14 -6.5h-393v-13q0 -62 25 -113.5t74 -81.5t118 -30q48 0 90.5 23.5t66.5 59.5
q7 9 17 9q7 0 12 -5.5zM198.5 455.5q-38.5 -19.5 -68 -58t-39.5 -93.5h368v9q-5 51 -32.5 87.5t-68 55.5t-84.5 19q-37 0 -75.5 -19.5zM255 549.5q-3 3.5 -3 8.5t5 13l62 93q9 16 26 16q11 0 18.5 -6.5t7.5 -18.5q0 -8 -7 -17l-75 -77q-15 -15 -26 -15q-5 0 -8 3.5z" />
    <glyph glyph-name="ebreve" unicode="&#x115;" horiz-adv-x="548" 
d="M490 114.5q5 -5.5 5 -12.5t-4 -12q-33 -44 -82 -72t-105 -28q-75 0 -133 32t-90.5 91t-32.5 137q0 80 31.5 140.5t83.5 92.5t111 32t109.5 -25.5t82.5 -76.5t34 -126q0 -8 -6 -14.5t-14 -6.5h-393v-13q0 -62 25 -113.5t74 -81.5t118 -30q48 0 90.5 23.5t66.5 59.5
q7 9 17 9q7 0 12 -5.5zM198.5 455.5q-38.5 -19.5 -68 -58t-39.5 -93.5h368v9q-5 51 -32.5 87.5t-68 55.5t-84.5 19q-37 0 -75.5 -19.5zM210.5 591.5q-27.5 18.5 -44 48.5t-16.5 63q0 7 5.5 12.5t13.5 5.5q19 0 21 -20q4 -42 27 -66t54 -24t53.5 24.5t27.5 65.5q3 20 21 20
q8 0 13.5 -5.5t5.5 -12.5q0 -33 -16.5 -63t-44 -48.5t-60.5 -18.5t-60.5 18.5z" />
    <glyph glyph-name="ecaron" unicode="&#x11b;" horiz-adv-x="548" 
d="M490 114.5q5 -5.5 5 -12.5t-4 -12q-33 -44 -82 -72t-105 -28q-75 0 -133 32t-90.5 91t-32.5 137q0 80 31.5 140.5t83.5 92.5t111 32t109.5 -25.5t82.5 -76.5t34 -126q0 -8 -6 -14.5t-14 -6.5h-393v-13q0 -62 25 -113.5t74 -81.5t118 -30q48 0 90.5 23.5t66.5 59.5
q7 9 17 9q7 0 12 -5.5zM198.5 455.5q-38.5 -19.5 -68 -58t-39.5 -93.5h368v9q-5 51 -32.5 87.5t-68 55.5t-84.5 19q-37 0 -75.5 -19.5zM392.5 676.5q3.5 -3.5 3.5 -8.5q0 -6 -6 -12l-81 -86q-8 -12 -24 -12h-10q-16 0 -24 12l-81 85q-6 6 -6 12q0 5 3.5 8.5t8.5 3.5
q7 0 19 -10l88 -68l82 69q12 10 19 10q5 0 8.5 -3.5z" />
    <glyph glyph-name="uni1E1D" unicode="&#x1e1d;" horiz-adv-x="548" 
d="M210.5 591.5q-27.5 18.5 -44 48.5t-16.5 63q0 7 5.5 12.5t13.5 5.5q19 0 21 -20q4 -42 27 -66t54 -24t53.5 24.5t27.5 65.5q3 20 21 20q8 0 13.5 -5.5t5.5 -12.5q0 -33 -16.5 -63t-44 -48.5t-60.5 -18.5t-60.5 18.5zM490 114.5q5 -5.5 5 -12.5t-4 -12q-30 -39 -72.5 -66
t-91.5 -33l-58 -117q-7 -15 -21 -15q-9 0 -22 8t-13 19q0 9 5 14l74 90q-72 3 -127 36t-86 90.5t-31 133.5q0 80 31.5 140.5t83.5 92.5t111 32t109.5 -25.5t82.5 -76.5t34 -126q0 -8 -6 -14.5t-14 -6.5h-393v-13q0 -62 25 -113.5t74 -81.5t118 -30q48 0 90.5 23.5t66.5 59.5
q7 9 17 9q7 0 12 -5.5zM198.5 455.5q-38.5 -19.5 -68 -58t-39.5 -93.5h368v9q-5 51 -32.5 87.5t-68 55.5t-84.5 19q-37 0 -75.5 -19.5z" />
    <glyph glyph-name="ecircumflex" unicode="&#xea;" horiz-adv-x="548" 
d="M490 114.5q5 -5.5 5 -12.5t-4 -12q-33 -44 -82 -72t-105 -28q-75 0 -133 32t-90.5 91t-32.5 137q0 80 31.5 140.5t83.5 92.5t111 32t109.5 -25.5t82.5 -76.5t34 -126q0 -8 -6 -14.5t-14 -6.5h-393v-13q0 -62 25 -113.5t74 -81.5t118 -30q48 0 90.5 23.5t66.5 59.5
q7 9 17 9q7 0 12 -5.5zM198.5 455.5q-38.5 -19.5 -68 -58t-39.5 -93.5h368v9q-5 51 -32.5 87.5t-68 55.5t-84.5 19q-37 0 -75.5 -19.5zM399 580q0 -5 -3.5 -8.5t-8.5 -3.5q-7 0 -19 10l-88 68l-82 -69q-12 -10 -19 -10q-5 0 -8.5 3.5t-3.5 8.5q0 6 6 12l81 86q8 12 24 12h10
q16 0 24 -12l81 -85q6 -6 6 -12z" />
    <glyph glyph-name="uni1EBF" unicode="&#x1ebf;" horiz-adv-x="548" 
d="M490 114.5q5 -5.5 5 -12.5t-4 -12q-33 -44 -82 -72t-105 -28q-75 0 -133 32t-90.5 91t-32.5 137q0 80 31.5 140.5t83.5 92.5t111 32t109.5 -25.5t82.5 -76.5t34 -126q0 -8 -6 -14.5t-14 -6.5h-393v-13q0 -62 25 -113.5t74 -81.5t118 -30q48 0 90.5 23.5t66.5 59.5
q7 9 17 9q7 0 12 -5.5zM198.5 455.5q-38.5 -19.5 -68 -58t-39.5 -93.5h368v9q-5 51 -32.5 87.5t-68 55.5t-84.5 19q-37 0 -75.5 -19.5zM391 575q0 -5 -3.5 -8.5t-8.5 -3.5q-7 0 -19 10l-88 68l-82 -69q-12 -10 -19 -10q-5 0 -8.5 3.5t-3.5 8.5q0 6 6 12l81 86q8 12 24 12h10
q16 0 24 -12l81 -85q6 -6 6 -12zM372 649.5q-3 3.5 -3 8.5t5 13l62 93q9 16 26 16q11 0 18.5 -6.5t7.5 -18.5q0 -8 -7 -17l-75 -77q-15 -15 -26 -15q-5 0 -8 3.5z" />
    <glyph glyph-name="uni1EC7" unicode="&#x1ec7;" horiz-adv-x="548" 
d="M490 114.5q5 -5.5 5 -12.5t-4 -12q-33 -44 -82 -72t-105 -28q-75 0 -133 32t-90.5 91t-32.5 137q0 80 31.5 140.5t83.5 92.5t111 32t109.5 -25.5t82.5 -76.5t34 -126q0 -8 -6 -14.5t-14 -6.5h-393v-13q0 -62 25 -113.5t74 -81.5t118 -30q48 0 90.5 23.5t66.5 59.5
q7 9 17 9q7 0 12 -5.5zM198.5 455.5q-38.5 -19.5 -68 -58t-39.5 -93.5h368v9q-5 51 -32.5 87.5t-68 55.5t-84.5 19q-37 0 -75.5 -19.5zM248.5 -121q-9.5 9 -9.5 23v8q0 14 10 23t26 9q14 0 23.5 -9t9.5 -23v-8q0 -14 -9.5 -23t-24.5 -9q-16 0 -25.5 9zM399 580
q0 -5 -3.5 -8.5t-8.5 -3.5q-7 0 -19 10l-88 68l-82 -69q-12 -10 -19 -10q-5 0 -8.5 3.5t-3.5 8.5q0 6 6 12l81 86q8 12 24 12h10q16 0 24 -12l81 -85q6 -6 6 -12z" />
    <glyph glyph-name="uni1EC1" unicode="&#x1ec1;" horiz-adv-x="548" 
d="M490 114.5q5 -5.5 5 -12.5t-4 -12q-33 -44 -82 -72t-105 -28q-75 0 -133 32t-90.5 91t-32.5 137q0 80 31.5 140.5t83.5 92.5t111 32t109.5 -25.5t82.5 -76.5t34 -126q0 -8 -6 -14.5t-14 -6.5h-393v-13q0 -62 25 -113.5t74 -81.5t118 -30q48 0 90.5 23.5t66.5 59.5
q7 9 17 9q7 0 12 -5.5zM198.5 455.5q-38.5 -19.5 -68 -58t-39.5 -93.5h368v9q-5 51 -32.5 87.5t-68 55.5t-84.5 19q-37 0 -75.5 -19.5zM383 575q0 -5 -3.5 -8.5t-8.5 -3.5q-7 0 -19 10l-88 68l-82 -69q-12 -10 -19 -10q-5 0 -8.5 3.5t-3.5 8.5q0 6 6 12l81 86q8 12 24 12h10
q16 0 24 -12l81 -85q6 -6 6 -12zM365 671l-71 79q-7 9 -7 17q0 23 22 23q17 0 26 -16l62 -93q5 -8 5 -13t-3 -8.5t-8 -3.5q-11 0 -26 15z" />
    <glyph glyph-name="uni1EC3" unicode="&#x1ec3;" horiz-adv-x="548" 
d="M490 114.5q5 -5.5 5 -12.5t-4 -12q-33 -44 -82 -72t-105 -28q-75 0 -133 32t-90.5 91t-32.5 137q0 80 31.5 140.5t83.5 92.5t111 32t109.5 -25.5t82.5 -76.5t34 -126q0 -8 -6 -14.5t-14 -6.5h-393v-13q0 -62 25 -113.5t74 -81.5t118 -30q48 0 90.5 23.5t66.5 59.5
q7 9 17 9q7 0 12 -5.5zM198.5 455.5q-38.5 -19.5 -68 -58t-39.5 -93.5h368v9q-5 51 -32.5 87.5t-68 55.5t-84.5 19q-37 0 -75.5 -19.5zM395 587q0 -5 -3.5 -8.5t-8.5 -3.5q-7 0 -19 10l-88 68l-82 -69q-12 -10 -19 -10q-5 0 -8.5 3.5t-3.5 8.5q0 6 6 12l81 86q8 12 24 12h10
q16 0 24 -12l81 -85q6 -6 6 -12zM415 797q37 0 55.5 -21.5t18.5 -47.5q0 -16 -9 -29.5t-29 -33.5q-8 -8 -9 -23q-1 -7 -5.5 -10.5t-11.5 -3.5q-8 0 -12 4.5t-4 11.5q0 25 14 40q5 5 14 14.5t13 16t4 14.5q0 13 -11 22.5t-26 9.5q-22 0 -47 -19q-10 -8 -18 -8q-7 0 -13 6
q-4 6 -4 11q0 7 7 14q32 32 73 32z" />
    <glyph glyph-name="uni1EC5" unicode="&#x1ec5;" horiz-adv-x="548" 
d="M490 114.5q5 -5.5 5 -12.5t-4 -12q-33 -44 -82 -72t-105 -28q-75 0 -133 32t-90.5 91t-32.5 137q0 80 31.5 140.5t83.5 92.5t111 32t109.5 -25.5t82.5 -76.5t34 -126q0 -8 -6 -14.5t-14 -6.5h-393v-13q0 -62 25 -113.5t74 -81.5t118 -30q48 0 90.5 23.5t66.5 59.5
q7 9 17 9q7 0 12 -5.5zM198.5 455.5q-38.5 -19.5 -68 -58t-39.5 -93.5h368v9q-5 51 -32.5 87.5t-68 55.5t-84.5 19q-37 0 -75.5 -19.5zM399 575q0 -5 -3.5 -8.5t-8.5 -3.5q-7 0 -19 10l-88 68l-82 -69q-12 -10 -19 -10q-5 0 -8.5 3.5t-3.5 8.5q0 6 6 12l81 86q8 12 24 12h10
q16 0 24 -12l81 -85q6 -6 6 -12zM142 708q0 3 4 21q8 31 30 46t49 15q15 0 32 -7.5t41 -22.5q21 -12 34.5 -18.5t24.5 -6.5q30 0 36 43q1 8 6 13t13 5q17 0 17 -15q0 -5 -1 -10t-2 -9q-14 -65 -77 -65q-13 0 -29 7t-38 21q-5 3 -19 10.5t-24 11t-18 3.5q-32 0 -44 -42
q-4 -14 -19 -14q-16 0 -16 14z" />
    <glyph glyph-name="uni0205" unicode="&#x205;" horiz-adv-x="548" 
d="M490 114.5q5 -5.5 5 -12.5t-4 -12q-33 -44 -82 -72t-105 -28q-75 0 -133 32t-90.5 91t-32.5 137q0 80 31.5 140.5t83.5 92.5t111 32t109.5 -25.5t82.5 -76.5t34 -126q0 -8 -6 -14.5t-14 -6.5h-393v-13q0 -62 25 -113.5t74 -81.5t118 -30q48 0 90.5 23.5t66.5 59.5
q7 9 17 9q7 0 12 -5.5zM198.5 455.5q-38.5 -19.5 -68 -58t-39.5 -93.5h368v9q-5 51 -32.5 87.5t-68 55.5t-84.5 19q-37 0 -75.5 -19.5zM215 608l-71 79q-7 9 -7 17q0 23 22 23q17 0 26 -16l62 -93q5 -8 5 -13t-3 -8.5t-8 -3.5q-11 0 -26 15zM343 608l-71 79q-7 9 -7 17
q0 23 22 23q17 0 26 -16l62 -93q5 -8 5 -13t-3 -8.5t-8 -3.5q-11 0 -26 15z" />
    <glyph glyph-name="edieresis" unicode="&#xeb;" horiz-adv-x="548" 
d="M490 114.5q5 -5.5 5 -12.5t-4 -12q-33 -44 -82 -72t-105 -28q-75 0 -133 32t-90.5 91t-32.5 137q0 80 31.5 140.5t83.5 92.5t111 32t109.5 -25.5t82.5 -76.5t34 -126q0 -8 -6 -14.5t-14 -6.5h-393v-13q0 -62 25 -113.5t74 -81.5t118 -30q48 0 90.5 23.5t66.5 59.5
q7 9 17 9q7 0 12 -5.5zM198.5 455.5q-38.5 -19.5 -68 -58t-39.5 -93.5h368v9q-5 51 -32.5 87.5t-68 55.5t-84.5 19q-37 0 -75.5 -19.5zM162.5 599q-9.5 10 -9.5 26v8q0 16 10 26t26 10q14 0 23.5 -10t9.5 -26v-8q0 -16 -9.5 -26t-24.5 -10q-16 0 -25.5 10zM325.5 599
q-9.5 10 -9.5 26v8q0 16 10 26t26 10q14 0 23.5 -10t9.5 -26v-8q0 -16 -9.5 -26t-24.5 -10q-16 0 -25.5 10z" />
    <glyph glyph-name="edotaccent" unicode="&#x117;" horiz-adv-x="548" 
d="M490 114.5q5 -5.5 5 -12.5t-4 -12q-33 -44 -82 -72t-105 -28q-75 0 -133 32t-90.5 91t-32.5 137q0 80 31.5 140.5t83.5 92.5t111 32t109.5 -25.5t82.5 -76.5t34 -126q0 -8 -6 -14.5t-14 -6.5h-393v-13q0 -62 25 -113.5t74 -81.5t118 -30q48 0 90.5 23.5t66.5 59.5
q7 9 17 9q7 0 12 -5.5zM198.5 455.5q-38.5 -19.5 -68 -58t-39.5 -93.5h368v9q-5 51 -32.5 87.5t-68 55.5t-84.5 19q-37 0 -75.5 -19.5zM255.5 592q-9.5 9 -9.5 23v8q0 14 10 23t26 9q14 0 23.5 -9t9.5 -23v-8q0 -14 -9.5 -23t-24.5 -9q-16 0 -25.5 9z" />
    <glyph glyph-name="uni1EB9" unicode="&#x1eb9;" horiz-adv-x="548" 
d="M490 114.5q5 -5.5 5 -12.5t-4 -12q-33 -44 -82 -72t-105 -28q-75 0 -133 32t-90.5 91t-32.5 137q0 80 31.5 140.5t83.5 92.5t111 32t109.5 -25.5t82.5 -76.5t34 -126q0 -8 -6 -14.5t-14 -6.5h-393v-13q0 -62 25 -113.5t74 -81.5t118 -30q48 0 90.5 23.5t66.5 59.5
q7 9 17 9q7 0 12 -5.5zM198.5 455.5q-38.5 -19.5 -68 -58t-39.5 -93.5h368v9q-5 51 -32.5 87.5t-68 55.5t-84.5 19q-37 0 -75.5 -19.5zM248.5 -121q-9.5 9 -9.5 23v8q0 14 10 23t26 9q14 0 23.5 -9t9.5 -23v-8q0 -14 -9.5 -23t-24.5 -9q-16 0 -25.5 9z" />
    <glyph glyph-name="egrave" unicode="&#xe8;" horiz-adv-x="548" 
d="M490 114.5q5 -5.5 5 -12.5t-4 -12q-33 -44 -82 -72t-105 -28q-75 0 -133 32t-90.5 91t-32.5 137q0 80 31.5 140.5t83.5 92.5t111 32t109.5 -25.5t82.5 -76.5t34 -126q0 -8 -6 -14.5t-14 -6.5h-393v-13q0 -62 25 -113.5t74 -81.5t118 -30q48 0 90.5 23.5t66.5 59.5
q7 9 17 9q7 0 12 -5.5zM198.5 455.5q-38.5 -19.5 -68 -58t-39.5 -93.5h368v9q-5 51 -32.5 87.5t-68 55.5t-84.5 19q-37 0 -75.5 -19.5zM256 569l-71 79q-7 9 -7 17q0 23 22 23q17 0 26 -16l62 -93q5 -8 5 -13t-3 -8.5t-8 -3.5q-11 0 -26 15z" />
    <glyph glyph-name="uni1EBB" unicode="&#x1ebb;" horiz-adv-x="548" 
d="M490 114.5q5 -5.5 5 -12.5t-4 -12q-33 -44 -82 -72t-105 -28q-75 0 -133 32t-90.5 91t-32.5 137q0 80 31.5 140.5t83.5 92.5t111 32t109.5 -25.5t82.5 -76.5t34 -126q0 -8 -6 -14.5t-14 -6.5h-393v-13q0 -62 25 -113.5t74 -81.5t118 -30q48 0 90.5 23.5t66.5 59.5
q7 9 17 9q7 0 12 -5.5zM198.5 455.5q-38.5 -19.5 -68 -58t-39.5 -93.5h368v9q-5 51 -32.5 87.5t-68 55.5t-84.5 19q-37 0 -75.5 -19.5zM284 725q37 0 55.5 -21.5t18.5 -47.5q0 -16 -9 -29.5t-29 -33.5q-8 -8 -9 -23q-1 -7 -5.5 -10.5t-11.5 -3.5q-8 0 -12 4.5t-4 11.5
q0 25 14 40q5 5 14 14.5t13 16t4 14.5q0 13 -11 22.5t-26 9.5q-22 0 -47 -19q-10 -8 -18 -8q-7 0 -13 6q-4 6 -4 11q0 7 7 14q32 32 73 32z" />
    <glyph glyph-name="uni0207" unicode="&#x207;" horiz-adv-x="548" 
d="M490 114.5q5 -5.5 5 -12.5t-4 -12q-33 -44 -82 -72t-105 -28q-75 0 -133 32t-90.5 91t-32.5 137q0 80 31.5 140.5t83.5 92.5t111 32t109.5 -25.5t82.5 -76.5t34 -126q0 -8 -6 -14.5t-14 -6.5h-393v-13q0 -62 25 -113.5t74 -81.5t118 -30q48 0 90.5 23.5t66.5 59.5
q7 9 17 9q7 0 12 -5.5zM198.5 455.5q-38.5 -19.5 -68 -58t-39.5 -93.5h368v9q-5 51 -32.5 87.5t-68 55.5t-84.5 19q-37 0 -75.5 -19.5zM351.5 693.5q27.5 -18.5 44 -48.5t16.5 -63q0 -7 -5.5 -12.5t-13.5 -5.5q-19 0 -21 20q-4 42 -27 66t-54 24t-53.5 -24.5t-27.5 -65.5
q-3 -20 -21 -20q-8 0 -13.5 5.5t-5.5 12.5q0 33 16.5 63t44 48.5t60.5 18.5t60.5 -18.5z" />
    <glyph glyph-name="emacron" unicode="&#x113;" horiz-adv-x="548" 
d="M490 114.5q5 -5.5 5 -12.5t-4 -12q-33 -44 -82 -72t-105 -28q-75 0 -133 32t-90.5 91t-32.5 137q0 80 31.5 140.5t83.5 92.5t111 32t109.5 -25.5t82.5 -76.5t34 -126q0 -8 -6 -14.5t-14 -6.5h-393v-13q0 -62 25 -113.5t74 -81.5t118 -30q48 0 90.5 23.5t66.5 59.5
q7 9 17 9q7 0 12 -5.5zM198.5 455.5q-38.5 -19.5 -68 -58t-39.5 -93.5h368v9q-5 51 -32.5 87.5t-68 55.5t-84.5 19q-37 0 -75.5 -19.5zM138 625q0 21 20 21h240q20 0 20 -21q0 -20 -20 -20h-240q-20 0 -20 20z" />
    <glyph glyph-name="uni1E17" unicode="&#x1e17;" horiz-adv-x="548" 
d="M490 114.5q5 -5.5 5 -12.5t-4 -12q-33 -44 -82 -72t-105 -28q-75 0 -133 32t-90.5 91t-32.5 137q0 80 31.5 140.5t83.5 92.5t111 32t109.5 -25.5t82.5 -76.5t34 -126q0 -8 -6 -14.5t-14 -6.5h-393v-13q0 -62 25 -113.5t74 -81.5t118 -30q48 0 90.5 23.5t66.5 59.5
q7 9 17 9q7 0 12 -5.5zM198.5 455.5q-38.5 -19.5 -68 -58t-39.5 -93.5h368v9q-5 51 -32.5 87.5t-68 55.5t-84.5 19q-37 0 -75.5 -19.5zM138 625q0 21 20 21h240q20 0 20 -21q0 -20 -20 -20h-240q-20 0 -20 20zM255 736.5q-3 3.5 -3 8.5t5 13l62 93q9 16 26 16
q11 0 18.5 -6.5t7.5 -18.5q0 -8 -7 -17l-75 -77q-15 -15 -26 -15q-5 0 -8 3.5z" />
    <glyph glyph-name="uni1E15" unicode="&#x1e15;" horiz-adv-x="548" 
d="M490 114.5q5 -5.5 5 -12.5t-4 -12q-33 -44 -82 -72t-105 -28q-75 0 -133 32t-90.5 91t-32.5 137q0 80 31.5 140.5t83.5 92.5t111 32t109.5 -25.5t82.5 -76.5t34 -126q0 -8 -6 -14.5t-14 -6.5h-393v-13q0 -62 25 -113.5t74 -81.5t118 -30q48 0 90.5 23.5t66.5 59.5
q7 9 17 9q7 0 12 -5.5zM198.5 455.5q-38.5 -19.5 -68 -58t-39.5 -93.5h368v9q-5 51 -32.5 87.5t-68 55.5t-84.5 19q-37 0 -75.5 -19.5zM138 625q0 21 20 21h240q20 0 20 -21q0 -20 -20 -20h-240q-20 0 -20 20zM256 756l-71 79q-7 9 -7 17q0 23 22 23q17 0 26 -16l62 -93
q5 -8 5 -13t-3 -8.5t-8 -3.5q-11 0 -26 15z" />
    <glyph glyph-name="eogonek" unicode="&#x119;" horiz-adv-x="548" 
d="M434 27q-36 -35 -52 -58.5t-16 -55.5q0 -26 16.5 -43.5t42.5 -17.5q24 0 32 11q10 15 21 15q15 0 15 -14q0 -16 -24.5 -32.5t-48.5 -16.5q-35 0 -63.5 26t-28.5 66q0 55 45 95q-32 -12 -69 -12q-75 0 -133 32t-90.5 91t-32.5 137q0 80 31.5 140.5t83.5 92.5t111 32
t109.5 -25.5t82.5 -76.5t34 -126q0 -8 -6 -14.5t-14 -6.5h-393v-13q0 -62 25 -113.5t74 -81.5t118 -30q48 0 90.5 23.5t66.5 59.5q7 9 17 9q7 0 12 -5.5t5 -12.5t-4 -12q-19 -25 -57 -63zM156.5 429q-51.5 -46 -65.5 -125h368v9q-5 51 -32.5 87.5t-68 55.5t-84.5 19
q-66 0 -117.5 -46z" />
    <glyph glyph-name="uni1EBD" unicode="&#x1ebd;" horiz-adv-x="548" 
d="M490 114.5q5 -5.5 5 -12.5t-4 -12q-33 -44 -82 -72t-105 -28q-75 0 -133 32t-90.5 91t-32.5 137q0 80 31.5 140.5t83.5 92.5t111 32t109.5 -25.5t82.5 -76.5t34 -126q0 -8 -6 -14.5t-14 -6.5h-393v-13q0 -62 25 -113.5t74 -81.5t118 -30q48 0 90.5 23.5t66.5 59.5
q7 9 17 9q7 0 12 -5.5zM198.5 455.5q-38.5 -19.5 -68 -58t-39.5 -93.5h368v9q-5 51 -32.5 87.5t-68 55.5t-84.5 19q-37 0 -75.5 -19.5zM138 592q0 3 4 21q8 31 30 46t49 15q15 0 32 -7.5t41 -22.5q21 -12 34.5 -18.5t24.5 -6.5q30 0 36 43q1 8 6 13t13 5q17 0 17 -15
q0 -5 -1 -10t-2 -9q-14 -65 -77 -65q-13 0 -29 7t-38 21q-5 3 -19 10.5t-24 11t-18 3.5q-32 0 -44 -42q-4 -14 -19 -14q-16 0 -16 14z" />
    <glyph glyph-name="uni0259" unicode="&#x259;" horiz-adv-x="548" 
d="M377 481q58 -32 90.5 -91t32.5 -137q0 -80 -31.5 -140.5t-83.5 -92.5t-111 -32t-109.5 25.5t-82.5 76.5t-34 126q0 8 6 14.5t14 6.5h393v13q0 62 -25 113.5t-74 81.5t-118 30q-48 0 -90.5 -23.5t-66.5 -59.5q-8 -9 -17 -9q-7 0 -12 5.5t-5 12.5t4 12q33 44 82 72t105 28
q75 0 133 -32zM349.5 47.5q38.5 19.5 68 58t39.5 93.5h-368v-9q5 -51 32.5 -87.5t68 -55.5t84.5 -19q37 0 75.5 19.5z" />
    <glyph glyph-name="f" unicode="f" horiz-adv-x="332" 
d="M298.5 487.5q5.5 -5.5 5.5 -13.5t-5.5 -13.5t-13.5 -5.5h-118v-435q0 -8 -6 -14t-14 -6q-9 0 -14.5 6t-5.5 14v435h-80q-7 0 -13 6t-6 13q0 9 5.5 14t13.5 5h80v122q0 59 31.5 89.5t80.5 30.5q25 0 47.5 -6.5t22.5 -21.5q0 -8 -6 -14t-13 -6q-8 0 -21 5q-23 7 -34 7
q-31 0 -49.5 -21t-18.5 -63v-122h118q8 0 13.5 -5.5z" />
    <glyph glyph-name="g" unicode="g" horiz-adv-x="615" 
d="M526.5 493q5.5 -6 5.5 -14v-430q0 -76 -31 -132t-87 -86.5t-128 -30.5q-40 0 -81 10.5t-67.5 27t-26.5 33.5q0 8 4.5 13t12.5 5q6 0 18 -10q14 -14 31 -21q49 -20 111 -20q94 0 149 58t55 153v69q-27 -64 -83.5 -96t-118.5 -32q-68 0 -123.5 34.5t-87 94.5t-31.5 134
t31.5 134t87 94t123.5 34q67 0 122.5 -35.5t79.5 -85.5v85q0 8 5.5 14t14.5 6t14.5 -6zM396.5 56.5q46.5 28.5 73 79.5t26.5 117t-26.5 117t-73 79t-104.5 28t-104.5 -29t-73 -80t-26.5 -115t26.5 -115t73 -80.5t104.5 -29.5t104.5 28.5z" />
    <glyph glyph-name="gbreve" unicode="&#x11f;" horiz-adv-x="615" 
d="M526.5 493q5.5 -6 5.5 -14v-430q0 -76 -31 -132t-87 -86.5t-128 -30.5q-40 0 -81 10.5t-67.5 27t-26.5 33.5q0 8 4.5 13t12.5 5q6 0 18 -10q14 -14 31 -21q49 -20 111 -20q94 0 149 58t55 153v69q-27 -64 -83.5 -96t-118.5 -32q-68 0 -123.5 34.5t-87 94.5t-31.5 134
t31.5 134t87 94t123.5 34q67 0 122.5 -35.5t79.5 -85.5v85q0 8 5.5 14t14.5 6t14.5 -6zM396.5 56.5q46.5 28.5 73 79.5t26.5 117t-26.5 117t-73 79t-104.5 28t-104.5 -29t-73 -80t-26.5 -115t26.5 -115t73 -80.5t104.5 -29.5t104.5 28.5zM237.5 591.5q-27.5 18.5 -44 48.5
t-16.5 63q0 7 5.5 12.5t13.5 5.5q19 0 21 -20q4 -42 27 -66t54 -24t53.5 24.5t27.5 65.5q3 20 21 20q8 0 13.5 -5.5t5.5 -12.5q0 -33 -16.5 -63t-44 -48.5t-60.5 -18.5t-60.5 18.5z" />
    <glyph glyph-name="gcaron" unicode="&#x1e7;" horiz-adv-x="615" 
d="M526.5 493q5.5 -6 5.5 -14v-430q0 -76 -31 -132t-87 -86.5t-128 -30.5q-40 0 -81 10.5t-67.5 27t-26.5 33.5q0 8 4.5 13t12.5 5q6 0 18 -10q14 -14 31 -21q49 -20 111 -20q94 0 149 58t55 153v69q-27 -64 -83.5 -96t-118.5 -32q-68 0 -123.5 34.5t-87 94.5t-31.5 134
t31.5 134t87 94t123.5 34q67 0 122.5 -35.5t79.5 -85.5v85q0 8 5.5 14t14.5 6t14.5 -6zM396.5 56.5q46.5 28.5 73 79.5t26.5 117t-26.5 117t-73 79t-104.5 28t-104.5 -29t-73 -80t-26.5 -115t26.5 -115t73 -80.5t104.5 -29.5t104.5 28.5zM419.5 676.5q3.5 -3.5 3.5 -8.5
q0 -6 -6 -12l-81 -86q-8 -12 -24 -12h-10q-16 0 -24 12l-81 85q-6 6 -6 12q0 5 3.5 8.5t8.5 3.5q7 0 19 -10l88 -68l82 69q12 10 19 10q5 0 8.5 -3.5z" />
    <glyph glyph-name="gcircumflex" unicode="&#x11d;" horiz-adv-x="615" 
d="M526.5 493q5.5 -6 5.5 -14v-430q0 -76 -31 -132t-87 -86.5t-128 -30.5q-40 0 -81 10.5t-67.5 27t-26.5 33.5q0 8 4.5 13t12.5 5q6 0 18 -10q14 -14 31 -21q49 -20 111 -20q94 0 149 58t55 153v69q-27 -64 -83.5 -96t-118.5 -32q-68 0 -123.5 34.5t-87 94.5t-31.5 134
t31.5 134t87 94t123.5 34q67 0 122.5 -35.5t79.5 -85.5v85q0 8 5.5 14t14.5 6t14.5 -6zM396.5 56.5q46.5 28.5 73 79.5t26.5 117t-26.5 117t-73 79t-104.5 28t-104.5 -29t-73 -80t-26.5 -115t26.5 -115t73 -80.5t104.5 -29.5t104.5 28.5zM426 580q0 -5 -3.5 -8.5t-8.5 -3.5
q-7 0 -19 10l-88 68l-82 -69q-12 -10 -19 -10q-5 0 -8.5 3.5t-3.5 8.5q0 6 6 12l81 86q8 12 24 12h10q16 0 24 -12l81 -85q6 -6 6 -12z" />
    <glyph glyph-name="gcommaaccent" unicode="&#x123;" horiz-adv-x="615" 
d="M268 592q-13 13 -13 34q0 30 13.5 56.5t34 42t38.5 15.5q7 0 12.5 -4t5.5 -12q0 -9 -4 -12t-14.5 -6t-16.5 -6q-14 -7 -21.5 -22t-7.5 -31q0 -24 17 -24q15 0 26 9q8 -10 8 -20q0 -13 -13.5 -23t-30.5 -10q-21 0 -34 13zM526.5 493q5.5 -6 5.5 -14v-430q0 -76 -31 -132
t-87 -86.5t-128 -30.5q-40 0 -81 10.5t-67.5 27t-26.5 33.5q0 8 4.5 13t12.5 5q6 0 18 -10q14 -14 31 -21q49 -20 111 -20q94 0 149 58t55 153v69q-27 -64 -83.5 -96t-118.5 -32q-68 0 -123.5 34.5t-87 94.5t-31.5 134t31.5 134t87 94t123.5 34q67 0 122.5 -35.5t79.5 -85.5
v85q0 8 5.5 14t14.5 6t14.5 -6zM396.5 56.5q46.5 28.5 73 79.5t26.5 117t-26.5 117t-73 79t-104.5 28t-104.5 -29t-73 -80t-26.5 -115t26.5 -115t73 -80.5t104.5 -29.5t104.5 28.5z" />
    <glyph glyph-name="gdotaccent" unicode="&#x121;" horiz-adv-x="615" 
d="M526.5 493q5.5 -6 5.5 -14v-430q0 -76 -31 -132t-87 -86.5t-128 -30.5q-40 0 -81 10.5t-67.5 27t-26.5 33.5q0 8 4.5 13t12.5 5q6 0 18 -10q14 -14 31 -21q49 -20 111 -20q94 0 149 58t55 153v69q-27 -64 -83.5 -96t-118.5 -32q-68 0 -123.5 34.5t-87 94.5t-31.5 134
t31.5 134t87 94t123.5 34q67 0 122.5 -35.5t79.5 -85.5v85q0 8 5.5 14t14.5 6t14.5 -6zM396.5 56.5q46.5 28.5 73 79.5t26.5 117t-26.5 117t-73 79t-104.5 28t-104.5 -29t-73 -80t-26.5 -115t26.5 -115t73 -80.5t104.5 -29.5t104.5 28.5zM282.5 592q-9.5 9 -9.5 23v8
q0 14 10 23t26 9q14 0 23.5 -9t9.5 -23v-8q0 -14 -9.5 -23t-24.5 -9q-16 0 -25.5 9z" />
    <glyph glyph-name="uni1E21" unicode="&#x1e21;" horiz-adv-x="615" 
d="M526.5 493q5.5 -6 5.5 -14v-430q0 -76 -31 -132t-87 -86.5t-128 -30.5q-40 0 -81 10.5t-67.5 27t-26.5 33.5q0 8 4.5 13t12.5 5q6 0 18 -10q14 -14 31 -21q49 -20 111 -20q94 0 149 58t55 153v69q-27 -64 -83.5 -96t-118.5 -32q-68 0 -123.5 34.5t-87 94.5t-31.5 134
t31.5 134t87 94t123.5 34q67 0 122.5 -35.5t79.5 -85.5v85q0 8 5.5 14t14.5 6t14.5 -6zM396.5 56.5q46.5 28.5 73 79.5t26.5 117t-26.5 117t-73 79t-104.5 28t-104.5 -29t-73 -80t-26.5 -115t26.5 -115t73 -80.5t104.5 -29.5t104.5 28.5zM165 625q0 21 20 21h240
q20 0 20 -21q0 -20 -20 -20h-240q-20 0 -20 20z" />
    <glyph glyph-name="h" unicode="h" horiz-adv-x="562" 
d="M433 450.5q46 -54.5 46 -138.5v-292q0 -8 -6 -14t-14 -6q-9 0 -14.5 6t-5.5 14v292q0 69 -34 112t-104 43q-43 0 -84.5 -21t-67.5 -57t-26 -77v-292q0 -8 -6 -14t-14 -6q-9 0 -14.5 6t-5.5 14v700q0 8 6 14t14 6q9 0 14.5 -6t5.5 -14v-316q28 44 77.5 72.5t100.5 28.5
q86 0 132 -54.5z" />
    <glyph glyph-name="hbar" unicode="&#x127;" horiz-adv-x="562" 
d="M433 450.5q46 -54.5 46 -138.5v-292q0 -8 -6 -14t-14 -6q-9 0 -14.5 6t-5.5 14v292q0 69 -34 112t-104 43q-43 0 -84.5 -21t-67.5 -57t-26 -77v-292q0 -8 -6 -14t-14 -6q-9 0 -14.5 6t-5.5 14v551h-40q-20 0 -20 19t20 19h40v111q0 8 6 14t14 6q9 0 14.5 -6t5.5 -14v-111
h80q20 0 20 -20q0 -18 -20 -18h-80v-167q28 44 77.5 72.5t100.5 28.5q86 0 132 -54.5z" />
    <glyph glyph-name="uni1E2B" unicode="&#x1e2b;" horiz-adv-x="562" 
d="M433 450.5q46 -54.5 46 -138.5v-292q0 -8 -6 -14t-14 -6q-9 0 -14.5 6t-5.5 14v292q0 69 -34 112t-104 43q-43 0 -84.5 -21t-67.5 -57t-26 -77v-292q0 -8 -6 -14t-14 -6q-9 0 -14.5 6t-5.5 14v700q0 8 6 14t14 6q9 0 14.5 -6t5.5 -14v-316q28 44 77.5 72.5t100.5 28.5
q86 0 132 -54.5zM214.5 -139.5q-27.5 18.5 -44 48.5t-16.5 63q0 7 5.5 12.5t13.5 5.5q19 0 21 -20q4 -42 27 -66t54 -24t53.5 24.5t27.5 65.5q3 20 21 20q8 0 13.5 -5.5t5.5 -12.5q0 -33 -16.5 -63t-44 -48.5t-60.5 -18.5t-60.5 18.5z" />
    <glyph glyph-name="hcircumflex" unicode="&#x125;" horiz-adv-x="562" 
d="M433 450.5q46 -54.5 46 -138.5v-292q0 -8 -6 -14t-14 -6q-9 0 -14.5 6t-5.5 14v292q0 69 -34 112t-104 43q-43 0 -84.5 -21t-67.5 -57t-26 -77v-292q0 -8 -6 -14t-14 -6q-9 0 -14.5 6t-5.5 14v700q0 8 6 14t14 6q9 0 14.5 -6t5.5 -14v-316q28 44 77.5 72.5t100.5 28.5
q86 0 132 -54.5zM218 781q0 -5 -3.5 -8.5t-8.5 -3.5q-7 0 -19 10l-88 68l-82 -69q-12 -10 -19 -10q-5 0 -8.5 3.5t-3.5 8.5q0 6 6 12l81 86q7 7 11.5 9.5t12.5 2.5h10q8 0 12.5 -2.5t11.5 -9.5l81 -85q6 -6 6 -12z" />
    <glyph glyph-name="uni1E25" unicode="&#x1e25;" horiz-adv-x="562" 
d="M433 450.5q46 -54.5 46 -138.5v-292q0 -8 -6 -14t-14 -6q-9 0 -14.5 6t-5.5 14v292q0 69 -34 112t-104 43q-43 0 -84.5 -21t-67.5 -57t-26 -77v-292q0 -8 -6 -14t-14 -6q-9 0 -14.5 6t-5.5 14v700q0 8 6 14t14 6q9 0 14.5 -6t5.5 -14v-316q28 44 77.5 72.5t100.5 28.5
q86 0 132 -54.5zM255.5 -121q-9.5 9 -9.5 23v8q0 14 10 23t26 9q14 0 23.5 -9t9.5 -23v-8q0 -14 -9.5 -23t-24.5 -9q-16 0 -25.5 9z" />
    <glyph glyph-name="i" unicode="i" horiz-adv-x="206" 
d="M117 6q-6 -6 -14 -6q-9 0 -14.5 6t-5.5 14v475q0 8 6 14t14 6q9 0 14.5 -6t5.5 -14v-475q0 -8 -6 -14zM77.5 592q-9.5 9 -9.5 23v8q0 14 10 23t26 9q14 0 23.5 -9t9.5 -23v-8q0 -14 -9.5 -23t-24.5 -9q-16 0 -25.5 9z" />
    <glyph glyph-name="dotlessi" unicode="&#x131;" horiz-adv-x="206" 
d="M117 6q-6 -6 -14 -6q-9 0 -14.5 6t-5.5 14v475q0 8 6 14t14 6q9 0 14.5 -6t5.5 -14v-475q0 -8 -6 -14z" />
    <glyph glyph-name="iacute" unicode="&#xed;" horiz-adv-x="206" 
d="M117 6q-6 -6 -14 -6q-9 0 -14.5 6t-5.5 14v475q0 8 6 14t14 6q9 0 14.5 -6t5.5 -14v-475q0 -8 -6 -14zM77 549.5q-3 3.5 -3 8.5t5 13l62 93q9 16 26 16q11 0 18.5 -6.5t7.5 -18.5q0 -8 -7 -17l-75 -77q-15 -15 -26 -15q-5 0 -8 3.5z" />
    <glyph glyph-name="ibreve" unicode="&#x12d;" horiz-adv-x="206" 
d="M117 6q-6 -6 -14 -6q-9 0 -14.5 6t-5.5 14v475q0 8 6 14t14 6q9 0 14.5 -6t5.5 -14v-475q0 -8 -6 -14zM32.5 591.5q-27.5 18.5 -44 48.5t-16.5 63q0 7 5.5 12.5t13.5 5.5q19 0 21 -20q4 -42 27 -66t54 -24t53.5 24.5t27.5 65.5q3 20 21 20q8 0 13.5 -5.5t5.5 -12.5
q0 -33 -16.5 -63t-44 -48.5t-60.5 -18.5t-60.5 18.5z" />
    <glyph glyph-name="uni01D0" unicode="&#x1d0;" horiz-adv-x="206" 
d="M117 6q-6 -6 -14 -6q-9 0 -14.5 6t-5.5 14v475q0 8 6 14t14 6q9 0 14.5 -6t5.5 -14v-475q0 -8 -6 -14zM214.5 676.5q3.5 -3.5 3.5 -8.5q0 -6 -6 -12l-81 -86q-8 -12 -24 -12h-10q-16 0 -24 12l-81 85q-6 6 -6 12q0 5 3.5 8.5t8.5 3.5q7 0 19 -10l88 -68l82 69
q12 10 19 10q5 0 8.5 -3.5z" />
    <glyph glyph-name="icircumflex" unicode="&#xee;" horiz-adv-x="206" 
d="M117 6q-6 -6 -14 -6q-9 0 -14.5 6t-5.5 14v475q0 8 6 14t14 6q9 0 14.5 -6t5.5 -14v-475q0 -8 -6 -14zM221 580q0 -5 -3.5 -8.5t-8.5 -3.5q-7 0 -19 10l-88 68l-82 -69q-12 -10 -19 -10q-5 0 -8.5 3.5t-3.5 8.5q0 6 6 12l81 86q8 12 24 12h10q16 0 24 -12l81 -85
q6 -6 6 -12z" />
    <glyph glyph-name="uni0209" unicode="&#x209;" horiz-adv-x="206" 
d="M117 6q-6 -6 -14 -6q-9 0 -14.5 6t-5.5 14v475q0 8 6 14t14 6q9 0 14.5 -6t5.5 -14v-475q0 -8 -6 -14zM37 608l-71 79q-7 9 -7 17q0 23 22 23q17 0 26 -16l62 -93q5 -8 5 -13t-3 -8.5t-8 -3.5q-11 0 -26 15zM165 608l-71 79q-7 9 -7 17q0 23 22 23q17 0 26 -16l62 -93
q5 -8 5 -13t-3 -8.5t-8 -3.5q-11 0 -26 15z" />
    <glyph glyph-name="idieresis" unicode="&#xef;" horiz-adv-x="206" 
d="M117 6q-6 -6 -14 -6q-9 0 -14.5 6t-5.5 14v475q0 8 6 14t14 6q9 0 14.5 -6t5.5 -14v-475q0 -8 -6 -14zM-15.5 599q-9.5 10 -9.5 26v8q0 16 10 26t26 10q14 0 23.5 -10t9.5 -26v-8q0 -16 -9.5 -26t-24.5 -10q-16 0 -25.5 10zM147.5 599q-9.5 10 -9.5 26v8q0 16 10 26
t26 10q14 0 23.5 -10t9.5 -26v-8q0 -16 -9.5 -26t-24.5 -10q-16 0 -25.5 10z" />
    <glyph glyph-name="uni1E2F" unicode="&#x1e2f;" horiz-adv-x="206" 
d="M117 6q-6 -6 -14 -6q-9 0 -14.5 6t-5.5 14v475q0 8 6 14t14 6q9 0 14.5 -6t5.5 -14v-475q0 -8 -6 -14zM-15.5 599q-9.5 10 -9.5 26v8q0 16 10 26t26 10q14 0 23.5 -10t9.5 -26v-8q0 -16 -9.5 -26t-24.5 -10q-16 0 -25.5 10zM147.5 599q-9.5 10 -9.5 26v8q0 16 10 26
t26 10q14 0 23.5 -10t9.5 -26v-8q0 -16 -9.5 -26t-24.5 -10q-16 0 -25.5 10zM77 672.5q-3 3.5 -3 8.5t5 13l62 93q9 16 26 16q11 0 18.5 -6.5t7.5 -18.5q0 -8 -7 -17l-75 -77q-15 -15 -26 -15q-5 0 -8 3.5z" />
    <glyph glyph-name="i.loclTRK" horiz-adv-x="206" 
d="M117 6q-6 -6 -14 -6q-9 0 -14.5 6t-5.5 14v475q0 8 6 14t14 6q9 0 14.5 -6t5.5 -14v-475q0 -8 -6 -14zM77.5 592q-9.5 9 -9.5 23v8q0 14 10 23t26 9q14 0 23.5 -9t9.5 -23v-8q0 -14 -9.5 -23t-24.5 -9q-16 0 -25.5 9z" />
    <glyph glyph-name="uni1ECB" unicode="&#x1ecb;" horiz-adv-x="206" 
d="M117 6q-6 -6 -14 -6q-9 0 -14.5 6t-5.5 14v475q0 8 6 14t14 6q9 0 14.5 -6t5.5 -14v-475q0 -8 -6 -14zM77.5 592q-9.5 9 -9.5 23v8q0 14 10 23t26 9q14 0 23.5 -9t9.5 -23v-8q0 -14 -9.5 -23t-24.5 -9q-16 0 -25.5 9zM77.5 -121q-9.5 9 -9.5 23v8q0 14 10 23t26 9
q14 0 23.5 -9t9.5 -23v-8q0 -14 -9.5 -23t-24.5 -9q-16 0 -25.5 9z" />
    <glyph glyph-name="igrave" unicode="&#xec;" horiz-adv-x="206" 
d="M117 6q-6 -6 -14 -6q-9 0 -14.5 6t-5.5 14v475q0 8 6 14t14 6q9 0 14.5 -6t5.5 -14v-475q0 -8 -6 -14zM78 569l-71 79q-7 9 -7 17q0 23 22 23q17 0 26 -16l62 -93q5 -8 5 -13t-3 -8.5t-8 -3.5q-11 0 -26 15z" />
    <glyph glyph-name="uni1EC9" unicode="&#x1ec9;" horiz-adv-x="206" 
d="M117 6q-6 -6 -14 -6q-9 0 -14.5 6t-5.5 14v475q0 8 6 14t14 6q9 0 14.5 -6t5.5 -14v-475q0 -8 -6 -14zM106 725q37 0 55.5 -21.5t18.5 -47.5q0 -16 -9 -29.5t-29 -33.5q-8 -8 -9 -23q-1 -7 -5.5 -10.5t-11.5 -3.5q-8 0 -12 4.5t-4 11.5q0 25 14 40q5 5 14 14.5t13 16
t4 14.5q0 13 -11 22.5t-26 9.5q-22 0 -47 -19q-10 -8 -18 -8q-7 0 -13 6q-4 6 -4 11q0 7 7 14q32 32 73 32z" />
    <glyph glyph-name="uni020B" unicode="&#x20b;" horiz-adv-x="206" 
d="M117 6q-6 -6 -14 -6q-9 0 -14.5 6t-5.5 14v475q0 8 6 14t14 6q9 0 14.5 -6t5.5 -14v-475q0 -8 -6 -14zM173.5 693.5q27.5 -18.5 44 -48.5t16.5 -63q0 -7 -5.5 -12.5t-13.5 -5.5q-19 0 -21 20q-4 42 -27 66t-54 24t-53.5 -24.5t-27.5 -65.5q-3 -20 -21 -20q-8 0 -13.5 5.5
t-5.5 12.5q0 33 16.5 63t44 48.5t60.5 18.5t60.5 -18.5z" />
    <glyph glyph-name="ij" unicode="&#x133;" horiz-adv-x="474" 
d="M117 6q-6 -6 -14 -6q-9 0 -14.5 6t-5.5 14v475q0 8 6 14t14 6q9 0 14.5 -6t5.5 -14v-475q0 -8 -6 -14zM77.5 592q-9.5 9 -9.5 23v8q0 14 10 23t26 9q14 0 23.5 -9t9.5 -23v-8q0 -14 -9.5 -23t-24.5 -9q-16 0 -25.5 9zM191 -193q-5 5 -5 13v2q0 7 5 12.5t13 6.5
q39 6 68.5 31t29.5 70v538q0 8 5.5 14t14.5 6t14.5 -6t5.5 -14v-538q0 -42 -22 -74t-54 -49t-61 -17q-9 0 -14 5zM296.5 593q-9.5 9 -9.5 23v8q0 14 10 23t26 9q14 0 23.5 -9t9.5 -23v-8q0 -14 -9.5 -23t-24.5 -9q-16 0 -25.5 9z" />
    <glyph glyph-name="imacron" unicode="&#x12b;" horiz-adv-x="206" 
d="M117 6q-6 -6 -14 -6q-9 0 -14.5 6t-5.5 14v475q0 8 6 14t14 6q9 0 14.5 -6t5.5 -14v-475q0 -8 -6 -14zM-40 625q0 21 20 21h240q20 0 20 -21q0 -20 -20 -20h-240q-20 0 -20 20z" />
    <glyph glyph-name="iogonek" unicode="&#x12f;" horiz-adv-x="206" 
d="M77.5 592q-9.5 9 -9.5 23v8q0 14 10 23t26 9q14 0 23.5 -9t9.5 -23v-8q0 -14 -9.5 -23t-24.5 -9q-16 0 -25.5 9zM142 -126q4 -4 4 -10q0 -20 -20.5 -34.5t-51.5 -14.5q-35 0 -61.5 26t-26.5 66q0 43 27.5 71.5t69.5 41.5v475q0 8 6 14t14 6q9 0 14.5 -6t5.5 -14v-467
q0 -12 -10 -20.5t-31 -21.5q-28 -17 -43 -32t-15 -39q0 -29 16.5 -46t38.5 -17q12 0 18.5 1t9.5 6q9 11 13.5 15t11.5 4q6 0 10 -4z" />
    <glyph glyph-name="itilde" unicode="&#x129;" horiz-adv-x="206" 
d="M117 6q-6 -6 -14 -6q-9 0 -14.5 6t-5.5 14v475q0 8 6 14t14 6q9 0 14.5 -6t5.5 -14v-475q0 -8 -6 -14zM-40 592q0 3 4 21q8 31 30 46t49 15q15 0 32 -7.5t41 -22.5q21 -12 34.5 -18.5t24.5 -6.5q30 0 36 43q1 8 6 13t13 5q17 0 17 -15q0 -5 -1 -10t-2 -9q-14 -65 -77 -65
q-13 0 -29 7t-38 21q-5 3 -19 10.5t-24 11t-18 3.5q-32 0 -44 -42q-4 -14 -19 -14q-16 0 -16 14z" />
    <glyph glyph-name="j" unicode="j" horiz-adv-x="268" 
d="M-15 -193q-5 5 -5 13v2q0 7 5 12.5t13 6.5q39 6 68.5 31t29.5 70v538q0 8 5.5 14t14.5 6t14.5 -6t5.5 -14v-538q0 -42 -22 -74t-54 -49t-61 -17q-9 0 -14 5zM90.5 593q-9.5 9 -9.5 23v8q0 14 10 23t26 9q14 0 23.5 -9t9.5 -23v-8q0 -14 -9.5 -23t-24.5 -9q-16 0 -25.5 9z
" />
    <glyph glyph-name="uni0237" unicode="&#x237;" horiz-adv-x="229" 
d="M-15 -193q-5 5 -5 13v2q0 7 5 12.5t13 6.5q39 6 68.5 31t29.5 70v538q0 8 5.5 14t14.5 6t14.5 -6t5.5 -14v-538q0 -42 -22 -74t-54 -49t-61 -17q-9 0 -14 5z" />
    <glyph glyph-name="jcircumflex" unicode="&#x135;" horiz-adv-x="229" 
d="M-15 -193q-5 5 -5 13v2q0 7 5 12.5t13 6.5q39 6 68.5 31t29.5 70v538q0 8 5.5 14t14.5 6t14.5 -6t5.5 -14v-538q0 -42 -22 -74t-54 -49t-61 -17q-9 0 -14 5zM234 581q0 -5 -3.5 -8.5t-8.5 -3.5q-7 0 -19 10l-88 68l-82 -69q-12 -10 -19 -10q-5 0 -8.5 3.5t-3.5 8.5
q0 6 6 12l81 86q8 12 24 12h10q16 0 24 -12l81 -85q6 -6 6 -12z" />
    <glyph glyph-name="k" unicode="k" horiz-adv-x="524" 
d="M481 20q0 -9 -7.5 -14.5t-12.5 -5.5q-8 0 -15 7l-234 249l-84 -70v-166q0 -8 -5.5 -14t-14.5 -6t-14.5 6t-5.5 14v700q0 8 5.5 14t14.5 6t14.5 -6t5.5 -14v-484l314 263q6 6 13 6q8 0 14 -6t6 -15t-7 -15l-225 -187l232 -247q6 -6 6 -15z" />
    <glyph glyph-name="kcommaaccent" unicode="&#x137;" horiz-adv-x="524" 
d="M481 20q0 -9 -7.5 -14.5t-12.5 -5.5q-8 0 -15 7l-234 249l-84 -70v-166q0 -8 -5.5 -14t-14.5 -6t-14.5 6t-5.5 14v700q0 8 5.5 14t14.5 6t14.5 -6t5.5 -14v-484l314 263q6 6 13 6q8 0 14 -6t6 -15t-7 -15l-225 -187l232 -247q6 -6 6 -15zM290.5 -129.5
q-13.5 -26.5 -34 -42t-38.5 -15.5q-7 0 -12.5 4t-5.5 12q0 9 4 12t14.5 6t16.5 6q14 7 21.5 22t7.5 31q0 24 -17 24q-15 0 -26 -9q-8 10 -8 20q0 13 13.5 23t30.5 10q21 0 34 -13t13 -34q0 -30 -13.5 -56.5z" />
    <glyph glyph-name="kgreenlandic" unicode="&#x138;" horiz-adv-x="524" 
d="M481 20q0 -10 -7.5 -15t-12.5 -5q-8 0 -15 7l-234 249l-84 -70v-166q0 -8 -5.5 -14t-14.5 -6t-14.5 6t-5.5 14v459q0 8 5.5 14t14.5 6t14.5 -6t5.5 -14v-243l314 263q6 6 13 6q8 0 14 -6t6 -15t-7 -15l-225 -187l232 -247q6 -6 6 -15z" />
    <glyph glyph-name="l" unicode="l" horiz-adv-x="216" 
d="M122 6q-6 -6 -14 -6q-9 0 -14.5 6t-5.5 14v700q0 8 6 14t14 6q9 0 14.5 -6t5.5 -14v-700q0 -8 -6 -14z" />
    <glyph glyph-name="lacute" unicode="&#x13a;" horiz-adv-x="216" 
d="M122 6q-6 -6 -14 -6q-9 0 -14.5 6t-5.5 14v700q0 8 6 14t14 6q9 0 14.5 -6t5.5 -14v-700q0 -8 -6 -14zM103 791.5q-3 3.5 -3 8.5q0 8 9 15l90 67q10 8 22 8q11 0 17 -7t6 -17q0 -16 -14 -24l-97 -47q-14 -7 -21 -7q-6 0 -9 3.5z" />
    <glyph glyph-name="lcaron" unicode="&#x13e;" horiz-adv-x="265" 
d="M117 6q-6 -6 -14 -6q-9 0 -14.5 6t-5.5 14v700q0 8 6 14t14 6q9 0 14.5 -6t5.5 -14v-700q0 -8 -6 -14zM265.5 559.5q-13.5 -26.5 -34 -42t-38.5 -15.5q-7 0 -12.5 4t-5.5 12q0 9 4 12t14.5 6t16.5 6q14 7 21.5 22t7.5 31q0 24 -17 24q-15 0 -26 -9q-8 10 -8 20
q0 13 13.5 23t30.5 10q21 0 34 -13t13 -34q0 -30 -13.5 -56.5z" />
    <glyph glyph-name="lcommaaccent" unicode="&#x13c;" horiz-adv-x="216" 
d="M122 6q-6 -6 -14 -6q-9 0 -14.5 6t-5.5 14v700q0 8 6 14t14 6q9 0 14.5 -6t5.5 -14v-700q0 -8 -6 -14zM136.5 -129.5q-13.5 -26.5 -34 -42t-38.5 -15.5q-7 0 -12.5 4t-5.5 12q0 9 4 12t14.5 6t16.5 6q14 7 21.5 22t7.5 31q0 24 -17 24q-15 0 -26 -9q-8 10 -8 20
q0 13 13.5 23t30.5 10q21 0 34 -13t13 -34q0 -30 -13.5 -56.5z" />
    <glyph glyph-name="ldot" unicode="&#x140;" horiz-adv-x="278" 
d="M122 6q-6 -6 -14 -6q-9 0 -14.5 6t-5.5 14v700q0 8 6 14t14 6q9 0 14.5 -6t5.5 -14v-700q0 -8 -6 -14zM238 345q-9 9 -9 22v23q0 14 9 22.5t22 8.5h4q14 0 22.5 -8.5t8.5 -22.5v-23q0 -13 -8.5 -22t-22.5 -9h-4q-13 0 -22 9z" />
    <glyph glyph-name="uni1E37" unicode="&#x1e37;" horiz-adv-x="216" 
d="M122 6q-6 -6 -14 -6q-9 0 -14.5 6t-5.5 14v700q0 8 6 14t14 6q9 0 14.5 -6t5.5 -14v-700q0 -8 -6 -14zM82.5 -121q-9.5 9 -9.5 23v8q0 14 10 23t26 9q14 0 23.5 -9t9.5 -23v-8q0 -14 -9.5 -23t-24.5 -9q-16 0 -25.5 9z" />
    <glyph glyph-name="uni01C9" unicode="&#x1c9;" horiz-adv-x="470" 
d="M122 6q-6 -6 -14 -6q-9 0 -14.5 6t-5.5 14v700q0 8 6 14t14 6q9 0 14.5 -6t5.5 -14v-700q0 -8 -6 -14zM187 -193q-5 5 -5 13v2q0 7 5 12.5t13 6.5q39 6 68.5 31t29.5 70v538q0 8 5.5 14t14.5 6t14.5 -6t5.5 -14v-538q0 -42 -22 -74t-54 -49t-61 -17q-9 0 -14 5z
M292.5 593q-9.5 9 -9.5 23v8q0 14 10 23t26 9q14 0 23.5 -9t9.5 -23v-8q0 -14 -9.5 -23t-24.5 -9q-16 0 -25.5 9z" />
    <glyph glyph-name="uni1E3B" unicode="&#x1e3b;" horiz-adv-x="216" 
d="M122 6q-6 -6 -14 -6q-9 0 -14.5 6t-5.5 14v700q0 8 6 14t14 6q9 0 14.5 -6t5.5 -14v-700q0 -8 -6 -14zM-34 -99q0 19 20 19h230q20 0 20 -19q0 -18 -20 -18h-230q-20 0 -20 18z" />
    <glyph glyph-name="lslash" unicode="&#x142;" horiz-adv-x="218" 
d="M218.5 469.5q4.5 -4.5 4.5 -11.5q0 -15 -15 -21l-80 -36v-381q0 -8 -6 -14t-14 -6q-9 0 -14.5 6t-5.5 14v363l-65 -30q-8 -3 -12 -3q-6 0 -11 5t-5 14q0 5 3.5 10t9.5 7l80 36v298q0 8 6 14t14 6q9 0 14.5 -6t5.5 -14v-280l65 30q8 4 15 4q6 0 10.5 -4.5z" />
    <glyph glyph-name="m" unicode="m" horiz-adv-x="909" 
d="M781.5 451q44.5 -54 44.5 -140v-291q0 -8 -5.5 -14t-14.5 -6t-14.5 6t-5.5 14v287q0 71 -34.5 115.5t-104.5 44.5q-43 0 -84.5 -22t-67.5 -58.5t-26 -79.5v-287q0 -8 -5.5 -14t-14.5 -6t-14.5 6t-5.5 14v292q0 69 -33 112t-100 43q-42 0 -82 -21t-65.5 -57t-25.5 -77
v-292q0 -8 -6 -14t-14 -6q-9 0 -14.5 6t-5.5 14v459q0 8 6 14t14 6q9 0 14.5 -6t5.5 -14v-70q29 42 75.5 69t97.5 27q55 0 98 -28t63 -82q21 46 79.5 78t114.5 32q86 0 130.5 -54z" />
    <glyph glyph-name="uni1E43" unicode="&#x1e43;" horiz-adv-x="909" 
d="M781.5 451q44.5 -54 44.5 -140v-291q0 -8 -5.5 -14t-14.5 -6t-14.5 6t-5.5 14v287q0 71 -34.5 115.5t-104.5 44.5q-43 0 -84.5 -22t-67.5 -58.5t-26 -79.5v-287q0 -8 -5.5 -14t-14.5 -6t-14.5 6t-5.5 14v292q0 69 -33 112t-100 43q-42 0 -82 -21t-65.5 -57t-25.5 -77
v-292q0 -8 -6 -14t-14 -6q-9 0 -14.5 6t-5.5 14v459q0 8 6 14t14 6q9 0 14.5 -6t5.5 -14v-70q29 42 75.5 69t97.5 27q55 0 98 -28t63 -82q21 46 79.5 78t114.5 32q86 0 130.5 -54zM429.5 -121q-9.5 9 -9.5 23v8q0 14 10 23t26 9q14 0 23.5 -9t9.5 -23v-8q0 -14 -9.5 -23
t-24.5 -9q-16 0 -25.5 9z" />
    <glyph glyph-name="n" unicode="n" horiz-adv-x="572" 
d="M444 462.5q45 -52.5 45 -136.5v-306q0 -8 -6 -14t-14 -6q-9 0 -14.5 6t-5.5 14v302q0 68 -35.5 111.5t-107.5 43.5q-44 0 -86.5 -21t-69.5 -57t-27 -77v-302q0 -8 -6 -14t-14 -6q-9 0 -14.5 6t-5.5 14v459q0 8 6 14t14 6q9 0 14.5 -6t5.5 -14v-67q29 45 81.5 74t105.5 29
q89 0 134 -52.5z" />
    <glyph glyph-name="nacute" unicode="&#x144;" horiz-adv-x="572" 
d="M444 462.5q45 -52.5 45 -136.5v-306q0 -8 -6 -14t-14 -6q-9 0 -14.5 6t-5.5 14v302q0 68 -35.5 111.5t-107.5 43.5q-44 0 -86.5 -21t-69.5 -57t-27 -77v-302q0 -8 -6 -14t-14 -6q-9 0 -14.5 6t-5.5 14v459q0 8 6 14t14 6q9 0 14.5 -6t5.5 -14v-67q29 45 81.5 74t105.5 29
q89 0 134 -52.5zM260 549.5q-3 3.5 -3 8.5t5 13l62 93q9 16 26 16q11 0 18.5 -6.5t7.5 -18.5q0 -8 -7 -17l-75 -77q-15 -15 -26 -15q-5 0 -8 3.5z" />
    <glyph glyph-name="napostrophe" unicode="&#x149;" horiz-adv-x="601" 
d="M21 700h33q14 -1 9 -19l-62 -218q-4 -17 -23 -17q-11 0 -8 21l29 214q3 19 22 19zM473 462.5q45 -52.5 45 -136.5v-306q0 -8 -6 -14t-14 -6q-9 0 -14.5 6t-5.5 14v302q0 68 -35.5 111.5t-107.5 43.5q-44 0 -86.5 -21t-69.5 -57t-27 -77v-302q0 -8 -6 -14t-14 -6
q-9 0 -14.5 6t-5.5 14v459q0 8 6 14t14 6q9 0 14.5 -6t5.5 -14v-67q29 45 81.5 74t105.5 29q89 0 134 -52.5z" />
    <glyph glyph-name="ncaron" unicode="&#x148;" horiz-adv-x="572" 
d="M444 462.5q45 -52.5 45 -136.5v-306q0 -8 -6 -14t-14 -6q-9 0 -14.5 6t-5.5 14v302q0 68 -35.5 111.5t-107.5 43.5q-44 0 -86.5 -21t-69.5 -57t-27 -77v-302q0 -8 -6 -14t-14 -6q-9 0 -14.5 6t-5.5 14v459q0 8 6 14t14 6q9 0 14.5 -6t5.5 -14v-67q29 45 81.5 74t105.5 29
q89 0 134 -52.5zM397.5 676.5q3.5 -3.5 3.5 -8.5q0 -6 -6 -12l-81 -86q-8 -12 -24 -12h-10q-16 0 -24 12l-81 85q-6 6 -6 12q0 5 3.5 8.5t8.5 3.5q7 0 19 -10l88 -68l82 69q12 10 19 10q5 0 8.5 -3.5z" />
    <glyph glyph-name="ncommaaccent" unicode="&#x146;" horiz-adv-x="572" 
d="M444 462.5q45 -52.5 45 -136.5v-306q0 -8 -6 -14t-14 -6q-9 0 -14.5 6t-5.5 14v302q0 68 -35.5 111.5t-107.5 43.5q-44 0 -86.5 -21t-69.5 -57t-27 -77v-302q0 -8 -6 -14t-14 -6q-9 0 -14.5 6t-5.5 14v459q0 8 6 14t14 6q9 0 14.5 -6t5.5 -14v-67q29 45 81.5 74t105.5 29
q89 0 134 -52.5zM314.5 -129.5q-13.5 -26.5 -34 -42t-38.5 -15.5q-7 0 -12.5 4t-5.5 12q0 9 4 12t14.5 6t16.5 6q14 7 21.5 22t7.5 31q0 24 -17 24q-15 0 -26 -9q-8 10 -8 20q0 13 13.5 23t30.5 10q21 0 34 -13t13 -34q0 -30 -13.5 -56.5z" />
    <glyph glyph-name="uni1E45" unicode="&#x1e45;" horiz-adv-x="572" 
d="M444 462.5q45 -52.5 45 -136.5v-306q0 -8 -6 -14t-14 -6q-9 0 -14.5 6t-5.5 14v302q0 68 -35.5 111.5t-107.5 43.5q-44 0 -86.5 -21t-69.5 -57t-27 -77v-302q0 -8 -6 -14t-14 -6q-9 0 -14.5 6t-5.5 14v459q0 8 6 14t14 6q9 0 14.5 -6t5.5 -14v-67q29 45 81.5 74t105.5 29
q89 0 134 -52.5zM260.5 592q-9.5 9 -9.5 23v8q0 14 10 23t26 9q14 0 23.5 -9t9.5 -23v-8q0 -14 -9.5 -23t-24.5 -9q-16 0 -25.5 9z" />
    <glyph glyph-name="uni1E47" unicode="&#x1e47;" horiz-adv-x="572" 
d="M444 462.5q45 -52.5 45 -136.5v-306q0 -8 -6 -14t-14 -6q-9 0 -14.5 6t-5.5 14v302q0 68 -35.5 111.5t-107.5 43.5q-44 0 -86.5 -21t-69.5 -57t-27 -77v-302q0 -8 -6 -14t-14 -6q-9 0 -14.5 6t-5.5 14v459q0 8 6 14t14 6q9 0 14.5 -6t5.5 -14v-67q29 45 81.5 74t105.5 29
q89 0 134 -52.5zM260.5 -121q-9.5 9 -9.5 23v8q0 14 10 23t26 9q14 0 23.5 -9t9.5 -23v-8q0 -14 -9.5 -23t-24.5 -9q-16 0 -25.5 9z" />
    <glyph glyph-name="eng" unicode="&#x14b;" horiz-adv-x="572" 
d="M449 -156q-41 -44 -138 -44q-10 0 -16 5.5t-6 14.5t6 14.5t15 5.5q80 0 109.5 30t29.5 86v366q0 68 -35.5 111.5t-107.5 43.5q-44 0 -86.5 -21t-69.5 -57t-27 -77v-302q0 -8 -6 -14t-14 -6q-9 0 -14.5 6t-5.5 14v459q0 8 6 14t14 6q9 0 14.5 -6t5.5 -14v-67
q29 45 81.5 74t105.5 29q89 0 134 -52.5t45 -136.5v-370q1 -68 -40 -112z" />
    <glyph glyph-name="uni0272" unicode="&#x272;" horiz-adv-x="572" 
d="M444 462.5q45 -52.5 45 -136.5v-306q0 -8 -6 -14t-14 -6q-9 0 -14.5 6t-5.5 14v302q0 68 -35.5 111.5t-107.5 43.5q-44 0 -86.5 -21t-69.5 -57t-27 -77v-380q0 -55 -27 -86t-59 -42.5t-51 -11.5q-8 0 -13.5 5t-5.5 13q0 9 5 14.5t13 6.5q39 6 68.5 31t29.5 70v537
q0 8 6 14t14 6q9 0 14.5 -6t5.5 -14v-67q29 45 81.5 74t105.5 29q89 0 134 -52.5z" />
    <glyph glyph-name="uni01CC" unicode="&#x1cc;" horiz-adv-x="840" 
d="M444 462.5q45 -52.5 45 -136.5v-306q0 -8 -6 -14t-14 -6q-9 0 -14.5 6t-5.5 14v302q0 68 -35.5 111.5t-107.5 43.5q-44 0 -86.5 -21t-69.5 -57t-27 -77v-302q0 -8 -6 -14t-14 -6q-9 0 -14.5 6t-5.5 14v459q0 8 6 14t14 6q9 0 14.5 -6t5.5 -14v-67q29 45 81.5 74t105.5 29
q89 0 134 -52.5zM557 -193q-5 5 -5 13v2q0 7 5 12.5t13 6.5q39 6 68.5 31t29.5 70v538q0 8 5.5 14t14.5 6t14.5 -6t5.5 -14v-538q0 -42 -22 -74t-54 -49t-61 -17q-9 0 -14 5zM662.5 593q-9.5 9 -9.5 23v8q0 14 10 23t26 9q14 0 23.5 -9t9.5 -23v-8q0 -14 -9.5 -23t-24.5 -9
q-16 0 -25.5 9z" />
    <glyph glyph-name="uni1E49" unicode="&#x1e49;" horiz-adv-x="572" 
d="M444 462.5q45 -52.5 45 -136.5v-306q0 -8 -6 -14t-14 -6q-9 0 -14.5 6t-5.5 14v302q0 68 -35.5 111.5t-107.5 43.5q-44 0 -86.5 -21t-69.5 -57t-27 -77v-302q0 -8 -6 -14t-14 -6q-9 0 -14.5 6t-5.5 14v459q0 8 6 14t14 6q9 0 14.5 -6t5.5 -14v-67q29 45 81.5 74t105.5 29
q89 0 134 -52.5zM144 -99q0 19 20 19h230q20 0 20 -19q0 -18 -20 -18h-230q-20 0 -20 18z" />
    <glyph glyph-name="ntilde" unicode="&#xf1;" horiz-adv-x="572" 
d="M444 462.5q45 -52.5 45 -136.5v-306q0 -8 -6 -14t-14 -6q-9 0 -14.5 6t-5.5 14v302q0 68 -35.5 111.5t-107.5 43.5q-44 0 -86.5 -21t-69.5 -57t-27 -77v-302q0 -8 -6 -14t-14 -6q-9 0 -14.5 6t-5.5 14v459q0 8 6 14t14 6q9 0 14.5 -6t5.5 -14v-67q29 45 81.5 74t105.5 29
q89 0 134 -52.5zM143 592q0 3 4 21q8 31 30 46t49 15q15 0 32 -7.5t41 -22.5q21 -12 34.5 -18.5t24.5 -6.5q30 0 36 43q1 8 6 13t13 5q17 0 17 -15q0 -5 -1 -10t-2 -9q-14 -65 -77 -65q-13 0 -29 7t-38 21q-5 3 -19 10.5t-24 11t-18 3.5q-32 0 -44 -42q-4 -14 -19 -14
q-16 0 -16 14z" />
    <glyph glyph-name="o" unicode="o" horiz-adv-x="589" 
d="M509 118.5q-32 -59.5 -88.5 -94t-125.5 -34.5t-125.5 34.5t-89 94.5t-32.5 133q0 74 32.5 134t88.5 94.5t126 34.5q69 0 125.5 -34.5t88.5 -94.5t32 -134t-32 -133.5zM474.5 367q-26.5 51 -73.5 80.5t-106 29.5q-58 0 -105.5 -29.5t-74.5 -80.5t-27 -115q0 -63 27 -114
t74.5 -80.5t105.5 -29.5q59 0 106 29t73.5 80.5t26.5 114.5q0 64 -26.5 115z" />
    <glyph glyph-name="oacute" unicode="&#xf3;" horiz-adv-x="589" 
d="M509 118.5q-32 -59.5 -88.5 -94t-125.5 -34.5t-125.5 34.5t-89 94.5t-32.5 133q0 74 32.5 134t88.5 94.5t126 34.5q69 0 125.5 -34.5t88.5 -94.5t32 -134t-32 -133.5zM474.5 367q-26.5 51 -73.5 80.5t-106 29.5q-58 0 -105.5 -29.5t-74.5 -80.5t-27 -115q0 -63 27 -114
t74.5 -80.5t105.5 -29.5q59 0 106 29t73.5 80.5t26.5 114.5q0 64 -26.5 115zM269 559.5q-3 3.5 -3 8.5t5 13l62 93q9 16 26 16q11 0 18.5 -6.5t7.5 -18.5q0 -8 -7 -17l-75 -77q-15 -15 -26 -15q-5 0 -8 3.5z" />
    <glyph glyph-name="obreve" unicode="&#x14f;" horiz-adv-x="589" 
d="M509 118.5q-32 -59.5 -88.5 -94t-125.5 -34.5t-125.5 34.5t-89 94.5t-32.5 133q0 74 32.5 134t88.5 94.5t126 34.5q69 0 125.5 -34.5t88.5 -94.5t32 -134t-32 -133.5zM474.5 367q-26.5 51 -73.5 80.5t-106 29.5q-58 0 -105.5 -29.5t-74.5 -80.5t-27 -115q0 -63 27 -114
t74.5 -80.5t105.5 -29.5q59 0 106 29t73.5 80.5t26.5 114.5q0 64 -26.5 115zM224.5 601.5q-27.5 18.5 -44 48.5t-16.5 63q0 7 5.5 12.5t13.5 5.5q19 0 21 -20q4 -42 27 -66t54 -24t53.5 24.5t27.5 65.5q3 20 21 20q8 0 13.5 -5.5t5.5 -12.5q0 -33 -16.5 -63t-44 -48.5
t-60.5 -18.5t-60.5 18.5z" />
    <glyph glyph-name="uni01D2" unicode="&#x1d2;" horiz-adv-x="589" 
d="M509 118.5q-32 -59.5 -88.5 -94t-125.5 -34.5t-125.5 34.5t-89 94.5t-32.5 133q0 74 32.5 134t88.5 94.5t126 34.5q69 0 125.5 -34.5t88.5 -94.5t32 -134t-32 -133.5zM474.5 367q-26.5 51 -73.5 80.5t-106 29.5q-58 0 -105.5 -29.5t-74.5 -80.5t-27 -115q0 -63 27 -114
t74.5 -80.5t105.5 -29.5q59 0 106 29t73.5 80.5t26.5 114.5q0 64 -26.5 115zM406.5 686.5q3.5 -3.5 3.5 -8.5q0 -6 -6 -12l-81 -86q-8 -12 -24 -12h-10q-16 0 -24 12l-81 85q-6 6 -6 12q0 5 3.5 8.5t8.5 3.5q7 0 19 -10l88 -68l82 69q12 10 19 10q5 0 8.5 -3.5z" />
    <glyph glyph-name="ocircumflex" unicode="&#xf4;" horiz-adv-x="589" 
d="M509 118.5q-32 -59.5 -88.5 -94t-125.5 -34.5t-125.5 34.5t-89 94.5t-32.5 133q0 74 32.5 134t88.5 94.5t126 34.5q69 0 125.5 -34.5t88.5 -94.5t32 -134t-32 -133.5zM474.5 367q-26.5 51 -73.5 80.5t-106 29.5q-58 0 -105.5 -29.5t-74.5 -80.5t-27 -115q0 -63 27 -114
t74.5 -80.5t105.5 -29.5q59 0 106 29t73.5 80.5t26.5 114.5q0 64 -26.5 115zM413 590q0 -5 -3.5 -8.5t-8.5 -3.5q-7 0 -19 10l-88 68l-82 -69q-12 -10 -19 -10q-5 0 -8.5 3.5t-3.5 8.5q0 6 6 12l81 86q8 12 24 12h10q16 0 24 -12l81 -85q6 -6 6 -12z" />
    <glyph glyph-name="uni1ED1" unicode="&#x1ed1;" horiz-adv-x="589" 
d="M509 118.5q-32 -59.5 -88.5 -94t-125.5 -34.5t-125.5 34.5t-89 94.5t-32.5 133q0 74 32.5 134t88.5 94.5t126 34.5q69 0 125.5 -34.5t88.5 -94.5t32 -134t-32 -133.5zM474.5 367q-26.5 51 -73.5 80.5t-106 29.5q-58 0 -105.5 -29.5t-74.5 -80.5t-27 -115q0 -63 27 -114
t74.5 -80.5t105.5 -29.5q59 0 106 29t73.5 80.5t26.5 114.5q0 64 -26.5 115zM405 585q0 -5 -3.5 -8.5t-8.5 -3.5q-7 0 -19 10l-88 68l-82 -69q-12 -10 -19 -10q-5 0 -8.5 3.5t-3.5 8.5q0 6 6 12l81 86q8 12 24 12h10q16 0 24 -12l81 -85q6 -6 6 -12zM386 659.5
q-3 3.5 -3 8.5t5 13l62 93q9 16 26 16q11 0 18.5 -6.5t7.5 -18.5q0 -8 -7 -17l-75 -77q-15 -15 -26 -15q-5 0 -8 3.5z" />
    <glyph glyph-name="uni1ED9" unicode="&#x1ed9;" horiz-adv-x="589" 
d="M509 118.5q-32 -59.5 -88.5 -94t-125.5 -34.5t-125.5 34.5t-89 94.5t-32.5 133q0 74 32.5 134t88.5 94.5t126 34.5q69 0 125.5 -34.5t88.5 -94.5t32 -134t-32 -133.5zM474.5 367q-26.5 51 -73.5 80.5t-106 29.5q-58 0 -105.5 -29.5t-74.5 -80.5t-27 -115q0 -63 27 -114
t74.5 -80.5t105.5 -29.5q59 0 106 29t73.5 80.5t26.5 114.5q0 64 -26.5 115zM269.5 -121q-9.5 9 -9.5 23v8q0 14 10 23t26 9q14 0 23.5 -9t9.5 -23v-8q0 -14 -9.5 -23t-24.5 -9q-16 0 -25.5 9zM413 590q0 -5 -3.5 -8.5t-8.5 -3.5q-7 0 -19 10l-88 68l-82 -69
q-12 -10 -19 -10q-5 0 -8.5 3.5t-3.5 8.5q0 6 6 12l81 86q8 12 24 12h10q16 0 24 -12l81 -85q6 -6 6 -12z" />
    <glyph glyph-name="uni1ED3" unicode="&#x1ed3;" horiz-adv-x="589" 
d="M509 118.5q-32 -59.5 -88.5 -94t-125.5 -34.5t-125.5 34.5t-89 94.5t-32.5 133q0 74 32.5 134t88.5 94.5t126 34.5q69 0 125.5 -34.5t88.5 -94.5t32 -134t-32 -133.5zM474.5 367q-26.5 51 -73.5 80.5t-106 29.5q-58 0 -105.5 -29.5t-74.5 -80.5t-27 -115q0 -63 27 -114
t74.5 -80.5t105.5 -29.5q59 0 106 29t73.5 80.5t26.5 114.5q0 64 -26.5 115zM397 585q0 -5 -3.5 -8.5t-8.5 -3.5q-7 0 -19 10l-88 68l-82 -69q-12 -10 -19 -10q-5 0 -8.5 3.5t-3.5 8.5q0 6 6 12l81 86q8 12 24 12h10q16 0 24 -12l81 -85q6 -6 6 -12zM379 681l-71 79
q-7 9 -7 17q0 23 22 23q17 0 26 -16l62 -93q5 -8 5 -13t-3 -8.5t-8 -3.5q-11 0 -26 15z" />
    <glyph glyph-name="uni1ED5" unicode="&#x1ed5;" horiz-adv-x="589" 
d="M509 118.5q-32 -59.5 -88.5 -94t-125.5 -34.5t-125.5 34.5t-89 94.5t-32.5 133q0 74 32.5 134t88.5 94.5t126 34.5q69 0 125.5 -34.5t88.5 -94.5t32 -134t-32 -133.5zM474.5 367q-26.5 51 -73.5 80.5t-106 29.5q-58 0 -105.5 -29.5t-74.5 -80.5t-27 -115q0 -63 27 -114
t74.5 -80.5t105.5 -29.5q59 0 106 29t73.5 80.5t26.5 114.5q0 64 -26.5 115zM409 597q0 -5 -3.5 -8.5t-8.5 -3.5q-7 0 -19 10l-88 68l-82 -69q-12 -10 -19 -10q-5 0 -8.5 3.5t-3.5 8.5q0 6 6 12l81 86q8 12 24 12h10q16 0 24 -12l81 -85q6 -6 6 -12zM429 807
q37 0 55.5 -21.5t18.5 -47.5q0 -16 -9 -29.5t-29 -33.5q-8 -8 -9 -23q-1 -7 -5.5 -10.5t-11.5 -3.5q-8 0 -12 4.5t-4 11.5q0 25 14 40q5 5 14 14.5t13 16t4 14.5q0 13 -11 22.5t-26 9.5q-22 0 -47 -19q-10 -8 -18 -8q-7 0 -13 6q-4 6 -4 11q0 7 7 14q32 32 73 32z" />
    <glyph glyph-name="uni1ED7" unicode="&#x1ed7;" horiz-adv-x="589" 
d="M509 118.5q-32 -59.5 -88.5 -94t-125.5 -34.5t-125.5 34.5t-89 94.5t-32.5 133q0 74 32.5 134t88.5 94.5t126 34.5q69 0 125.5 -34.5t88.5 -94.5t32 -134t-32 -133.5zM474.5 367q-26.5 51 -73.5 80.5t-106 29.5q-58 0 -105.5 -29.5t-74.5 -80.5t-27 -115q0 -63 27 -114
t74.5 -80.5t105.5 -29.5q59 0 106 29t73.5 80.5t26.5 114.5q0 64 -26.5 115zM413 585q0 -5 -3.5 -8.5t-8.5 -3.5q-7 0 -19 10l-88 68l-82 -69q-12 -10 -19 -10q-5 0 -8.5 3.5t-3.5 8.5q0 6 6 12l81 86q8 12 24 12h10q16 0 24 -12l81 -85q6 -6 6 -12zM156 718q0 3 4 21
q8 31 30 46t49 15q15 0 32 -7.5t41 -22.5q21 -12 34.5 -18.5t24.5 -6.5q30 0 36 43q1 8 6 13t13 5q17 0 17 -15q0 -5 -1 -10t-2 -9q-14 -65 -77 -65q-13 0 -29 7t-38 21q-5 3 -19 10.5t-24 11t-18 3.5q-32 0 -44 -42q-4 -14 -19 -14q-16 0 -16 14z" />
    <glyph glyph-name="uni020D" unicode="&#x20d;" horiz-adv-x="589" 
d="M509 118.5q-32 -59.5 -88.5 -94t-125.5 -34.5t-125.5 34.5t-89 94.5t-32.5 133q0 74 32.5 134t88.5 94.5t126 34.5q69 0 125.5 -34.5t88.5 -94.5t32 -134t-32 -133.5zM474.5 367q-26.5 51 -73.5 80.5t-106 29.5q-58 0 -105.5 -29.5t-74.5 -80.5t-27 -115q0 -63 27 -114
t74.5 -80.5t105.5 -29.5q59 0 106 29t73.5 80.5t26.5 114.5q0 64 -26.5 115zM229 618l-71 79q-7 9 -7 17q0 23 22 23q17 0 26 -16l62 -93q5 -8 5 -13t-3 -8.5t-8 -3.5q-11 0 -26 15zM357 618l-71 79q-7 9 -7 17q0 23 22 23q17 0 26 -16l62 -93q5 -8 5 -13t-3 -8.5t-8 -3.5
q-11 0 -26 15z" />
    <glyph glyph-name="odieresis" unicode="&#xf6;" horiz-adv-x="589" 
d="M509 118.5q-32 -59.5 -88.5 -94t-125.5 -34.5t-125.5 34.5t-89 94.5t-32.5 133q0 74 32.5 134t88.5 94.5t126 34.5q69 0 125.5 -34.5t88.5 -94.5t32 -134t-32 -133.5zM474.5 367q-26.5 51 -73.5 80.5t-106 29.5q-58 0 -105.5 -29.5t-74.5 -80.5t-27 -115q0 -63 27 -114
t74.5 -80.5t105.5 -29.5q59 0 106 29t73.5 80.5t26.5 114.5q0 64 -26.5 115zM176.5 609q-9.5 10 -9.5 26v8q0 16 10 26t26 10q14 0 23.5 -10t9.5 -26v-8q0 -16 -9.5 -26t-24.5 -10q-16 0 -25.5 10zM339.5 609q-9.5 10 -9.5 26v8q0 16 10 26t26 10q14 0 23.5 -10t9.5 -26v-8
q0 -16 -9.5 -26t-24.5 -10q-16 0 -25.5 10z" />
    <glyph glyph-name="uni022B" unicode="&#x22b;" horiz-adv-x="589" 
d="M509 118.5q-32 -59.5 -88.5 -94t-125.5 -34.5t-125.5 34.5t-89 94.5t-32.5 133q0 74 32.5 134t88.5 94.5t126 34.5q69 0 125.5 -34.5t88.5 -94.5t32 -134t-32 -133.5zM474.5 367q-26.5 51 -73.5 80.5t-106 29.5q-58 0 -105.5 -29.5t-74.5 -80.5t-27 -115q0 -63 27 -114
t74.5 -80.5t105.5 -29.5q59 0 106 29t73.5 80.5t26.5 114.5q0 64 -26.5 115zM176.5 609q-9.5 10 -9.5 26v8q0 16 10 26t26 10q14 0 23.5 -10t9.5 -26v-8q0 -16 -9.5 -26t-24.5 -10q-16 0 -25.5 10zM339.5 609q-9.5 10 -9.5 26v8q0 16 10 26t26 10q14 0 23.5 -10t9.5 -26v-8
q0 -16 -9.5 -26t-24.5 -10q-16 0 -25.5 10zM152 758q0 21 20 21h240q20 0 20 -21q0 -20 -20 -20h-240q-20 0 -20 20z" />
    <glyph glyph-name="uni0231" unicode="&#x231;" horiz-adv-x="589" 
d="M509 118.5q-32 -59.5 -88.5 -94t-125.5 -34.5t-125.5 34.5t-89 94.5t-32.5 133q0 74 32.5 134t88.5 94.5t126 34.5q69 0 125.5 -34.5t88.5 -94.5t32 -134t-32 -133.5zM474.5 367q-26.5 51 -73.5 80.5t-106 29.5q-58 0 -105.5 -29.5t-74.5 -80.5t-27 -115q0 -63 27 -114
t74.5 -80.5t105.5 -29.5q59 0 106 29t73.5 80.5t26.5 114.5q0 64 -26.5 115zM269.5 602q-9.5 9 -9.5 23v8q0 14 10 23t26 9q14 0 23.5 -9t9.5 -23v-8q0 -14 -9.5 -23t-24.5 -9q-16 0 -25.5 9zM152 765q0 21 20 21h240q20 0 20 -21q0 -20 -20 -20h-240q-20 0 -20 20z" />
    <glyph glyph-name="uni1ECD" unicode="&#x1ecd;" horiz-adv-x="589" 
d="M509 118.5q-32 -59.5 -88.5 -94t-125.5 -34.5t-125.5 34.5t-89 94.5t-32.5 133q0 74 32.5 134t88.5 94.5t126 34.5q69 0 125.5 -34.5t88.5 -94.5t32 -134t-32 -133.5zM474.5 367q-26.5 51 -73.5 80.5t-106 29.5q-58 0 -105.5 -29.5t-74.5 -80.5t-27 -115q0 -63 27 -114
t74.5 -80.5t105.5 -29.5q59 0 106 29t73.5 80.5t26.5 114.5q0 64 -26.5 115zM269.5 -121q-9.5 9 -9.5 23v8q0 14 10 23t26 9q14 0 23.5 -9t9.5 -23v-8q0 -14 -9.5 -23t-24.5 -9q-16 0 -25.5 9z" />
    <glyph glyph-name="ograve" unicode="&#xf2;" horiz-adv-x="589" 
d="M509 118.5q-32 -59.5 -88.5 -94t-125.5 -34.5t-125.5 34.5t-89 94.5t-32.5 133q0 74 32.5 134t88.5 94.5t126 34.5q69 0 125.5 -34.5t88.5 -94.5t32 -134t-32 -133.5zM474.5 367q-26.5 51 -73.5 80.5t-106 29.5q-58 0 -105.5 -29.5t-74.5 -80.5t-27 -115q0 -63 27 -114
t74.5 -80.5t105.5 -29.5q59 0 106 29t73.5 80.5t26.5 114.5q0 64 -26.5 115zM270 579l-71 79q-7 9 -7 17q0 23 22 23q17 0 26 -16l62 -93q5 -8 5 -13t-3 -8.5t-8 -3.5q-11 0 -26 15z" />
    <glyph glyph-name="uni1ECF" unicode="&#x1ecf;" horiz-adv-x="589" 
d="M509 118.5q-32 -59.5 -88.5 -94t-125.5 -34.5t-125.5 34.5t-89 94.5t-32.5 133q0 74 32.5 134t88.5 94.5t126 34.5q69 0 125.5 -34.5t88.5 -94.5t32 -134t-32 -133.5zM474.5 367q-26.5 51 -73.5 80.5t-106 29.5q-58 0 -105.5 -29.5t-74.5 -80.5t-27 -115q0 -63 27 -114
t74.5 -80.5t105.5 -29.5q59 0 106 29t73.5 80.5t26.5 114.5q0 64 -26.5 115zM298 735q37 0 55.5 -21.5t18.5 -47.5q0 -16 -9 -29.5t-29 -33.5q-8 -8 -9 -23q-1 -7 -5.5 -10.5t-11.5 -3.5q-8 0 -12 4.5t-4 11.5q0 25 14 40q5 5 14 14.5t13 16t4 14.5q0 13 -11 22.5t-26 9.5
q-22 0 -47 -19q-10 -8 -18 -8q-7 0 -13 6q-4 6 -4 11q0 7 7 14q32 32 73 32z" />
    <glyph glyph-name="ohorn" unicode="&#x1a1;" horiz-adv-x="589" 
d="M514 376.5q27 -56.5 27 -124.5q0 -74 -32 -133.5t-88.5 -94t-125.5 -34.5t-125.5 34.5t-89 94.5t-32.5 133q0 74 32.5 134t88.5 94.5t126 34.5q48 0 91 -17v1q51 0 74 19t23 63q0 13 4.5 21.5t13.5 8.5q18 0 18 -30q0 -43 -21 -72t-59 -41q48 -35 75 -91.5zM401 57
q47 29 73.5 80.5t26.5 114.5q0 64 -26.5 115t-73.5 80.5t-106 29.5q-58 0 -105.5 -29.5t-74.5 -80.5t-27 -115q0 -63 27 -114t74.5 -80.5t105.5 -29.5q59 0 106 29z" />
    <glyph glyph-name="uni1EDB" unicode="&#x1edb;" horiz-adv-x="589" 
d="M514 376.5q27 -56.5 27 -124.5q0 -74 -32 -133.5t-88.5 -94t-125.5 -34.5t-125.5 34.5t-89 94.5t-32.5 133q0 74 32.5 134t88.5 94.5t126 34.5q48 0 91 -17v1q51 0 74 19t23 63q0 13 4.5 21.5t13.5 8.5q18 0 18 -30q0 -43 -21 -72t-59 -41q48 -35 75 -91.5zM401 57
q47 29 73.5 80.5t26.5 114.5q0 64 -26.5 115t-73.5 80.5t-106 29.5q-58 0 -105.5 -29.5t-74.5 -80.5t-27 -115q0 -63 27 -114t74.5 -80.5t105.5 -29.5q59 0 106 29zM274 549.5q-3 3.5 -3 8.5t5 13l62 93q9 16 26 16q11 0 18.5 -6.5t7.5 -18.5q0 -8 -7 -17l-75 -77
q-15 -15 -26 -15q-5 0 -8 3.5z" />
    <glyph glyph-name="uni1EE3" unicode="&#x1ee3;" horiz-adv-x="589" 
d="M514 376.5q27 -56.5 27 -124.5q0 -74 -32 -133.5t-88.5 -94t-125.5 -34.5t-125.5 34.5t-89 94.5t-32.5 133q0 74 32.5 134t88.5 94.5t126 34.5q48 0 91 -17v1q51 0 74 19t23 63q0 13 4.5 21.5t13.5 8.5q18 0 18 -30q0 -43 -21 -72t-59 -41q48 -35 75 -91.5zM401 57
q47 29 73.5 80.5t26.5 114.5q0 64 -26.5 115t-73.5 80.5t-106 29.5q-58 0 -105.5 -29.5t-74.5 -80.5t-27 -115q0 -63 27 -114t74.5 -80.5t105.5 -29.5q59 0 106 29zM274.5 -121q-9.5 9 -9.5 23v8q0 14 10 23t26 9q14 0 23.5 -9t9.5 -23v-8q0 -14 -9.5 -23t-24.5 -9
q-16 0 -25.5 9z" />
    </font>
</defs>
</svg>
